<mxfile host="app.diagrams.net" modified="2022-12-23T04:28:46.644Z" agent="5.0 (Macintosh; Intel Mac OS X 10_15_7) AppleWebKit/537.36 (KHTML, like Gecko) Chrome/108.0.0.0 Safari/537.36" version="20.7.4" etag="U8S0NIwP0BXknkhVbBdk" type="github">
  <diagram id="YiTAOyf8RFWg7h4rcv-Z" name="Page-1">
    <mxGraphModel dx="1140" dy="733" grid="1" gridSize="10" guides="1" tooltips="1" connect="1" arrows="1" fold="1" page="1" pageScale="1" pageWidth="850" pageHeight="1100" math="0" shadow="0">
      <root>
        <mxCell id="0" />
        <mxCell id="1" parent="0" />
        <mxCell id="QlD7434E7cFauA96BwXS-8" style="edgeStyle=orthogonalEdgeStyle;rounded=0;orthogonalLoop=1;jettySize=auto;html=1;entryX=0;entryY=0.5;entryDx=0;entryDy=0;startArrow=classic;startFill=1;" edge="1" parent="1" source="QlD7434E7cFauA96BwXS-4" target="QlD7434E7cFauA96BwXS-5">
          <mxGeometry relative="1" as="geometry" />
        </mxCell>
        <mxCell id="QlD7434E7cFauA96BwXS-11" style="rounded=0;orthogonalLoop=1;jettySize=auto;html=1;entryX=0;entryY=1;entryDx=0;entryDy=0;startArrow=classic;startFill=1;" edge="1" parent="1" source="QlD7434E7cFauA96BwXS-4" target="QlD7434E7cFauA96BwXS-7">
          <mxGeometry relative="1" as="geometry" />
        </mxCell>
        <mxCell id="QlD7434E7cFauA96BwXS-4" value="" style="sketch=0;outlineConnect=0;fontColor=#232F3E;gradientColor=none;fillColor=#232F3D;strokeColor=none;dashed=0;verticalLabelPosition=bottom;verticalAlign=top;align=center;html=1;fontSize=12;fontStyle=0;aspect=fixed;pointerEvents=1;shape=mxgraph.aws4.user;" vertex="1" parent="1">
          <mxGeometry x="140" y="349.5" width="78" height="78" as="geometry" />
        </mxCell>
        <mxCell id="QlD7434E7cFauA96BwXS-9" style="edgeStyle=orthogonalEdgeStyle;rounded=0;orthogonalLoop=1;jettySize=auto;html=1;entryX=0;entryY=0.5;entryDx=0;entryDy=0;startArrow=classic;startFill=1;" edge="1" parent="1" source="QlD7434E7cFauA96BwXS-5" target="QlD7434E7cFauA96BwXS-6">
          <mxGeometry relative="1" as="geometry" />
        </mxCell>
        <mxCell id="QlD7434E7cFauA96BwXS-5" value="" style="shape=image;verticalLabelPosition=bottom;labelBackgroundColor=default;verticalAlign=top;aspect=fixed;imageAspect=0;image=data:image/png,iVBORw0KGgoAAAANSUhEUgAAAPgAAAD8CAYAAABaQGkdAAAMP2lDQ1BJQ0MgUHJvZmlsZQAASImVVwdYU8kWnltSIbQAAlJCb4KIlABSQmgBpHcbIQkQSoiBoGJHFhVcu1jAhq6KKFgBsSN2FsWGfbGgoqyLBbvyJgV03Ve+N983d/77z5n/nDl35t47AKif4IrFOagGALmiAklMsD8jKTmFQXoCyMAEEAEKSFxevpgVFRUOYBls/17e3QCIrL3qINP6Z/9/LZp8QT4PACQK4jR+Pi8X4gMA4FU8saQAAKKMN59SIJZhWIG2BAYI8QIZzlDgKhlOU+A9cpu4GDbErQCQVblcSQYAapchzyjkZUANtT6InUR8oQgAdQbEPrm5eXyIUyG2gTZiiGX6zLQfdDL+ppk2pMnlZgxhxVzkhRwgzBfncKf9n+n43yU3RzrowwpW1UxJSIxszjBvN7PzwmRYFeJeUVpEJMRaEH8Q8uX2EKPUTGlIvMIeNeTls2HOgC7ETnxuQBjEhhAHiXIiwpV8WrowiAMxXCHoVGEBJw5iPYgXCPIDY5U2myR5MUpfaEO6hM1S8ue4Erlfma/70ux4llL/daaAo9TH1Ioy4xIhpkJsUShMiIBYDWLH/OzYMKXNmKJMdsSgjUQaI4vfAuIYgSjYX6GPFaZLgmKU9mW5+YPzxTZlCjkRSryvIDMuRJEfrJXHlccP54JdFohY8YM6gvyk8MG58AUBgYq5Y88EovhYpc4HcYF/jGIsThXnRCntcTNBTrCMN4PYJb8wVjkWTyiAC1Khj6eLC6LiFHHiRVnc0ChFPPhSEA7YIAAwgBTWNJAHsoCwvbexF94peoIAF0hABhAAByUzOCJR3iOC11hQBP6ESADyh8b5y3sFoBDyX4dYxdUBpMt7C+UjssETiHNBGMiB91L5KNGQtwTwGDLCf3jnwsqD8ebAKuv/9/wg+51hQSZcyUgHPTLUBy2JgcQAYggxiGiLG+A+uBceDq9+sDrjTNxjcB7f7QlPCB2Eh4TrhC7CrUnCYslPUY4FXVA/SJmLtB9zgVtBTVfcH/eG6lAZ18UNgAPuAv2wcF/o2RWybGXcsqwwftL+2wx+eBpKO4oTBaUMo/hRbH4eqWan5jqkIsv1j/lRxJo2lG/2UM/P/tk/ZJ8P27CfLbEF2H7sLHYSO48dwRoBAzuONWFt2FEZHlpdj+Wra9BbjDyebKgj/Ie/wScry2S+U61Tj9MXRV+BYKrsHQ3YeeJpEmFGZgGDBb8IAgZHxHMcwXB2cnYGQPZ9Uby+3kTLvxuIbtt3bt4fAHgfHxgYOPydCz0OwF53uP0PfedsmPDToQLAuUM8qaRQweGyCwG+JdThTtMHxsAc2MD5OAM34AX8QCAIBZEgDiSDiTD6TLjOJWAKmAHmglJQDpaCVWAd2Ai2gB1gN9gHGsERcBKcARfBZXAd3IGrpxu8AH3gHfiMIAgJoSF0RB8xQSwRe8QZYSI+SCASjsQgyUgqkoGIECkyA5mHlCPLkXXIZqQG2YscQk4i55EO5BbyAOlBXiOfUAxVRbVRI9QKHYkyURYahsahE9AMdDJahJagi9E1aDW6C21AT6IX0etoF/oC7ccApoLpYqaYA8bE2FgkloKlYxJsFlaGVWDVWB3WDJ/zVawL68U+4kScjjNwB7iCQ/B4nIdPxmfhi/B1+A68AW/Fr+IP8D78G4FGMCTYEzwJHEISIYMwhVBKqCBsIxwknIZ7qZvwjkgk6hKtie5wLyYTs4jTiYuI64n1xBPEDuIjYj+JRNIn2ZO8SZEkLqmAVEpaS9pFOk66QuomfSCrkE3IzuQgcgpZRC4mV5B3ko+Rr5Cfkj9TNCiWFE9KJIVPmUZZQtlKaaZconRTPlM1qdZUb2ocNYs6l7qGWkc9Tb1LfaOiomKm4qESrSJUmaOyRmWPyjmVByofVbVU7VTZquNVpaqLVbernlC9pfqGRqNZ0fxoKbQC2mJaDe0U7T7tgxpdzVGNo8ZXm61WqdagdkXtpTpF3VKdpT5RvUi9Qn2/+iX1Xg2KhpUGW4OrMUujUuOQRqdGvyZdc5RmpGau5iLNnZrnNZ9pkbSstAK1+FolWlu0Tmk9omN0czqbzqPPo2+ln6Z3axO1rbU52lna5dq7tdu1+3S0dFx0EnSm6lTqHNXp0sV0rXQ5ujm6S3T36d7Q/TTMaBhrmGDYwmF1w64Me683XM9PT6BXplevd13vkz5DP1A/W3+ZfqP+PQPcwM4g2mCKwQaD0wa9w7WHew3nDS8bvm/4bUPU0M4wxnC64RbDNsN+I2OjYCOx0VqjU0a9xrrGfsZZxiuNjxn3mNBNfEyEJitNjps8Z+gwWIwcxhpGK6PP1NA0xFRqutm03fSzmbVZvFmxWb3ZPXOqOdM83XyleYt5n4WJxViLGRa1FrctKZZMy0zL1ZZnLd9bWVslWs23arR6Zq1nzbEusq61vmtDs/G1mWxTbXPNlmjLtM22XW972Q61c7XLtKu0u2SP2rvZC+3X23eMIIzwGCEaUT2i00HVgeVQ6FDr8MBR1zHcsdix0fHlSIuRKSOXjTw78puTq1OO01anO6O0RoWOKh7VPOq1s50zz7nS+dpo2uig0bNHN41+5WLvInDZ4HLTle461nW+a4vrVzd3N4lbnVuPu4V7qnuVeydTmxnFXMQ850Hw8PeY7XHE46Onm2eB5z7Pv7wcvLK9dno9G2M9RjBm65hH3mbeXO/N3l0+DJ9Un00+Xb6mvlzfat+HfuZ+fL9tfk9Ztqws1i7WS38nf4n/Qf/3bE/2TPaJACwgOKAsoD1QKzA+cF3g/SCzoIyg2qC+YNfg6cEnQgghYSHLQjo5Rhwep4bTF+oeOjO0NUw1LDZsXdjDcLtwSXjzWHRs6NgVY+9GWEaIIhojQSQnckXkvSjrqMlRh6OJ0VHRldFPYkbFzIg5G0uPnRS7M/ZdnH/ckrg78Tbx0viWBPWE8Qk1Ce8TAxKXJ3YljUyamXQx2SBZmNyUQkpJSNmW0j8ucNyqcd3jXceXjr8xwXrC1AnnJxpMzJl4dJL6JO6k/amE1MTUnalfuJHcam5/GietKq2Px+at5r3g+/FX8nsE3oLlgqfp3unL059leGesyOjJ9M2syOwVsoXrhK+yQrI2Zr3Pjszenj2Qk5hTn0vOTc09JNISZYta84zzpuZ1iO3FpeKuyZ6TV03uk4RJtuUj+RPymwq04Y98m9RG+ov0QaFPYWXhhykJU/ZP1Zwqmto2zW7awmlPi4KKfpuOT+dNb5lhOmPujAczWTM3z0Jmpc1qmW0+u2R295zgOTvmUudmz/292Kl4efHbeYnzmkuMSuaUPPol+JfaUrVSSWnnfK/5GxfgC4QL2heOXrh24bcyftmFcqfyivIvi3iLLvw66tc1vw4sTl/cvsRtyYalxKWipTeW+S7bsVxzedHyRyvGrmhYyVhZtvLtqkmrzle4VGxcTV0tXd21JnxN01qLtUvXflmXue56pX9lfZVh1cKq9+v5669s8NtQt9FoY/nGT5uEm25uDt7cUG1VXbGFuKVwy5OtCVvP/sb8rWabwbbybV+3i7Z37YjZ0VrjXlOz03Dnklq0Vlrbs2v8rsu7A3Y31TnUba7XrS/fA/ZI9zzfm7r3xr6wfS37mfvrDlgeqDpIP1jWgDRMa+hrzGzsakpu6jgUeqil2av54GHHw9uPmB6pPKpzdMkx6rGSYwPHi473nxCf6D2ZcfJRy6SWO6eSTl1rjW5tPx12+tyZoDOnzrLOHj/nfe7Iec/zhy4wLzRedLvY0ObadvB3198Ptru1N1xyv9R02eNyc8eYjmNXfK+cvBpw9cw1zrWL1yOud9yIv3Gzc3xn103+zWe3cm69ul14+/OdOXcJd8vuadyruG94v/oP2z/qu9y6jj4IeND2MPbhnUe8Ry8e5z/+0l3yhPak4qnJ05pnzs+O9AT1XH4+7nn3C/GLz72lf2r+WfXS5uWBv/z+autL6ut+JXk18HrRG/0329+6vG3pj+q//y733ef3ZR/0P+z4yPx49lPip6efp3whfVnz1fZr87ewb3cHcgcGxFwJV/4rgMGKpqcD8Ho7ALRkAOjwfEYdpzj/yQuiOLPKEfhPWHFGlBc3AOrg/3t0L/y76QRgz1Z4/IL66uMBiKIBEOcB0NGjh+rgWU1+rpQVIjwHbIr4mpabBv5NUZw5f4j75xbIVF3Az+2/AKZ3fDwijcEOAAAAimVYSWZNTQAqAAAACAAEARoABQAAAAEAAAA+ARsABQAAAAEAAABGASgAAwAAAAEAAgAAh2kABAAAAAEAAABOAAAAAAAAAJAAAAABAAAAkAAAAAEAA5KGAAcAAAASAAAAeKACAAQAAAABAAAA+KADAAQAAAABAAAA/AAAAABBU0NJSQAAAFNjcmVlbnNob3Q80MmtAAAACXBIWXMAABYlAAAWJQFJUiTwAAAB1mlUWHRYTUw6Y29tLmFkb2JlLnhtcAAAAAAAPHg6eG1wbWV0YSB4bWxuczp4PSJhZG9iZTpuczptZXRhLyIgeDp4bXB0az0iWE1QIENvcmUgNi4wLjAiPgogICA8cmRmOlJERiB4bWxuczpyZGY9Imh0dHA6Ly93d3cudzMub3JnLzE5OTkvMDIvMjItcmRmLXN5bnRheC1ucyMiPgogICAgICA8cmRmOkRlc2NyaXB0aW9uIHJkZjphYm91dD0iIgogICAgICAgICAgICB4bWxuczpleGlmPSJodHRwOi8vbnMuYWRvYmUuY29tL2V4aWYvMS4wLyI+CiAgICAgICAgIDxleGlmOlBpeGVsWURpbWVuc2lvbj4yNTI8L2V4aWY6UGl4ZWxZRGltZW5zaW9uPgogICAgICAgICA8ZXhpZjpQaXhlbFhEaW1lbnNpb24+MjQ4PC9leGlmOlBpeGVsWERpbWVuc2lvbj4KICAgICAgICAgPGV4aWY6VXNlckNvbW1lbnQ+U2NyZWVuc2hvdDwvZXhpZjpVc2VyQ29tbWVudD4KICAgICAgPC9yZGY6RGVzY3JpcHRpb24+CiAgIDwvcmRmOlJERj4KPC94OnhtcG1ldGE+Co1aW08AAAAcaURPVAAAAAIAAAAAAAAAfgAAACgAAAB+AAAAfgAAcjxSeKDqAABAAElEQVR4Aey915dkSZKf5xGRsrK0alWt5XSP6FGrAOxiFbECAPEA8pV/GMEHvhAkwXP4wsPDQ00Qi92ZVTPTYrqne1rL0iKzUkYEv8/MPeJmVla1yuZW9YmbeeP6dWFubm4/1+639967745/+pd/WT56550y2rhefve3nyjnTi+V+Z21MhjvlH4ZlUG/V8b+jevdK6XX42d2zSQwk8DXLoFxJ4Y+GCy9cRF98YtB9xF4HIVdv/TmD5XByn1l4eQzpfc3P/nJ+L/+N/9leeflvytzWxfKf/Gvv1+ef+RQWd66XOaHW2V+PCyDuSQ3HI3KGOJjiAXAMefVwN59323uvsFhsDINa/GRtvu5df1NzZr2hku7qZ9urLvNe+Pb/f556dzZXzfGO6frznS66dmP5m7euz5uZ741vq7PO/O622eql/T2z9Pmcjv31Jxbwxquhdkd416/+uv6uL1Zl258u98/L507++vG3vg3xK1m7bq+9zdrK3D1ajU7AOA+rV/H3ryNqICH+hPkYwC+fLLMnf5WWXnsj0rv73/6k/F/81/9m3Jm+UJ54uxWefzsfDm5uFOWtteoxQE3oO4PWg1OVHP9UgYQNuaIgEflzQj5D2bSUM3tscc9SOwT9rZ09sZnXBHh5+ChG7ZrlrdKI4Uo0bQL65rOtOR3n7B38tel2XjV7ovS6cq48RLxfkF+unQmfEMwsgGLiV0YqsMec7AfAe4gp9vQvF3Yz8rzvXK8HZ3PlHGH711ylN87pP+LxLeX1xbPl8lzeRopfxjoAboEeOZTcxPgFgL6G9Pm7i0eK3Mnny7LT/xJ6b312i/G/+///O/KA4c+LeeOXQPUN8ricLMcsnm+PSx9AN6jBreuHFl6YO4JeFPMHULR7KsCqua0mf42a3nd77pT2K7/rr9GU8G1eLvu3XB7zXv9NVqNv73u3fBdt66560fzXpq3uH9JviXc+Ix4OnT2xtF97/LaNQcNfw6Azq746kuX113uXyC+O6V5b1q6cXTNe/3tzZ+97rcLe0d/NdDnSfNn0ZGGfgLgI7AHwwMEEbqOvW7pDsD1V7WiL8BPPVmWHv/T0lu79Pb40lt/UXpXXiq962+W4dpVmubbZUUQA3BQTZveEmJcdkYAXoBTifci1uQA2nEpsK5Zy3zPpnR70+4W4U787na7s7+pazferrnxMPWpTcax15+2pO627l3/tzMbWLcWXzNJt9ndLmzXfi+d3W5J6bN4/fzxTX3ujmd3WrpuXfP+vB5snnflaHxy3OWha96fn1vD6E/brhy1kdZUItrcGvZO8bXQB5Hn8iHUrL1lqk9VHXGD8rFjY7w0cEdKsBgsHS0LZ54sCwHwC2+ML/7qfyuji78o/eu/LvOj7eh3z1VCra0/BOJD+uM9iPYBeL8CPCIzlrhkJ8WlyUuXltVhscs9/Ye9xdId6GRYfm/xpx13C7vLPUMlD5rvFF/6TWJTv9OwLS1TtwixK76kPw3je17dzG52u9JS6UzD3im+RkHfXHfkoUOn669rbuockVeaVVZTfu4ku/8/8rwmlcwOqXb575rTW9U7X+7Ed/Ucvqd+p2nuyO62dJLGNMzB57mVq/RNpncKgIddZRwC4KH/NM9xF+Dzpx4rC0/+GTX4+VfHl1/7n8rw019Qg79TDlFD2wwAzaCYAJYS4xHwNhrsIGhkAwj69IpIeXMAbmKuXLSsJ2RcGcZfqPHoBWPNrJfddPb3V8MHxQjyJelM46vs1jTt5qEVUJO0fAG+q8iSyX3TbFrMqN2yS9uazj3xTXntuktlN98hu7Dt+tN8a3xhGfFo2odOuHXp3OrvFjkFUaml3/3z8lY6+/nbP81JeZfsOnLcj85EPzVUpWz87aJTHb+ePL81zbfIDqbERrMPKQq/WpPLegO4g95j/XL3uQdLR+iDP1oWnvrz0ts4//L42uv/Yxmff6X0rr1X5mmaW2s7IrczBNZQssZ2qszxtRHAH2MJ9CPjQjhVUDUnU3AptYkQwyBhL/133Zv5Tm57w+hXQl2aWjVae/3vZ19JTMN0Au3nv+Nc8/9zxNcJdDuaX5hvaEpWxhvNW9KSzlrfIm/tWrigw0+8V0vtuu77maVxJ3+666GbP1+GziSMkXlhMbFLm13vXbf9zAbZxXfnZT//HecIZ/jP9NcJdDu/n4uOnrikAXC9YqpaA68MmOdTcGMhwC23rMHnTj2eNfjm+ZfGa6//D2V88ZfU4B9GCWGVvwOgrbP9H5BJA5590e6Fe5aE+XrLr96Snwif7ljul9m3BO5Y7KXTaOolWOnQ7AQL453C7vXb3mPk0MQ1C56fl87t/DWakmx0u347UYWx69Y17+dPu0ZzP/fm9kXpdP3fzvxZ8YU7gQ88zw8gzV3eW/40Wen2ZdO8l4a0ml2Xpvbdq+vWNVc/jYR8iU29hLeJQ1pmQ54oAfjg9GNl8Qlq8K3zvxivv/bvSrnyeumtflRGO6OyTfDNqLX7gJtbalt0yjd2ymBxEKPoFBeTiLq8zswzCcwkcLASsIxsPQpr7ZgSA302x/tgM9vSCfoYGls+UganHgHg/6L0ts//fLz++n9PDf56Kdc/Cs52ILIpUSgHAZrljt458OYVi1zwI8Ql2GpzWxHNnD6nv5YRXniZXF3/u8x7/XXe9/oLYp1497rviu92dPRUGWz+u3Qijs5P122XuUNf7/umueNnV9hOGgzbvfb6a4T347Xrt0tDc9dtl7l57PAg741+hO287wrbCdPItOe+6e/430WnQ9/w3fj1p8Uufr4knaafjTfjanS7/Gjfvbpuu8x4auH13+jutWvvu8Ji2fjpxhV09rhFQwi7AHclFiPqIZe0cAxhCvBHy+LjFeAbr/93ZXRegH9MO5zxNe4tI5B1m+UAfA7znLEYg80aB998hWhjssv8LQxrIc0mAcl03m9nNtjt3Cakviodwrec0ejVjTNtpr9dt9uZG43PrZidNCinxk+j0+RmfM1tP167/OwXtktnYtajV4eHL0MniUx/I386NHXp0r2deT9/nzfNXZr70Zmk+TPkaNju1aV7O7P+dftSed6NrNJpvOqUK0eBIsSb3kfly4s4FdzaB29Rg9NEf/yfW4P/bBwAv/ArAP6JXqIU2Km5Lb9GJDFw71skIBLCm0T146XZq6axY+663Oqux66Pz2POMFOfn81DsHMLb9O4k1a3uaPbrWmZ0pmGvb2/lrLIhAx6C83PQ2d3+qa8TiWQxLvvtzPfGl/X5+3TslcWt9JJHtLfnWneOWyXTppvJ8fPS6f5u50cm7vPvencnZLGye39NR8HledJz4E0TC0BMopNe9Wttab7ywyynWaQ7XH64Anw/7aMLrxRyjUBnuSGhgTZjUB9DfdMWjX+gz5MVuPwIBg5aHoHwdO9TONekOe9weMUiYlP1T4hn/ohuCMl/MQo+pldAP+3FeCfhi89RmnQ2ggNQzrUq9V07X32nElgJoGvRwLZ+K4gbBj0teLTWl1rb+fOE+AsdJnW4DOAfz1ZM6M6k8BXl8AM4F9dhjMKMwnctRKYAfyuzZoZYzMJfHUJzAD+1WU4ozCTwF0rgRnA79qsmTE2k8BXl8AM4F9dhjMKMwnctRKYAfyuzZoZYzMJfHUJzAD+1WU4ozCTwF0rgRnA79qsmTE2k8BXl8AM4F9dhjMKMwnctRKYAfyuzZoZYzMJfHUJzAD+1WU4ozCTwF0rgRnA79qsmTE2k8BXl8AM4F9dhjMKMwnctRKYAfyuzZoZYzMJfHUJzAD+1WU4ozCTwF0rgRnA79qsmTE2k8BXl8AM4F9dhjMKMwnctRKYAfyuzZoZYzMJfHUJzAD+1WU4ozCTwF0rgRnAv2zWtEMlbxd+9xm1+/u6HY0atp2RZ+B2duWE0G3C+o2pz3P1DM9/13cEjUi7tkmty0uX/sTnXn6C/MR1Gg/+9nrt0tM8YeFzpqWFz9hu5VSbuOMLAM331F/jZ+JMvI3zqa8W7t56zgD+pfKLbG8acLvwoRnp6bZem2btoRHH3BK+q1y7adwaf/htASaaOiXcwuvFb0/49TjtpqocLzVA852vLUx1vOURR/DWIBk1NgSKeLBo7PjxO74+OUlYO5A/CBpJuybR18N9u274ac5h3XHrHgXcSOk5vreBxYgPbkyvaUBtzYp46iHMU79Tn9PQ94ppBvAvk1O3AHOvCqAcYSV8qqI0L/FaXxqdqS4FN60WzvOs02/zEiBpL3t4Fz8tugBPi6YizMcITwE8gCaZXaQaEnnWoOEjcFnjmvqvPiLSJGTwoMk36fyozcgvyQIqPyMtQT8lPR4BN+xDMnyNNi4fuyLBIpzSPdKcPiNcNUZZMWU0pVUFn14yeBnCmEd5N4BnwyD968XP6sYTT36gI7KlCaDKpL22uO+V5wzgXyanKjDjwU8389OMuoQBNW7NPTVo4hFDaJSRV0vf66WN+i4WvFLHalFR/YUd5njlx4pR8GofPjHE52KDWNIQ9DU2FLmajKheFiymRnBqO4GM79DtB3EjS9fwFGFrvMaNn4gHLwLcC+saJgwBoqhMg5529UrvwaxORpP3VMbx6WkJ4sFPUZvGmh3EUwlEhITFm3xHDY7/BvB0Sb6CFB73PpOjCcXK4L33SMl1BGISWmIxKp+Qk9a8zM5FDwFNlappV1MmnSffiFF6XAFyjXqKqxpC0Frwnl6nXrBtAI8g1UOExG/U0DgERnifKHvYJbEGjka058favQzPY+KOOUCNRa1gAYXgqXT0azBr42o2cBZwyYOkgxd8+PQK3/jzT7/ay4EFhWZppgLqu3MFAT1EausjzdIM8v5gFQCfBE0/6SGcOwoMWI03YpW3DO8jv7KpKa9wm/hstvfmM+WbKapJz8TXUnEG8H3yNZVjjzJh2YQVQcJZyybPKmQcGzDCXxW0WmYQaTSfVZWDxhAECkIb1kHawCisNaF4sJmph3CtNAIfWAc9lZs7aUTgAE6843FINTcE3ZUM/uAnIsr4NPoul5ongAWxNsMHA6Fr/IKYD06C+Pk57DJQ8Bj+gg+tTY/x5lMuTYcEosYlkpa2KBCka/zSi4tnJKy+8ojyqDq3vGjyDH5rkBC5/uK9Q6Qag046741iGtk9Yqq5ldxW2USiqt5N5ISPWQ1eM3WqEimxqiuhcE2G4bW+CNQIE++YmycsU5mwEAv+YTfxK/riCpsENyioMA4FjR+UXngFFDGLgaAlUqQmcrhH3Nt+w31Yyg5+RkSWtNJdc7QM6ENTXWPuA96pORmDdgVZcNXLIifjG9ECgLgFBc8e/Qb5EqiSGWAQ+MEOMQejEbUFlXEnu9I3ij6CMnz4511uo6WCnSkM/3rINylOrjAHg9CJsPWpw+SuHgzVjDwzTyak7mmD+TJJnEYv0zoDeIjijj/KqcksBZneA6TNAavUnfw1QIV76lm1ntbgwiwJj7cDodk0VpsBh83MBCV+KABC4QGUYbyjZiSY/V++3ByFgggbAdYh9+ZOKdsMJu3wUedxbwAtAAfd/mAAAOfiqbk/t0CtPMc9KD1v/EYtbfx2+CN9xD8eBqhHw+2ys7NTht6at7fL9uZWGaBI3j1QlrH5FPjGjHkCfECOWbxGAQLCBbjJjhSLeP8D/BG5ZVAEUN7Vpj6x5wqZ4NCXFs+Qe3okQA3kux79Uem1jvc01xc93JPXDOBfItu6OhLBtaj6ELqhpcoSVyppmtUe/9sT29Tgqm9kB07S8FYpw7/KHcD2obprL9Akxg3ehrSxh1bLuAtsKuqySWW6xXNbu/58Gc8vlDm+/7ywcqysHDtb5uaXIQOYA8iCeb4M5uYBN19059njPcDdF+AUBNEMN37jlQd/+Or0cId7q4wB92hnOwE+HPLEfsT79iZgXytbN9fK9vpqGWHGovRxGxB+jgQMKDTmkNncQMwK7kJtj7nKw7hIRtzN0iZ+jBUoDy65yQso8yKdeBp24qhkvZRfPiNki6dRmQQwvS1MBLynfmYA/xLZpV7sqgCwsP9ihaI6hI40BfG5Sz9SsVQa6aTGZhBppimDZI2T9PQb/kMrKw1rcJ25t7fHNL9ReMEMbHbgZtibL8PBQikLy6W/vBLgnj96vCwdPV2OHH+gzC0cIiJqbQDcj9rbGhxwW2NTIIB4UMItuBu6fCYy8gkwx2OaBYAVRAfYbaaPrNnh2Jp9uL1RtjZWAfj1srl6vYw2bpQxIO9hD+IphdbLWPPOFoUanBMW7ss8USfIlURKzOhDngg7xgmwD7k0+eDYRG4Bae2dWaGgDJuZ0eRvi8j0BFl+YiyjUQyv8YNNPqFwT10zgH+J7FJPYl615rkK1HcOlWfAVgCEW31qrn6xCWXxKRijpMA8vXQJnUPvEsATN5y0ayPdY6pqzfR2yxYY26LG3gYaOwB7BLDnqamXjhwvh0/dVw6fOFNWjp8p/UNHAfux0l88AZAXIQ1SqMV9BojjHb5a+zcYr8w3xfcZbPrDHQjSDmZsTgj6ZhfvAH9kDb9eRoC5bK0BcGpyQL9940rZun6pbNy4WjbXrpVt7AR7jxbB4mAcIF+YqwCXvumPQoVmPtV7sEmsXlFA8iO3DA2YkrgNM2E9kmKXJTiNMLKqtV2CTA7PdnUKhGZ1Lz1nAP8SuWX2D9GIrHFRDCwEuEo1qQGa1qg53CqigMZLXNLQbM3fMFK9hi7qvqNiRmDC2acG0DbDdwQyt83wnbF13VxZPHysLB45UQY0wfvLR8sc73OHuFeOloWlo2V+aaUsLC5TYS/5lXcwnbV3QKACnMi4BHzjJJ+Vi2qvH2y0jMtU+MJzAmrdaZ5bs0cqcaNWpjrntrbPpnsZbvJ/swzXaboD7CG1+pBCYPPq+bJx9dOydeMyYF8rc+PtbL4jYGv0Sb++SkouJ+wgL9+1kB1BHpcewgEnnin2XeofzpGEqdcatAaMt3vrZ1cKm5BMTk1oVb+Q32wUveatcurW4H30t4+kegAw5aZmcYcgFSY3q7ZaGMMHdsNAOL1Lo3rVmtdCncfT5jiDYgDbJjjdXIBNLQ2obX6PqIVHc8vl2NkHy/H7HgLkp8vi0VNl4dip0l86Uno2w/FbKAgSBdbW3jTBtZO5SW3N64RperDyPbl8wX/YdRqsrdZuiAr/AnqbWnuTN1NCikyUF4VHNve10l+CfkzznM4571vl5sX3y41P3i7XL7xPDX+x9KjtB9gn0EdlHoHNI1/WyyFmeZF4RlDhHa9T9lPGCrqlaaTQpx6StcpjFLphc+//zAD+JfIw1EllSbWoNThv4VAJVoCHldiiOalyxY2XBnCVSV3rU0PHUzKAwLqPXmnZZCR9k/71hn1sSgjUu8xTSy+t0PQ+eX9ZOs5gGX3qBe/DJ0p/foWbPve8NTX9b/vSADpHCGRErfYG9JP6LTVdXrWLBS6TWjwsM5hY9RKkYSCETE8SnmBLwAFcQG4HIt1rYSJ9/xBADBJi1n+0baIvb61+texsXik7q5+WnRsXyuj6xbLuTY2+vU7/fcsm/HZZXuiVJZrvjsrbcmqDapHCZDC4lPlIW9jVfJNv3oP99JVsBrctfenQJdW83ivPTG1NQQgBzn2tCZ/oY1jNVrJN8rWqSbxXXekoiNLitXsLcKwNB5Yx8IOHCIsx5A2AfLroZAsCGzSdt/sLjIAvlfEcNfHC4TJHrbywcoK+9alyiJHwJWrsOd77i4dLD2D3egvc1NDcwiZBrMJGrgZj8iUshEQiF2sv+W1Mh3ctOl6scKu/cA5z2GDymeZdgJ3YtxAN4HrHv9b8xO42CgNH4ynWkAMDb1tXy3jjWhndvFLWV/PeWr0aI/E25+fHG2UwAuzbN+mzEI4RfEfkwTzTb5l6qSdnWPKfhQrGeNUPhnbJD1dOOqalxZJXx1da3CO/M4B/iYwKqAZAa2BzH40RG16pUChK2FVLzDGtA7pHjowRPmGX7jF+pDXNfGvsTZrhG/SXB9TMi6ceLIdOP1QOnXyQ6a0H6VszQLZ4lFaB01yLxMfUFqotsKNFIOXQVX5CaStHRBX4jZhVXcCmprcrwviShVFYd5wjYekcTt2frrepfKKD0fWGGZ/dOHVVTv4hhCH98z597X7PvjoDcjTNbc+Mx5vIhtqdEfitm9fKxuol+uqflK1rn9KMv1CGa1fxvloWCbsIuJfmWo0OXQpXu0ddkTB+F7Ntsb6+cYis9EMxE0/TxNCjHMfdvN1Lz2lK4LrlbyQoX1If0mnWB685q3wCOIInXnitTfBW+is+a0Odw5zVdvqvYI9BMkC9g/YJ6hgJ3+nFPPUytfPhB58si4B6/uiZMlg8wrSW92Fa3dbWh6DL3DbAVpVtgsdctTFG4RFMhllTXslszdoKLF2Sz+opHumna3NncxVD9ZQFxKS2xDYwXYnmaP2t9FTGHHWwWY9gmBPoRTPfQbkcmLOGHwn04QaDc9dpzjPttnWjjFYvlyGj8euCnn77aP1a9NkXGNxYmEc6lGcOUrqe3hV1wQP8xIYY84bbaf7gM0SIHf9ZAOxO3a2c3702M4B/ibyJ7J7UjOiBNRCWMUoejvygHOpo8+uKM6/4RcHsY28xaHYTwzr6vLHDkBE1cg/wHqG2Pv7A4+XM498piyfuZ1T8OLSobUc5QNbrM73lbQ1MxDYIXI0mwL0qvMIcBVFyIaNpx28McPErP7cD3MTzFzIYhxzYYsmAYVOjji7JlI09lAmAh+CN2rzntIRCdESeEXhXzfkuCF0Z5yKaGJhjcG60foW++oVy5dO3yyqDdBuXPyq9retlbrheDs05MMcyWmgK7gFD8fJnFrr+PvpEMDunG7R5QFvm8VVlqv978ZoB/EvmWsvuVAP0DItJMxBliCaywAtV8kl9FCPhrAVHsxx+cjHKlZvDsrqNf/rWp+5/rJx7/AWa5IyGH3+wLBw5G7V1oR8OGW4APLZ/zQCZt1bEYZO/52IVF6bsexF7A7d0JIbCR+bLaLjhJ8w85DoSoJUp0H+aI3TXn25cUfNFKk2p4AHg4ZI/2noZNP3me/BSaaQN8CZRxinQ0q/grAAX+LgFyCOA/XYXydBnB8w7G1fK9tr5sn3pvbJ6wfv9Mrd9oyzQX3dAzprcOMVvcE4cWoXklCMOMeDZIqjMzgBOX0iJKTQVPQdNeGk5G9LkPayaZb7fi79NOXxGmmsimiIEPlAWUyoIh4KaJqK19gZt83XsNqyVaXb3D58qh88+Uk4+8EQ5++DTZbDiFBe19mAFOQpm1K/Jj6dNckGZzUyBpNnVZ6rqfrKtdo1G8AqEoobUMrReTsMlQN0AninAxbSkP2tYCwF5iBD4zRj8zVv7aOQExcpVtYhQGUBf1cf0EWMV+DV9gTPoZ62OX4XJNYnFwsDRd2t5es8xOAegh2sXyvrlDwD4u2Xz/FtlfOPTMj+6ycIZmuKIs62CM/452ubW3mP7TDbjefaoyttBFcZ2K5dTfu9mk5Kr0p+KOoSXKSILw0f44mW2HxxxKQwFM6mxsVB3W78uPaTSa+8cttNdPMoW9xo/1tqr9LfPPPp0ue+J58t9T79Ylo49BKiPoljLYI7BM5vktQbJB4EpNByMsu/YD1Drx0KggTtV/7OUDkqmot4tjOARuip0+tCsP//SnG9pnvrTdmpHkHoZOi74ncZXzc0xo8q0ko42GKm16XbFWtKXu+k1Zmmsi2cEYuQHTv2e6/poH/UYlHOq7cbH5dIv/7Ksvv8KffSPqcV3yvKSsrJgyGb7AmtiBbkAH5NJPt1Y4066GEeAkcbiNPZ7w5T5WKXWEuFrLcBnAN8nH5UTlW+otOamBE1uYQdWBKF1navOXEa6ujEMcA8ZHV86dqaceOCxcoSBtJWzj5XlY/cxkMbo+PxRKhEHztj8AXAja2r+hJpFLUi28YxmMM8Rtc6ADSLu/koIEMCcm4TLRLT8zbf2q23z2DU39/bsunXN+7k3uyllmMXSO2vgNE/9abKIyGLRJz75yYE6pAjSo/0gq9Lizp407xYKuAvtkYNxdH4GfdazU2P3tq6V9Y9eLmsfvlyuv/8yoL8aU2vW5G5scWWcMftvOVKHKylcATus7hpl1+s9ds0A/iUyDF2I4398eqfCoWdhkds0PcjACmYboLmra41p2o3RPOvEAffx+8rJh54oDz75Qlk48RDz2KcJzMKUmO9eQrHRPHqFAXCULrBBTBEXLq02d3zIjR1u0ZwD4N645q1njXGlIQHUtanOt320GLseJkS7lnc0ZwiBHQKKZ6apEwxP8hcVvTATtLxk4SnATbdthErD/jLBw47xhwbwHYQeg2kCmKm2AX3v0fV3ysaF18vVd39W1hmA22Ywbr63XZYGIxbLsB4AGY5YfOAoeh5ewWadbXfGaUdNngLvMHvvGGcA/xJ5pYrFHHcLi7bGGnQcbF6iF/S1R9Ta9Lep6q9vjMvF69vl6Jlz5fRDT5WzjI4fuf9xBtIeoHXNlNeAJjmAjn46g0lzrEAbsAKtZ01OAeHBDDnwhDcU3672ROcCKU3Z5aMyNTH4bjWVtaMg0uyvV3vmm78VQNUigagdYW71XH21R9JuLLTnlGYDefOfLvmW4FZ+MZ5AOpMartrxyPihatUa3RTpkTo71RYI+Gp9awcJtXFfXW/nEotlPi7bV98tV959hfuXZczimSWWE504xA46WxWAPOgaCf3vbZpdgn4e1A8+O+HBx934MwP4F8wVlTbvrEtUvFBAlDDBzUAawF6nL3eTue11+tFbPeasF4+X0498q5x97HmA/iSLVU6zQu1QGTCfPXADCErkSPEO87xzNLXdvhlTY6jfmNFzMyoAgyKHtle+jT8ORoimryoevmSq+vDRBXiaE+66df3tfq8xppdIqFFXw+RpmHY1twwypaype3djNUwrfLBHjq0QSk5NX9bcSR06+EE4PLgNjXsLY89Ec7pYEFiLszV15xpNqAtl7eK7Ze3Td8rW+ffK+Pr50t+8QW1OC2jAJlsKBQsG16k3LlwQw+u+qSXqL33Jd7umUms2B/c0HRPuW6Qh8nxJeSkz03mPDLJV1idSmhTAJKAJUz/pb+INRdlrk5mbypP+00fCSHMEUeG4rYG3KPXXAfYq4zwOom2URZrkDwSwzzz+3XL8oWepIY4zZTZfNhhKX2CfduzyigEdmoXM7UYNLacCO8DtCDnvWhGnzVhv02LanLtVpRkC5pm88MKlb68K8Ahv878BRvfmJ1Vh+m44Y9h7SWRqL7j2uxIie10yvhZj0jd8A3jSEuS2WOTSZFuDNggnRShYi6fwkVHybmsnl+laJ7MqjgLTQnPQ42QZmur94Sp9JrapMme+8d5rZfWDN8vVD37NaMd6WZrfKYvz0GVhzA6FwhyLY5wzZwNA3SW4WzK+7Up6RybBI6QyNXtkgKXcmlvNg8Da1++eoF/mNSVTqTfB+1p1Xba19r4nAB6KVZmOdMg4t1emKR0jUWFUKXCrymJKE74tFImvmSeoDKfqeWkWac5Dew/xt0ntfX1zXK5t9cv6eKmceeTZcuqR58rJR59nIO1+VqmdAh/LBOMwhqFz15yiwh0XipqK22riptYAFCa7Bc0E4ASUm3Ql9Q4yqfzaCYwoGHAN3uU1+Y5jlEx3eDQlhNVTJk3bakzq+dbqVHxXmYS/TpgIyE8b6c/YnH82bI1nEqjxpUWjncRCMWs6YuAL6wSUCZGOaaRZ7TNkQ8FFlyb4DI/W4c6dM4VGDe2KuJ5mDpgYb6wxun6pbF36oGx89GZZvfRO2WS0fXFuq8wv0EVaQtLGYT+flphF4pxdAPM6oqf5D7v2DIJF7JR1umH2vd4E5eLFy6QRbojjkKcidBdi7EvimSkPnwf2E3JslCsb8Rr6njxo7X1PATzm4mWaWwF6RZoQZEtQWJMxoQ84hgsZG4LWsoYzr7U1Axv0Qseg6Wirq6F2uNeptdesubfZo71wgl1eD5Rzz7xI0/y5snL/E/S3V2CC6S8OZMjdXI6Sq9jZ38RQ46yKGxZwZbM8uEsVqGyF37RJPpw2ikMLKuOCO6aQgmyGioEr3G8PcP1VGbSI1MSQSvIRxg4/wYM/E6EEa7zWQgO/Ajyb0pVoCj2CKNd0s8WSZqhVevalg3jmU625MxenAE95uiAo/U4LAEAOwAW7Cux+2zEbUzxUYrR6sQwvvV+uffLLcuP8myx5vUitvVYWl5Aj8Xho5IAywVyag183AdkN8+qjVJ0yK/i20Av+eYakTFjNiwgka4Rj0eIU4FgNUNavqxb/RgNcvRDUUUIiyNsBXCFYgyv/VJyqZDV/zDTrizwqMLMsR3ixDNVxtHxcPr26xYAaZgbN7n/iu+XhZ37EFBiDacce4CCGE7S4E9xZJ6i2/qkKewGesbXMyWOFElyhvxktYesFf9ubm4z8cgrKoueq0aSvjtKIzS1YOBiVzVnTms359GdCvTLeeJpo7qjVW9VkjEEXfqNlAE8S8JaE/inowszIdo+xBEeitZ8spTVcXD4TEDmw5jgDXNEC0l76fQq2aIVgE0tVHQjTF9HG3Dg1MqnDj7Jxf3ttCfGWVavpwU8A3DlvBij9A1Cj9ZvsY2Hr6fb1snP17bJx6Y1ykam0zbWPiX21LNNEd+XbnDU4ZMyhwCtst3l54zA5isq1DhYuwW8DuA7e7TLJsLqDQlqDQzJ0cmA47+bvAJ9Nh4JkY8WIAgzBcmSXTvdEDW5CQqmrtHwoS69MUyqV75FePLSmaeiq/mpYPbQ8UvlUlwhT7dug2jpKuYoiX1lHSZdOlDPnni6nH36hnHjouTJ/mOWmi8eovRkpZ147wB0KWXMYupm100gzU/KXQIRpfuW6XvDQQmjjYYcjDjnMjRTpJ0GYRVbwTcJy95gUK8CtESOhPCOxPOsKN8ETQKEf6yksWQBIKSNXmQNtrrSLhqxOcgW/Lr5hoNA5eunm8cu4NYAHGUFjASRooQEdOVPW3lgEeGOaSj7xm6nRSQLy6lMJ2l6u6wawibREjlmDc/gEZs+qCyAJJk/OYNNKGd7k6Cj3nb9fVj+mJr/wZrlx5X12pG2VJfrjy/DLxrRYwurUp7HNAXy5E/FNV3bIf23blFrFT/qLULBkGALGAqkgoAUikX71mTYH95sc18iCAWj7Whk0u7T2vmcADq9dkU4yQftUwImHSGwAnBAComWYDqHvpDyeBtEQl25OhzGoxn11Y1Qub7LGnIUqx+5/qnzrxX9Ulk89Vvor90ezvOccNw09shKy3kg1IhK47aqZAB/5pyrr7rO5Nb88YaWF1ocW9hvtgzs3Ln99pnhi+SpxmpEOAurT1koekiDI8RttT0HcAE3/lRVhhIAOQIjTWZjIZ+smnrnxF+CBWgDZ01cXA6Q5yEVa6Ya4N13wmgYBHEmugMQS2gAc99jY4bQgd587jlzULUIyTWXzHnNLr/E7eKblNL/ww/oB/XlHQjsAd9DNrs440GVxJE1osI59PLrOvCa70S6/Xa599Mvy6bsv8X6Npa3r5Qg1uXv2bLILYuU6x+qY4MXkR2SKRLDfHqZK4dar5WwlcquHr2xTczzpNCZCSPlyzwI8M5h0kZi2cSJy3nRF2sgMnqY1hYDZ2kUL7XALr+p8fQ+fYQ+4qZlsfaLy5bLz3FuD8uAzP2bZ6fdYxPJsmT90hlbjMRQ4enChuEm8xeGzRtaexlO5yay3Zkz4Yth1GbJ7t91WSUqOhYdUMOMx0uAzakK3ubDPWuAKYPulcZMajk7y+KTxDju0djZ4XWchDU/6rG7RdJQ/QC5tFZo5+7n5xTihdTC3SPeAAyd4xqkyi4w5ON3nSa0cwxyXhYjwiCb8AlRMI+91cU9sgaVwGFNw2CWSeWtF8yOSMjVkvioELnzF3YAXCc4A/MIzBVbmaUptFEC3r82sBSPsvZEHQV4sW1feKzfPv1GuffzrsnHlw7LAgRKLrIpblE1lZ4EFoYiNAsPRfq9oOYXJn6pRIffd+afOTXjEZ2WftEwCH6jhGwnwqCRUiCq0mNdU2PU9gM1LA7gZEn4r0Awa8MAQ+qTIteQlmpSYt1HUDUC+Dj5Wy6Fyk0G1p3/4x2zxfJGVaZxeOs95aBxsOGaqzOkuPyqQl0QxBS/8RKGSjLWCJqIKDwnwGvCWh6EypKypwA6yka5oYlM72awWwKYmhEINFMC1/8lJKTs0T+PgQ/ZXcwzScBMAb9Fs9Qhj910D7JHABvAjw2FngdBG6SNyalxBPccRUX4swZvE0x1mOyt2g4WlMre4hJFjpJBBT1noj6OcexYALvJhbIKGMGIhLPeYmt+BSEEuHExjNi6ywDKbbAhFYVgFQKr5S78mVRlOLvrgtkYsmJpsXTxEQgjhYJoj7J4ig1zWL5XhjY/Ktfdprn/8Bie+flwGw7WyTEfcY5xjrpxFMNHUF+AwJinXssdMjBHAQMRjFLxODtXgxeZ43FkuJIv64/46rm8cwEOPQ6qIS6FxN4C7flyJ6yf6PdXc/LUaVdlH1zG8Z0GAMbRMgNsX2+R2IcvlNaZgjnPaykPfKo9+74/K0Qe/RbPd5iaKzemlqDNxQcOSn8ijmd9KDXib9JM7GayfqMFDwTvxBxP8VL9SnF5y3YYBc1rIPqbHFVMtE4ZazAGnDQ5JWGOK6BpLNpkP3uFAw421tbJ5c7VsMvAkwC0EVHzv+AoJ/Nhgbr3jUBoiTzlRQ9n0jVtf3Jj9KIur+ZZWVsqhlcPl8NFjzPdzNvsC8/7LHD116HgZsIvOk2nKXBaGbHxHHocoRDn2eUxLgNZBNPnh3ME3T7uxPozlpDSTbXYDL1wVSf41pDTZJHDkyoa/hZNz49BCthYIFoie3e7e8jlq6h419njnRtlmVP3mx6+VT9/5GWfDnafYobm+NGB5K+n2ZI6oyaFqXpIf0R1CsaK+5t34bSTEVd+1VBdi0C5aEJVLC6vmtwY5qEfklQx61ejiNYCS8WrtfU/0wT8T4JEQBI0C6remMzJJgLfEWuabd77HpZnSOpvm4wKuyw363RcxnHz8e+WR7/1eOf7wD1h++ggj6jRHVSAGjaIpR1hXRCVBCfnCFbUtzz0ZnM5mijV4shaGxs2e/EouA26kxyY0NZLN0jjmCIWNxR3X4lijTY432mBr78aNT6ikb4Acam8+M+Qg3ZibH5SQuWDiiCEvnnGgYQij8p3qECwJnTzwImWXALeATOXvUWs71z+3QI1eD4EccHbcgP3v84dPcoDkibLAEVTzHGoxYItsz22yLN8tHuvMIqHcLmvRwk3tH0nnJzjxJSxSOoJHiwqzAE1yrE1+DiI+xEDLpg8vsVpQPh2zIG/n3CLqya4c1Txav1B2rr9frn/wi7IK2G+wt3xlbhiHR3DWIzKCMiKPisD3WG1kbBmjfIVJlqpt0zenxRzJn+jBnvzPEAfzOwO4uPAyIyrAtaKsN/+mykKJPaRGcj+3Bfgq8xxrLENdHS2Wc8//Tnn2N/6kDI48Qo10ClVyOozANbSKN8ed69XJ9qoDCXBe9maw7hKAn+kVlvUVM9qSmYeZfmAAmlpoxKEHcQACA0QegDCmGT6+eRllvVh2rpwv64B7nc0WG9TegjvPPwNPROUcuk83XSTA4Vk2orYyGuOqKmPhxF80P/HTnimzfLePbi1uoZiAR64qtoNpNN/nAfkiNfkih0YuUpvPW6MD+v4yN0t7++6HpyVkwRAfaYhuDjUubDgumFNv0OPyNwtrmOct8ONTx8gHAEyuDmmd+EmlObsJ0IuBvkxWDuYB/vjwQg+5bTPwdulX5coHr5ZP3n6pzDOltkQzfoXyew45eDBEOx/flliO9UCsXcma0Qd/WstjfCRjBvAmpS/2DBAZpMkZIYcseQbolHAVssZQigATYVBIm3zeApxeW9z2/1TSLVao3eR2Z9iONdCJB9k48u1y8tx3yrEHnueM8sPcrFKj9o6+sLoG+Kx35ty7bTzyFYzw5BJAwYTPuKofPVpLZIDGKG/aNc4oaexjW2vvUOts+XkgvhSydjnOJdvB7NlkhWY53wxi3TXbJzn5pAewHSyzr278cUfc1nT57tCA7O9iI/xkTZ1ywzkCGCgc40cOYwAOO+UmII0kKj0CBKhoxjsAN7a/XgHf5wz3Ps34gSfFsn12ma7PPOMZPb7E4iIhpxrbOXRD57SVqXQk7208mKRvfBZ7UZvraD6ErByrwKUyLp+ZUuiEOev/sQc+srR1vMVXV656MgyDbp+8RiH5fhkg50U0ZCk608SBsNQZow8Wggv5qfKcvKeH6L9rDLlg8JKNr+GqxXFS3s1c2CmGxvc90kRvqZhKKxJA/kWe1izogfoJuPGqH4E8JtPss9v0CpCT6R7WsMEhDes3AfmYDw0wgLZy7qly/NyzLEX9Vlk++jDLG88AO/qOzuUSxlVODrr4Z1+PIwVS8UKi1n01T2WCF3Ur1aHybe6jiLYDY/CGZ3DkKHaMClPKOKqNso3W+ewPTW/vbU4cHd7khFHughuIL30Gy/wUUHzsD5qTVWwywRV6ncZ4URYT/jAHK1p66aC5vVe7Lg39R3hkEP1d01zD6Rapqk/THAWAo+oA3g8e8vG0Umi291lDMBf3GT7ocJZTo0/zIYcjDLhzjLSTV4CcAMg6gd4tQKUb8qQAML7Mh7SVZSMN0QfjMpdJCsBD1kJz7Imu9MmHm5dYwv5xWWfL6QbN9Y3z75Z5BimX2WkQG9kIrr5kPEnI2AP/vErduOJqT16CP54Re7KQfg7w9xsH8CYbBdwulUopJojSPkr5MKaDgzjbfBPIo3rs+vrZoLgJtMZBDTdujsr1VeZAmf46et9j5bHf+INyhimxniewFEaD2XwYEQhq71TjmokoIAAfMspnIWKNbn5aS9ZSJpqbslNZDZNzxNmEVnUANv3DMTV16THKzdnhYw4VHHIU0Sa7o65+/Fa59ul7ML5R5hhYW2DkeIm0LDpLZRJJT4z48gzVR/GNPtHFM3gRMHqOF11hiLTAVCpKWgXPIbvqFesIUu1i7ruSyRqSaEiLzt6ttpNatBRanOnIBN6gbDJtdmMbENNUXzp+P4djPF2O3v9kGVCz95aOEXApzrhzNHx+kZrfwgHJxjx3tJslJhMs6eHhIKAr68LOeHEOgJu4mlfBnUnHUVvfrZspQenucHLrJp9UuvRrToj5SRlfebcssrR1gcEVuzSxxoBA0WpQxgRz3CVkb/pSiPHM7gNG7CO6+I0ID/wnU2IsXJmoFEEtcaK+qU73RA0eqajpaYnqvirLlk6VI7JQ5TNz/DFzSbwLWLZ494ilGxx7urrOzrCtRRTtmfLocz8qx5/8TjnEMtTSA9zU6mXkiC+e6x2CDSFaQ7lE1FtOUEMeaZJDw6jyoUqJt1AInViZBlAHLjpRyWw2UmuM1+lTM7J7nZrE00NHq5wLTo3tCPmAmoeixLZEKFcCiCiIkJgkGr8RrcbpKy+VKx+Yq5Mv8G6K0ibTWVshkyARSI/hP7xqVd9Nny6hUDWMHqMZi0OE4keR2alxpn6d2YhN1u5v91fon1OLH+Ujipw4u3zygbJ08j6m4miy+501V7AB+L79dTecxHRJ5q3pcK7a/fvszeU1+ZwAXB6yIyZ3eQfAMz+06dWanDWttNo/Kjc/fJX7pbL5ySs004dlAf+O7OvXsQFlZToGPHPakjiDND/+4yjIJ7xgDMH4POAr8yzTHDxIP+KWoYw2WNOazLn7z2RDeMl68N9NS8eChOHJ0tbBH5dTRqaQSUJtiEJsUtU6FcYalnJtbchGEuZ7F89yCsv3yzMv/m6ZO/kQX+o8TUahVE6LMeCWTWkCNAHyJIuhTS1il8A/FMwWYFV3pcpbq+9tOcimtatKwiIMtjrOcTsSPt7hA33bfNmDBRgbHCZ4jVrbj/QNqNUXgIRngHs8sN/ZdgTcNFloqdOxSo+qRumY9lh5lVEbYV6irwJAQOLVf670aDjTGF74oVLcdREik2PYGjIiizdSJEkDpwAyLDK2VJNXg8S8AX4E+TZjGR6YsbrlECIj6pwJf/TUA2XlDNOS9z3MOqLTTKMfhyZz7Ix/9AdHoOVcujW1lJQ9ZJ0ag+aYGjzi1wX7xq+xJci1zFubvPWX/fee2023GNe48UG59tZPy6XX/z0rIDbLEoXwPFW1shXgLc2OtO8GeLqlHIjH0pcrVSDNYXGAP/KUKeWh0aslHGPw4lNrXu56gEeCSICMR14F4/x4mYqqXGZ8A7gDQV7OZW6xomuTpjo9MADumeXjcmWNdcz9I+XBx75X7n/qh+V+Vqz1WF/udI59QTruABzCEjVelbjdqgfMCHCjNk9VBfvXKl7WhrxiH8cOYYimm8oBF30+4cN4PeBmbvb6J2X1w9fLdYC9xrTNIrX5AlNhNsnzkz02FwOa0E5wB3BQvh5p6zE0bldkGEtT05+8EjV35VlBeEVNpEFeveEd5qOgyABaRQFiYaEXL5MttKSnuTlUEpKNQSnTGEGaA0+LH3dtIZp0Y9OMNbn5sEU7e5vauc/CmR7fZuvxGeSjHDO9Qndp8eSj2J8kv4/ADwtn2Kbb96hpKRohimB3fcTAiHFWVk0xPrjxJIh1CXf9x1vayqkhHZx07XpvfL1cfes/lksv/a9leedKWWQhjKPqET6eGOsl/dCHdM7Im2LiqHVGJjcHf2VKKu2IjDh8lQcu9a6xds8BXM5bWmoSwyIShVsDeGwi4F2lS4CzrpzE32SK5zrrzLdYfLHEOeVPfvt3y6lzL5SVU4+zSsu5Wkd1UWcI2ufyUrEjEqu30PBUZPvevprhLiulU8fNgpSsaMJREkCeXy7c+66u8iQS1klvXPuYr26+W2588DpHD31Ci/0K87LjWEY50C+c5FZRghK8qatpjVKlglOA2xevsaTy4SXfk/sggN30qXD0w58euY0jbhTaZ7hjr7sjDgFsChJM4T/6x1rjwTv6oUkg/OpP2dhntVCKFgaAHMG3VGzZeL4dEouafYuVbsvW5hw3feSBZ2m+n2Og837YsNDlA4zkmZxYjElBOUjL9+AXV6+MlxgqQLUItvjNp+8ZyunCaFWVmxwW8bflyhv/d+lfeasMbl6MTyZZUGToIB3hiRKSE6LpbKQN5C1EZFSGO8jfTIURcrWEt/i16rB2jwA8kgLjLTWpONqGoLHXRaWxdWjW5QGJeW65+7rte2+S8msMrl28sc2XRs6VMxy19NQP/rgcPv4oysc5akzn+K1tm5KRVypIZJLSA7WBhIiUH5xwDisMLirhh3duJ5xTC4KvBDi/NM971Azjm/Svb3xYLr//Wrn+0a/LOocULDPIdpRu/wLAzk0jlh4Zl4NZDvgMjQy6MT8bii0PMGGi9Vrj1Kx1RB4GSRE2/9OMu045D26I9J4mfvVrXMQp2SjEaAUNN6l/sYhmqi0Ib96VuVCIwTgIy1cr55x9wCHscrAOuh59SlgLhfwazIhmOwWkU5V81unEQ09zxt2zZfnss9BnoUyfaTX67S57xRC0zPVxEG+8QyyuCt4QQLPRTwrFX7tt9uP9/ptN+wFz4RuXXitrH/91ufnW3zDg9k4Utrai3EOeXbWMJ2MhDQ1JNc5w1ZHbOFJ3wvFAfzIdNa0REeQj3nxpbPl2bwFcMdV0BQCrWWuvUDCfGAR4fpSApjgK4eJOV6ldo0V2bbNXnnz+x+URB9Ye/g4rrs6gMDQDAbe7n1okWQMQiW3BUHHN6Rzg0IiV6u1qKqe8+rGcTgc8AtYolPTEoM6YpqA1t+uhL7/DPuUrH9OkuFSWGGhbZNmpGyAG1hiCwSa3yKL6M12o/gTgGaP0uUmnmyIEnDMEKq4s+uNTL3H5DD5qMIjG6LSOoRHTWlBvyrkpdbowwEc8HlhIgNQnw3LpPS4iM74cZLMJbBIsJHTFIf6Tv+g/Yx+1Ph4svHa4OX+FvdVMmdFdOsTuvWPU5Es8Fw4/SKFwDPq4xapCqAPu/DBExB4/JrNdxBycatfslRCxknYG6QQu+a2/vp9KWvuAltTr5fxL/weDba+Voxz5BDfkifsBSLN5Wq/JjA1WLf0hp/YScTffB/v8ZgNcWSlEBTsRZgpQ8QtuB6EC3DRdPSzRRZ4baJJrzDeY6WTItjz/w99j5PzHzMs+ALCZo3VKjGkZ29dJNpU4IguA22zPeOsjlRnPZnx8UwsY9l2UHB6BpBtDbOcLVEA84tD+bZZKXn7npfLp63/PwQOrrKLaLEeplGJDpS0AwrbmrOGy6QsAMAcooC5P+snmZQJcWThLYLNXf7Ign3KT4wdujnHQkEGphB40AMjEnGGkrgCiWHEmQCDEVlULL7dVGrdpAxzcMehEkCwC4Um+uPM9qO3OJ6PhttFhYRT8CVQLDmr1TfrlG4jtJkekDBhlP3TqkXL03LcYhHuc6cz7iIg5c/OQ/nhuRbWdAMHOZbrTTmlmH9148jJiR2OwwRibX6gAetj1dy4zQPNR+eRn/0tZe/8XZWF4nfbCJjezGOSx2RgFN/EZB8kMGuI+nMI2YzHROn8d1zcO4AophMWPyqE0fdfsa1xhgR35JsA36WsLcsG9tkXNTb/74uqwLJ84V87xxZGHqMFPPvwc2UyznDXSbojgJ0jV7COkRJuqJsClHxmLi7WPmS7AcxUZALe9JwDoi49ZPtmzRlcHHVBjYcWN93/GWujXqMXfKocpDJadkrHpDoh69m8hHvP27GWMgS771yiLmz3iCSnjt2ZMznAnnPvYUVFqQW84RzjEjIzw57rx+fmyGIdBHuKMMk59jXXbDlqZrhhu0nMSt8CSf5R+SNcjbgajNlg1d5PP+QoQLIPnefy6jnuBloZmp5GUW6QD6jJrIRGXsrJJHULTSbdU18hJ7O3ObMOP586vCy82qxzjWOqjzJkfuf+ZMrfMwhhqcpbGQcdvp0/nwaGY8SQHmOVkCnCix4uFllphwci32kkzUQVLA7aX9lnKeuPN/1BuvPt35fonbzLYthrr1ect3EifKmIs3rEpxbyAmnmR9CsP5gF2X8eVEovYukmGgYwxspGIfbsnmuhNSCq2TEcCqqBDqlhG2tQjFMZ+Xpxh7hPP1txX15ke46jj04++UJ754R/EAoslvss98jw1v+ppjYBimVlxxeEIEmzZZ78Pt6qrjQ+9uzzUb2Cj8bSocbEmFgSAxMZ1DxCP1li8cumtcuWtn9DXezcOCDzEwQOLFABzFAjWhlErGrlpQ9lrfpHmBCvwxzH5izXbvhGdi3kckd4AtCPWg/fYtjnPdk63dbo+fMCiEe/5JXZ8aXZjiNs57Y6EMAOSSVsh2+qA7zhogq5HniyzybJe+qkAfMRzyDLZ4YbLPl0q60KcbcDtDIFjCAmGGKGHkgVQyil59yVMxNVsjNZLG0HuSPsGvK1TivY51HKRefJjDz1Tlk8zwn78YQDOGvcBQCf/QmBBSSLeUm1pSoA32yxwADhePJFmk4JKoPpZozm6UX3GSLYuvMLA5y/KhTf+tgw2LjJtRhcqpispLswbwlo4WTB4GVtoSYu+Wvr6dVzfWIArWYVmzTmiRK26iZJrgZCp7SIDeW5xWKF7uxlTK+f5QMHVjQEt84fYRPJb5bnf/nPwfCKmxEZsUHCdeQy3sHClH81WM9H+s03mzL48vABzzbUWtxYUKTSNVUsBTgiWkPaY5ooTP+39ozjb5xlM+/jVcuXtv2LJ6QWUaTvmWWOsCZTa1I1aTwWiYBrS6nA3U98BO9ImALBGMXmnGolFGDBhYWZtx8Ra2WBOucdGj4UjJ8rKkeNlmXveLZzLrMxjC2ePbZ09wG1hZqcga+89KmiJESULRG2JODtAgWWt54aNMXvMd1iAs8W3u9c5g3xz1SWfl1mQwy62LVbkkfY5CggXijiPLLsxwg8ygmfyJLaIRjkwDgAAMfxJREFUwreyyhaQciVe/+NBPuPfbfexKIktvDvwfvQBmuuPPF+OPPxtCq5z1OSnSQs1eTSRKg2JYMyfBvKwSOuIwIKXC1lvbrNRhVrdFg6fqWDbJ2Mlmx9xzvpr5ZOX/0MZsU59YfMyKwhd/OI4RAaNXDfKfKVwy1rcvIqr41ZtDuxh3DWRUwZMYuQbVjXu8MXLXT8PPpEMzMq0CZgAXJuWInSxAXybWuMmILkOwq9sMshGP/vcMz+IOe9TT/4IBXHOe4W+LSW8a83J7YE1OLSUleAGtgjNHKV8Bvy6hAyNH1v7kPFHYaCSyB2VMn48aIClp+5D5hB+15VfYefSzY9eZYTvLWo7FrHYlIdYqCDGiMWIoTFFM14AwWSku4JbnnacQya9Huk8YC/24OjJssAqvMHRs+zKPBa7ugbMCvTn6H6wMsxloH5tJXdwsVyUAsE0E4Mx1itTFRtWSF1PgHvZrNXsHus4GYb18izE2WEn1miDlWBsgBneOE+r5CJbVlmRR80+4ihjN4LQscjmL1GBd+zqTVQRewV2RXbwIj8kCw/ImxLQmnyTQniTtCydfbQc5XSdlftfLAtHnyA9J/FogSU1A7UbI2nLy6fuXMYHkD0eyrGF8GJBY9XsWIPN9y0+VXztHb599gprFH5ZNj59qxzqMwhKlyqa6SoBJD0q2WdQh0fTFophPFj6+nVc30yAT6SFQiLYwLRPJBhyRWEcFbZGcxXbNptJXG9+9eZOWeuzIorm+HM/+n2a6N8pC0yL+Xkhl0TG1FOduBbcCXDpAvA42K8OvHXAb6YZJ+qAH/3mcJHKbO3V86sbY1ep3WCR1CcoCCvU3n+dM7vfLUvDy/RZGbSx6xvKhi5UJVFRopqGon1sCwAjylV5uGFnYUQ9QguF/iOnpAxpai+dvo8ltufKsn1UN28setgCoOZMNc9Ry9raveyYvWmaC+4EeKbFqFM7s6CyNdKFfmUEGVPoRdfDLghLbfmsr+vnx8wGbFGbr7OFdcvzyanVt9cpALbZGEMLxtV49tFdPOJ6bocmAuDG6tgDzyjMcHcMJVbrAfA5jlyxHeUg6XXLW7afLp5+pJx48ndY+fYduhwPQYhWCS2S5FeZWVDxVH5JmSeFuK9hn+D2o4aeyuMONv3F6ji7V8NLtEg8tPE9Fr/8vFz99c/LIgWaMx1LDDgoG/Pc/Jf8wJYWUdqri8JYavAe0RnlAV+p9aEtkZwgHwLMGAMbWPp27/TB5ZYcyiZqcB4JMLGW9ja6XFnmCrZtmnRbDMWu8pURB9dGRx4ohx58tnzrt/+EdedPAW5HzW2aM3ZtyU0G96khGrhVEIesEuTWDg7kWMPzG1JL4RmvAPctm5qU/p4FNmbX1/AKin+xXH/3tXLhJfpym9fLPKPmC/3NaAomBaIGtB74F8WEhRODgyq+djE6T5pjeyYK5Oo5VBLO5rmpnQ9Ra7Np4+jDT5RDrAAbrLBpg11x2S9FaUNxfUrRW0U2vdbeVUGw2X3d3iWAA4/Ju832bKV4CAUdcbKHFos1O4t2ti59WK5xPvnaVb4fxmkzi3X55wKyHUiDOz4CCLUdvzSCAOcXWHEfHxrEvea1U3N24clSKFCb0xLZXjhaTjz7j8uRcz+g28U8uYNuLnv1j3CxmhD4EQnJNZ3I130D/FlwMFyOHXmGkQYsYZSLNxahSdfwT/4xqn7tjb8rV179KWn6lMHQ9XL8KLpA7e/Ao+sr7HYsergb0xd+onjksTfk6SDyFHJfw2U65DwujV73PMBrGiIxkUBNJJWExaAMCbUvuoWAt2iab9N5c0PJJdacn3jsu+UsS1EfeuG3ygpf/nQTg2eFxSGAgqACIDNcuiqHTXTL6GzOqiS6qwZeylU9tSQfUzu5Q4yGJMrCXPeQw/c3PuGrlyw/ff+Nsvr260y5uATVb5TJraG54T0ATsdOvbOvGgtBcFNxdI/SGP4svLbolA7hnZUgAPscXzHlZlxh/sTZMs9+a8cV4jvk0b8msGDOSPKpOey03+/S/faXFaP8BWZIb9bkgoVxBqqvHjWcu+NGGxwbRW2+scrAIqv1tq58ULaufoTdxXKYlXpK1NMt5cLbtMeIuu+AI7IDc4BVIZt+eKe8Lmssbd3g0IjjT/1WOfrojxhZ/x4NEtauM83pQFcS03cFOPQEHMVJgDtAHmMrxm2LjZaN32wPTsxL8rzHTEG5QfzXysYHnONGDX71vV8xrH+pnDiMHqAb0ZJBEJFNRBHjP/A6AuhG6RJpOP9arm8mwCOf+AlUKboqPqycI7aE9/th64B7kwUtLiy74cmoTI09/oM/KI9///fL4fuf5rAB1jdHU5WauQ6uWWehO2Q2GQbdbIIJbppy+FU5nEoKhSQeoozYHfiOdpnqh3KjgigF/c8tlPoaX72kebfFds/xNZY9MngzT8nvQhgVQCKCV/NAjYZugJwflV3SdLPpRqDwnF7KgUtM/aGMHOM8f+Q+RpSfo2n+GJ9Euz8OpHCJbY8Bp16MKrdiCCKdyxouufe539Xc93GDP9Nrt5XZpUkaTL8tHdsWbn8lJ1B+D1awoGOkfY1jki6+Uy69/yobad4sR+bcYoK8GL329JQoNMk/l9tusZJtfp6WErWfwLHpbo3Yn6dmR1Br5O8qYFwX4E/+Zjn22I/KsQe/T6ulARy+4NMaNnMUhiNJAtwOFDQxtfFvAT7whFxr98gM/VM79+C/t0aLjS4GJ7JusjDpo1f+hjVKH5RjfCHFTxhb5MznsaycUusCJfIRGtFEJ85ZE30fHbqjlUITDVnc59NX7Mx8F3k4qLYOuNc5oWWdpvn6EFCwKOLp3/nT8sQP/xAMcDKqn/Z1ekjgCnCA2xqlAiDL3VQCB9ry21gOsAlvgnWZRB9CuamZi0rBBhK/oLF18Y2y9snr5dI7r/Id64tsXqD2ViGoAvtR0+EVkISyoRhWhlFzmT7Tg50LVmj42iag/8nREpxrdoTWx/LZJ8riqUcZROPwBE959eMLSyzhnGeEnB1Y2Z2YAjxBjfXkMgW7UjFxSfvbuMGPoifBcUX3wRfSEyBXBswMOGPgM2cQHHn3LLSrjEq/wdz/axxf/BZb36/Gd7wXQbGDkoLcgtuxhiqCeNpa8EgtByx26CszGUcNvkANziah7/xhOfHoDznb8VFkuQInHBlFuuxzRgvJ5kZlVuyqJxENv/6ZymkNTq7rGGlh2qxnl4ODH9wQxIzH9uX3y0c//wtmQd4sy+MbdLPcaUaMntbItc15X35IQS0xEmlXo6YDv+S/xtKSmK9RupnWtA5fvNw7o+gwXtNAAjOZJiKmU1CO+LQvAF+j5r7O3PeYvtph1pw/9uM/Lg++8DsEtn9al6MGwJkYUQ/IDY8JMmMic6QN6hxFz2mzqLtxTFdDhIzVCpqkjpYXvn9VRvTd6Hevvv8y86g07ai9B0wdragMKNycAKd2UaPtGbQDBQS48cc0EnEEuMkYVWzT+XkOMVyiSX78vqdy2SafTbKmdiTclsWY+W6X2fYntXcrjDr8BtP+TFM5sZoY7uCmoL18ku4YIAxA2H+mqALU7YMKVGPEomBJq+ml9bJ17YOycfHNcvGtvy2b1IQDxiNWQPeyLRSb69AMrqXdouEpFdcybCEwF70Uxh0GRzlW69l/QovsBdLuhx9TFjmGIsBJh3kTlPj1lTtrb+3Tj7+RvziGd1shtMSGFux+vZQcoG/BYNsn5cKrPyk3ydPC8csLfiGFr5YOFlLO7uRzXCHP6IO8l3Gm6cB/U0JE4NUi8fVeBrgZoFIJgsCZAuTdUp56I/rfGyBjPfrerFpj7vsQ/dOnv/sb5dTTPy6HH3oe/9ZydYEHCqNKOZ0muAac01NFpthwE+DZ9AqFwTWOEa6+Ys4aRY4DEGmK9uY50I/TQUZX3y0X3/xZufbBr+I71dbcyyjCnB8RtOloO9cqiztXQlHCRoJQlgA389rEsc5W1U1GyEfU3Pc/8Z3YXTV3/Am8sOONmrrnghaX1jJIaCMZiEDHgSbT0U1JJKfzE5rQee8a7+DWFMl8IC2xe46SKYYwoiIDyAJaGJHGOGedp/WmLa/xEKCsfVQu//qvWMlH4XfxPdZ6l3LYKnzLRTKMitS8NV9dmRcbWRhFd/ffGgdiblJTnzj3TLn/yRfL/JnnWQBzji5Mbu+1G5UAp6AWzZ0rD2PIHDUZWZT7q9/ERYagkKL2tmtkWpiroHqmmc7OstX3Xi5rH7zC/SqLXvw0MfTMR/zOwXffQsoWSPwho90sdLj56sZvKMAR6ATgSi8BEptKEKprzj1j7drNYblGa3mH2vsUZ6s9y5rzQ2eeoN/6IEJ3OaqntOSouAD3K6LmkkqYU1OZAQpRlXDzh0qqnwR4rR0Fq8s5OfZnzKkgo42PWaH2VrnxIYf4sTtsxCmn7ukeAII4ulfeoefOJHlXiWPZJvH6Z0uUHkYZ0t8esdqsZ03F1N78iYfL4ZNstmDrZG+ZE08cHPSMcYEsz87jSxeROBMgrVuvvXZ731sI7W/jpgiIR76toTHwzh0I0ahZP2FrCsMQT8y9EX1yasNNtmKuX3mnrF9+j0MWPqVXwyIZVsW5Em4RWhacBiU7Y4Zjhw7/cJ6PTbB/YMCg4uH7nihHzz6JLJAHtbdjDzFGEmBNWSYb+QsZ3JEQtPOvARy/oLCxH4x7CAdNc2VruBja8xRbzmrb4cx51zFcf+OvSn/jEjU26aFd7nhEbPahculzR4GmIKosgu4B/6RMawQy6uWrieGycMl0a3WPNNGjtibzc3TZFFDKc29T0jvEE1sOaZ5furHDt7wHbFB4ujz47A/L4y/+Hq1XFMFNCjbxHGAj67xjYCWyPchNWwcKidtfQZzDMw3gSjLtPW/bminO9bpArcSiiGvvvlqWOOV0mSarK6OmfVXCGVQwgo8eGuxIqzWw019UUmxn5X3lGKePni1LZx5lbvsZmuQo84CvmLqTyhNeaZY7bhDLP6Hm4hGXx1KJBMiNoXGfZn+NOCKfWu1ruoM/ZG1BQoIj5IQagjJvcpAKWwcMKW1CwXjmnLZdHeSBvHp8M2zE54R2OCZplcGrNfrkIwbieiwI8iBJi1711GLV01+2+WTSksc5Mfd9iHn+eQq9wfJZ8tJlqoynONcf+Wm4LN7yN6UgH3CN0mvKS/d4xWqSDp1q35vREvjP/nWfQtpDGntMmW2eZ3vvL/89U4DvMIZ4kXPhwTggNw+svaMGbzR3Ea4RH9DjGwlwZdOyyKdTSqqa/VVH0DccYWVRy2VOarnJ6uGnf/QH5QE+9Xv0geeYPkIZaN75dQ0XioRCmOuaQEYUHhQU2fwXyOkWSmB/LFVEtcDMDehdrVZczLJ5gU/hvFcuv/FTFrT8uvRYzbUMZ4s2X7lDwW0lMDIsCqnzUXTGxJj2kqzHSzGbV3YWKXwA9wofOlymlpo//Xgocn+OlVos1PEYKZfUwiW3PMRv8NT6rz2bjF/4qmn6jHCpVNTgIQs8E1U0deF/su1Uvho5wG3+uMJvJwpJIWMzlrXr1H5+N2yH9fn2zW8yAOdZdFcvfFAOLwxYMUbj2BqRJbaLHMh45OFnaYU9xmDRKY5gZokx+UnHB+p8N62up7eAiahlgVtJ5J2c+xvA1hcO4VcP7SKzGcfHgRNXXSNBUaOsHUvouyDG89SvvlU2P/z7cu29l8oqeb28xJJcxldy6ZHyIHhEyk+XdovjgJ6ZIlPA1eLpJEj9DTZwvmdq8MgR04Nig8UATjTjsIudR7RvbzDnfW2LfvXiyfLd3/tX5T6OYppjH7FLUh1cG7qgwcEs/pyWESRtf7NAjFF6tUNhVcHFvChZbp3UZOiBfQyv4ukarc53y/p5DtJnY8LwykesVGNjAkrhqq0WwLJEPNu3c0rPwZgFXpgpogXSLzfha+44tfbZhzm6+YWycPoJOqcsWmG02NNdbZZHs1HeQo1QpcofFjFFE2vZa59Qu89/Rao+07vAVrGyWE2oKEePqo7aW34aT6HpNc1Yxjp9orFoGrgUNGpyF8mwjNeTbS6/U6589CafFHqNb4ZZi5Naau5DJx+kgH6SmvvJ+B47ne4oqMfs/hsyvUXGMmVFi8xCRnHXpDSAJ8cmLSEhXKMY0G/jVee4tLSJTh+cGtxpSaGrf091GWxfoTvxISDnm+Nv/nW5+s4v+CLKJoURI+rI3SRHsqUrM7fQz1gO4vcbC3Azzj53NvvqOC3o2aADu0Yb9zpV4U0ObugdfaB89w//M45A/gFV5SnURYBQe9O0jQE1CG2zkNs5ywWmYKLZb77UXEkohwWgpB7iFuDix8x2xVZhuqTXu8po+cusVvtF2aC52edrIyv4HThwR60di+Sc011kgGh7J7oTYwaN5gC1AN+i1bHJQostFPbwg5zJ/vgLZf4BRobZo7419Csd7Pqij2ktrxI7RpDLKpk2Uoe4VdT4IgdeogZXyT/jspBsl/IgZHu97VNo+8ckkrDm9o8CE77kIVru5IWUzScc6VKEMyHAMr8OvC3g2PNLJKxX7w/YvTVnYXmDrZlvl0/fYEHJp3xfDbfTp8+WUw8/w1TYd6jJ2TlmKywWKLFIySW6FCxyMXDcQYBbitZ4fZqX7Q+XYCSmInHUbyt/w80fLOKb4wDcYx4cYrNQjbQirwHLjvvMkIy3PioXfvkX5fKvfsJW0hucwLpVDtnrMzb8KU2McX+2VPX8xS/TlYnlodHLyEwUV6iLT+57pAbPJAlsM0nG7XtHDU5mrbMYYhWAX1ulr8cikBWWoz7xm39ejlEbjudcBGEOUCID8H7U4ChcNgMAkaCHokpfc6RmU4hox2Y22W1x4kivp3uMPYmTNeXj4fly6a2/jwUtA445XmDOdxn/0WSWSTkNxQEe0Pb8sB3js8yg9t5hfnvMXPbcsXPlEIcaHHKXFB9cGNMM3aQ7IZhzEUwWOfLuKLlz8/ZRtc18Jc6IyzhrxgbK8v3W35rQcOiab/XZbBLg+SuwjDmeptNbgEWaeVISxtiDafbGp7WpHmLuwp1ptHRcFOPtVKNfb1ln3f6FD99kh9qVcubs2XKEjSXLbKCxJWOtHS0ZAE01HnHFV03J19BoqZsU7nhGbI25zNp0FuDw3njFX1zkmxnj2occdXHkxXSiM/jtM63XZzDVVYrXONLp+q//Or6IMg/wjyxCGU/GaxwmNcgl5QP//eYBnNwQkPa73berYgfAyRNrMlevWXtfYYDtKDXh2adeLGdf+N2yfOZpmsR+xCCVYqqYZEA3g6P4N1daXkQ5TDw0LwPgaq9TZs5lo5wcmjje+pSBlvfKeZrml99+uaywemsJt2xMo0ACDP8eC+SUUpxBRm3uoQxDmB5Se4/YEDJHU/zwgy+UJWruec4fYxVLGbEYxzNVHcXNM0hT1eQ/qkVhEopeGY4RfRXU9ywAI/6WnF3P9LPL6nO8KAv/EqiCW5Bk/CHLKs+wCe3GNy9KToC3S6g7EhHdHDd2uDTOMQq6PWOAfplveG8ysn7i1Gk+hsLCJE51cRkqR1FOxiBMo6PtsfLQZkLQJ91EEyz5xNY7i8EsICdcWOoYpvIchuBZGdpKydZhhspm+sDPQ42YDh1REH3Ixwvf+TsO73i19Fm+eoxlCJY5Zo+X8ghy+Xrgv+ZD8C/lloZIUr6EHKrTvVGDI7E2EKbiNoDH0cUk5Caj506PXWDu+8Fnf1Ae++4/KisPv8iCiIcBuP1Yp49SEWrWRiYoH0GYUvLphY9otmKLErkl0CkWixXP7epR87DagVWYLGH89KVy6d1XOPL41+UQ4F6iBnD81cZrNn0rbRTYU1o8xMHawbMF3erZ4/xvl5see+I3WVv+FJtHHirDheOx9NSGsCfJubUkRuNlLZTZ2otbgE/4hBiFQQO4Wn7wAFdK/pkmNVmQ8dA0UTJzxhf8oeFpAiwNdYo2AG6LiCaMsqfgFgzRxkeG20yluYllfol5flbpedLOTkwL+vlmpjiJO/LQwoHwma/JT6xWw9HoJOklP5F3lZtwDH6DCp6Ty0gECfEt8jxC+5PIdcqz5xJclq9uffrLsv7Bz8uVN/+GL1Z+wmGZhLIGhw3LWOURu8smNA7WkFzKP5cMe0Vy8uWeBrgSNE+yiZ7LOl3cclWA3xiWx77/u+Xp3/gj5o+f5Oy1s2QWi1vIpKj9+M0/BAKNnHNVKKFhKSR8RBx4iEIlckyVxg87pXo01UrvGqux+PwsizZWz79dNtk9tUyOLpCzthUmLQVJEc6wKfSou1jEwhopBok8HniFQwUPP/pj9nCfoxdxsuzQFPWUGcFrfe9iC8ej5TuA3UDeanCsrXMEXqYNLSMy2Tb2/a/b2e/vu9mqWMok6QZH6RRWXTmGz3AT8hOAY47DC+E1CiRoBSchHOyisGV8w/6L04ekfoScYkSbwbQ+I+bZORBA+LFlNEkn/pFZgrwVM8lppUSc8CibxmqcXhOA11cIDqNwsoDSjzHSVaKV5JHXzpzsMJe/+emr5dKr/yEOhFhhLCF7DkFcrM8AnuL8nL+WrGSEzfRUmDr/LeYYrHKK7Drrz8+Dvad+55+V5/7xP2dTBnOlg+NkFrVAAFyFtKT3wmxeqGCRwWSmtUEFM1qY8WHntJrZ7KeGxqxqGvMVkjK6xNrqX5aLr/w/Zcine3t8k3uJk1diJkzqFuXGRsD8fK9N9eR/B7c1aqQ1aqb7nvxeOfYIe5rve4Hp+dPEdZjaysGd3KPsriVvC4lQyAC3tK3BrVmIgH8B7kiBRUIoZABcrg/4qjKbUjUO8oSHsw1hDsfwWE3KUn/hCXnYujEX9b/7ijxRzrjZtXEZ8bbNafdscw9I8xTggNvxELsnksfFj0TGhyKh3jhIiVhU2MLRlivyxyfvkf/aQyQKCOlYYMJD2EIB/3H6jOMFbBkd3fyQuXBOxv35/8lJPZzbxrTfgJVtAXJCGY3fCw+2oHHQlygIfiWs0cvIavoiP3gNX7zc/WvRYTz74LBsCcvDRS6b9GX9Sqjf9l7bHpQr24vlyd/6k/LMb/9prHIa8xHBkaelkvoUt9lt5ifAlUeoQtQcrYmLF5CpgsWxulE42MxzYIhVa8yHjlbfZ5HGy+XCa/+RVU1XyyIlu6vVYt0KFNEQpFtjpDbwIMaYt0dj/ETuFs3wrcP3s4T2h+XwA99i1dqDKIejxMzVE5ODgeaOhYO1T17amYumgRtlDO6VTShjAjxaD8adWp9BD+pXMDg42bny8A1Brn2qXjCf6oWdPHMFqBKe2iQEwyEAnya8AVgLK/PI22/Amef+WThI1iZ9LPsl3Z5Dn4qNXxAmlGPvN5FkPD4rwIMnI8clZAmxCciJrwI8BtugnamBZ3jPEXjiYn26+w088eXKL/73svnRa6XH7Mn8Aq03Z+yg5yCrO8uM/+u4vrkAR3CR6UitDa6tMwm+bS0+WiyrbCZ5/Df+k/Lkb/wzakRWfwVg8iCAzO4Kiir6ADg0VYBoHkaO8MO/SuaxPk4FRV8PEI+Ztx1vc2LJBU5F/YD+99t/H5+4OcShik61RY0dgVGWiktrK7eIWkBZMG2rsMceLv2z3ypHH3uRPvjj8HmU1oYnu7p4g8jVO/vtKGIqdfKdaZBJefTWa9Y1Pq3BAwpfB8DhKcHAUwbrPQV4s9HdSz/ymr8WPAHyUPyO8iOfXqf2j5YOYQRbhrSlkpfUohzpAtzDG8LSPMvWj88Wg07xNVfzuPGt7LwmaUpeE+AWKLYu9O+tkJErj2x1MK3HYR47q3zL7JX/q6y//wr73T/i0AeGAVnZZr7NAI7YvtBFLkUTnXxwgwblNk9WgMX2UE4UZTvZJuvMt5ZOl0d/8EflsRf/IOZNxzSDc4rM7G5DLVkzGL/ZHAtEoBmInOQ7tSLVhPeAOes+fb34aAGDa6Mdpkne/ms+c/NyWWcF1rIbUlnNFKO6hFe1nIZJktCFd+eno+EJz36La/Gh75UjT/0uXe7HGVg7y/QZrQwHkKiB5NJacsSGDvetx/e4ommuhuEmfY1hTh21vlMVK7zD24HX4EbNbcGVcWswZv7gp23HtLjMKwP4psTlzjGEGHknQE0KjgJckFZaSNCiSjo1yqAglQZ5+7gyEmfG1dNZpJOLUwwLSGWqhklq8mtAnIKyT634TWvenJ2ARwAehX4FuPxEhtpdYjGMuwaHN/ns1Jt/xfHKL+UgKwBfdrrMfe7QRCWg8fVcyX+l3niP5OZL5AdR+3ZvjKLDaGQ/gou153AuwG2eJ8ipGT1jjZrxEcD9yHf+KU1eVj3FwgiHvVSNpjQ2elM4/qosqlJuAtFGsBCbCsfdD4DTPGeOuxR2RDE9dpGFDmtsPBiznnqZpvsSNbQfIRBg9tWi9oZu6I5KJcAhHUNm7BBbefQ3y4kX/pQpsftYiMM4Accd24GLGts+JTcs8O6osXP41mIQ4D+awmGELrz6a3oEhKnUAueg5euBXtCeAtyIYFIe5CtMxqyc25UwTajqyVuwtPpVf9CgBZQJhhbu9tkzTbpn2tJEGpGva78T4AqJorPyYc0dYAxJZDzKJCkkV9HiMHjj2GRUjqNggEbGbtqkn2myu0a7kdcE+HiDE2Xf54x7lq1eZN//oblhWaGZ3otdg3Ii3a/nSt4r9SZsX1sBhllr73sC4I1ZQb4VZ4BbWtMrpp3uANsac+A79Gvn2WX08Hf/kKOZ/gm1piPRACdErdK124ZWQCEyIAFuZgjyzPjITBUH4NqXitNEOVyQbWIcGfxB+fiVf8/66dc5Y+0KC1t2mKGFOiNCAjxO57Qtrj7QZje402x+jGCbT91u8YHDw0/843Lq2/8CL0yJsc58yK4Fp9VUe5dxxtni0d909Z0Ah18VjX+ZlGb2zTOr3Xyijc5ekZZQzHw/0F8zIy4MFVi+prUxJ6TST7pkFyh5DYCbzgjgz5ROgI9S0YIxu/qmyHzjSaJ9unPL8Y4sRQWgWqGwpZRy0J9/IRPJY7KmVm4Zo7zoYJ7rW3P6F+TxZVKZaPa42V2ziM5jqRhsZQ/CkK7aVbaRfvyrn5VDrIA7POc6CbSLsJVrwhz8FbxHqqAtm16ZyDBO02kSkdnS0TLHWv6Fx/+c7e7nfzbeeP3fltGFN1hq/WkQkIbjRq1Z2GhPiAd9Y/h6roifyMxKv1ji1tA8o8wtoqxiY4psxBcvVh55oZz7zu+XB579HZjNxS1mcjS9QuQJ8l0AxzVkI+tEFFkf1ZTKQ21qX5izvjl7KL5dtcX02Cdv8PGCy28zLbbKphIAjv85CpuAqIriAIEK4qIcFDL4xn6HPdyjI2eZFvutcuKpP6LFehKAH6FeoCBiWshBtRHndLvAZZ4ltHEYYDTPSUP0SSGbyCAvVGolY1TEwx05ULMh9DVcD+4nY2v0fJveGW2CMCSqlk0u/TV+21NH/Qj2LBRScXVXYl6Zd/pRnLrYysm0tVpff+k7QR1wlaoO+QyNT/tUfmIK52wnqBURR9URj5IK8RojkZmHVil5LJc1+HWwfqkMr7/DxpOXy4ev/g07CNcAuVtenQOpBUdXBMHNwfx8YwHu5IW1dnxvDNlvAm4BfgOA91gRdoLNJQ88/3usZONb35NGUlMSs9FBmD01eGSt2VvVhLwOAQJuUA24KbX9hjSbS7Yvvcma85fLxfd+znLKDzl2aD1WLXtS6AKFjiur4moAB6S08Cn9OYiCGHb4cuaApZeHz/2YcTYKIea9A+Bjt6dUDtxDzts8c26hpEGzNfhQtAA4ClSfxjc2EkHSFIrnQQM8IaRsupe1n7BL24ye3wrY5llwBmKUaci1hcm86TEukWGk7Ug1racIZJry44CSsFZXHKZNwAXkecl4sccmL/lqb3q2AKwAx4M0mhzVCl303VoAwaYRwoN+o3KzGwaAXXwkwMcMtDlddo3VbB+89JOywGzKMgthDpFVcXY6YQ86DzJt8hkCzVeNXiagFv6RPl7DFy/3RA2eg1TuTEIFyOlNpiQ9f+0mZ5/f4J47/lA589xvl/uepfn7KAfx1b9MuQDJAZQEeGZ/yKTKhseeSwWiz8VB/+yMwLzGd+leKmvv/G25TutmuMHac3YTxb4javkFtMCBlZAqrYxoBHAoX1ChX8ZMadlZOVGWH/seU2MvliP3vUgjg5H+2OO94KEmsUVyiRa5533Fxwda5kVNNlVDI5m0poyyArwplBnczDgfyNWS1ljymRylS8JHHatSFeTV8y6Ax6BYFmfZfSJvBHhoKA8P0aCZ67HE0cRm8DG6PbRgotlu2iSNn1R0CsLWqqkRysH0grMKcO2SW56G4W5STf7VC+g5YKJHyiG7Vw629smTOE9PgLM5hgUQLKH/tFzldJoPX/qr4l6EJdZDHOHcdA+pUQEOOg/k3+sfCOAZ+a2/u8V9q7scK+ypv2ZSxl4+43vfCI06lWkxAM7qNQ9ZXAPkftxg4eQj5eHv/0E5w3G6Jx78Nr6k4t3KaGuDNkKbLjhOfDWxaZcxkrvu+1bRPCGUJYpr7/9dWX3rr8rNK+8yF8r8N5+XHQBu71hEWZUi5sMkwwmhlv6O/N9g9drOyplyGP4OP/Bdzop7jorFbaycSMJg4A5HEjG8QM3tQFKkONLgoFJe7dlqv2rtI8Bk+qpde3a8HIRRrrx3XwkSXTJafhvI9dgCRJrgPWrwiSUeLHzhvTFvyQh4XTegXZy+gwxsmmsTV0TUuGmJzff21p7SCM7gqYXI2PmdeErefQ028ZsFlRjPriE9KHhAH6IG5zBGvjw6ppm++skb5fzrf1NGHMw4x/nv8aVYBnZymrPye8CPfxiAT4S1JzUhzds5pl+bY21aZ6LPOEXJz7OtAguQ8y4QNgB2HKPL8/IafR8GEZ767T8rZx77cTl6H5s2VPrIQRu8Vc+iXz6FPtb1yqyfZHyoQipaA/iYr12svftTlqf+BYcUfAzwb8S8p4NrfhV0nmrFAbvUwqRnH9wdZH4V9Bqfw91hccux5/4wDgs8dOIx0mdvjXl6l6faMCdYk0MsmCDcFOAqYaUbz8a7T9Jqeu8s5m6AL22Wg+41jbK5TG26/tKsn0luYNZvy6f0kTnVoWVhsYdkc20hpk9dEqxpZ8DdgdNHxuJv853FAG/qYoen8M+PrYSYzmOgzfEYdxSOqcU9+/7KWz9jffqbjFl9FOfMzdOcnwF8misousLLjLgdwAX3DkCycTcBOLX4KrX4RQC+RN/22X/0zwE4h+GfEeAtc9t4M+/OccZfzX5zj4zLEjGfYaVzrUn8iCDHalJaXyg33vlJAHxIc2zgp2xoTnv0kgCfA+CRgqYRUBXgHunsqa/XR5yjxrlqp7/9ZxzF9FxZWLmfSGia2sekBneFG6SQg/OwKn3KpKUi3qU5uTFOrgaS4GBie3caTEP32o/n5mc/t27Y/cwtrG63hk8JZo5n6Kkf2wiOoEehE3mAtAmQ+ml+WOgDcJamjjmRhg+ylZuX3ua7c3/H2em/KmM+8HCMqbI47AM6XV3OuA7mN7mvfLfk+hrND1jEnOnU6qD64FM57U5FMHA7x/T6eQDu53t26NtaG2q+yf7vmwKcaTIBfuj+J8rz/+RfctDiD8vK6acjYa12sFAge0htDlzJTZUFhqxRGrxlN+p4mok2FePctW36W5wIeu2dvyzX3/rLMschfHPseIpTc2lKCvJcJV2TrlYYCdM57nimiCg3OVGmnHi8nP3uvyzLp57is2EcxRRz35QS9DOdFRDgHpwYfFaRBa9B1hTIXbvDsv7cSwDv8v0PY25j9EoyMyr5SICT7xSyqTtIG0+7Ac4gIINpYw9dpC++wflsV9/9GVtIf1mGlzgplqkyv0IaGlfzMKkf3O83EuDbTo+xsMXpJPvga/S7BTjHn5eLN7fp1z5dvvv7/4pjdb9flk48QSNLpU/F/+IAJ6gAd7cSp7eMNvhiJjuIrrz9l4D8p0yHbMT0mD16d0S4yGWy9rhlKs8xNTgsxieMtxY42IGC577v/6d83/pxWGMba/0Ag7V4bH0ledbgWfRbY6T6JckGcBUlVVOTPtpmjtYKSvvZ7+0kYDuwXVHwI0NlOqnBK8BDyvxEeR0VgZpkwe+JPtbiN9hJ+B5HKr/E3vCXy/aFt8phFu0s0lfzIMxZDV6l/HlqcM8vbwD3QD4PWAyAU4NfZqHLET4O//0/+td8yua7HDH8CBlhc7wD8JD2563BYSy2I7qwgUP4brJq6fzr5fJbP2He82/L8YVhrF5zQYPVbq5iSzASaRhsJo0ojLaomSl/OGPtDAvXnmOBy59xZuBjVBKeb25t7Qiy/W+ncgybBEImvDq447V/7d385vPrUqjk4Jvz67BZu4S19y6Akx+5Fr76qki3iW7YHjvKoplODb591eOUf8mxXT8vG5+8WQ5zRpvHP88A3iSsaNHsVvt0lTQUHncH2QLgTj/RzG4AX3MUnSryKltFj3Hy5g//+D9nAOvbZf7ww2SZYK4Ah6hlb9rVQbbINIjvaqLLVGa3APeEkR6fJPr/2Du7njiLKI7PLpRCCSmFFmuxZfFCU2qVcmHUxMSX+A30U3rrF9AbE9OmVWktKBprSyu1UPeVwgL+/ufM7O5TlrLbXkjI8+h2n31eh5n5zTlz5sycZu1RqD+8zaL9PzDueSucHSngmtiG2wwzBqf4pMJQwAnwZ1jHa+joQxOE92XVltNvf0HsQBqgQQWuV/rcsi8jmd6sv19/tyanaB8bHd96ePqw29pUMb2CSorreh3Jt8NywAH3HN0PuDpcVjYdmem7Uo6l1WnhB5fgzfJ95oYvEWb4FnVkGQnOiA4qujm7dNx/WIr6OX88VXQk5VY0sglwuadWGf/WMJniRo8T5GABwMdee4cVkhPgnsPqtx8GuABqIwRcJsFxcGH8e7vGxALGwDdYi6ty/6cwKcBVB6Sec5Pzpx3+j55rGh7TqvibjKlWn7E2KkbA0emrDJN9GgbGSJ/F05LUFtjeGKVGToDrY1VPz6ER0n52sxN2bzrjR7JX5b+65UBvgCtf1Wi2Nx3pBLyMnW01bK39GjZWbjI/YQkJ7t5saraz97af8qp7xxpwGaI0/1sOLgK8AuBVpOTEzGVU9K9YbRjAWR0lSWtlZj+Ae+bzEhYG1GKArMkTtplUUl9dDE//uEFwg5/D5LBianEKjaIFFbeYpKVU5YIhwPcEOCb06rMiXYe3WN/7vTA8+zEN0LQBrn63pLbNsuK+TsBTOhxs3mOtSGdtc+1E96va6RO1eUuT35//2z0HDgfcvdq4O2a5fymXBXjqgzvg28RcW//tBqsqC3Cp6FpLLwe8lfe9qeguwWHKVHR5sVWwpFeYD17DiWRiZi4CfgXAAQjJ6Mr4qwCugqxYFI46LqpPWWiv9mAxnGFa4LCcGUiMxqltrNpFLhVCSpxPLtmjA91oDoRqo4h1H/X80rUwdOlD1nV4HUnP2t7S4021VmvBvmqR6hCbt/780HCLHWTfD/oFsfuRAx6zo6+v3gBX8dimrGfHmmM56iTAGSbbpfGXC/MTFt+sYkkfQ0WXP3reB495p68XAa76rvPmvQZQChMsFX2LvrdcVBWYroHDyEQJwD//Moyy/JFJcIFjxQLgfGu9Lj/iR00g6uWxD85bElt6IzfRcVbUUCylTRa8rz8iLtWfAvy2jXVq6q8k+IsAl5FtU4BvDoSzpXcN8BNvvM8c8POIW0VaUQKirSDCa31vHVXnm3SkWGaWpucAd7i9FupRuQQnE3ra+gDcysgfKi1KE4GYSsaHPjjebLt03xzw60SVvduS4OaP7kXTU4r6uehYqejKXwGuCSZpJpkBjvW8Qj+8DOSswRkmZ+fC/GcAPgXgRJ3UAH8bcDm78Msgj61xKrh9gMcTLcDLLcAr926GOoCPYWCTpVQWdANcMBqtHIMyqoDN/96JErzWGCAIw3w4jY/84AUmwhjgBEIkTWaNs2EZL2KFolX7MqgF3jqltw4eADhnbMsBjxlx6FcWcJWDoEnDZDKyCWWT4GSu8lestgBX5HY5u0TAmxsr4R/cVSt//WKADzNUlhvZuhRCpv5yXlqvMtcAR1puMg5O9xtpzkwyGdcA/F8+mww1TZaumAQ/NTVHTK9pwHOvNb0GOdsT4LLW6z9BWzCPJdbfYuZQk5ljNVT0Khb0xsM7WErle8511BO3clNBzHeal0GZzSCjRjRpUBrbRRqiYph681oYLy20AJeKrotVrewm/tXfakEF2UmAG+RJ3chkkN/rUtxv1mmriPzMtxflQBZwL4MDAI+PMS2TElK0WGpfG3BWdmmu/x4eL+HGfO8Oji4aBz/CVvS/l7/dO/Hgm1BcXwmFch/zwVWzum2qtVbtup1sH8vU3Xi4G+CYOExd1zTRMtNEM4BjZDt17rL1wW0ttfjeXlV0LfSg5NrKn4o/hoouZwap6DWMbFnAeaoAB2gp2fsBx9jGyTqx0iqNQpianQdwJPh0W0V3sAEVUWHSgncrnJIhr5aD9JAIPd1zJJNJzwGudPtV8a+OP/KvLjnQO+CpWnvXCcDVqj+nou/gBLV2NwJ+4ugBXmTBh+JEKTTPfxIKP3739d7U5vdhiFUjB6v/P+AqHUlWDZFpiSYZptQft2gmXQAfRYIXRy5Q2TskOGCYim4ouuKehGJnH1zv0WZGM1R0LcAvK7pC3WqYrCwVHQk+RnhQix4qFR0QdX0CHKFtFnT5oKsPLglerhfDudLVMD5D4PqLH5iKXqAP7uOtXCeRr5rEJ6XLWSY9nWq6H1QS2YSz0Hf8rWGy4/6ouJt/dc2BlwCcslYtGtCc4E4jG33wHYThWkuCUzckwSnITHF1TcfLHey3D144Sein8VJ4MrJwdAGXo4uCDJLPLPoQwxXhzSY1vUGPZxIj2zwBB60PjhU9o6ILNoonDZ0ZSyJC24F9cC2TTFzoQh0JvooEB3Azsi2akW1YJLaMbDyn9Tx2I+QJcEnwMxdZRZVhspMzH2FfY5lkebIBqfp6uxpTI43W9Chx6VktfEm9ka+TacsBTznR/3dvgNtzY5b79FUAV1vc4eiyW0VFZ5js8bL64DT+qOgaYTmqgP8HAAD///sjh/YAAEAASURBVOy9iZNdx3Wnme+92qtQWEkAJLFw3y1Ssixb7VW2p93hnt7nb+yIiZ6YiZiJ6JmeiJnx2JZGki2JIsV9J8EFIIBC7dt7b77vnMz3XoEgJUuFboLCrbrv3puZN5eT55fn5Mnldt74h/9teHTl/y5TK++U3tqnpQzjvww6pXQ6PHhwH0d99L7T3NJn/BthvshzHOxW7w9r/ANu9vqDsrM/KPyX3f6wbO8MytpWv6xybgy75cSFp8rzf/4/lKXTT5fe4rnS7XTJZjcSGBD5gCef/TU3rSilQ4QWknNcHO4Ge2XY36Fcm2V/8+Oy8dFLZeWdfyzrH/68HJ8dlvkuYchTpGKERhMR55UsQbNu2drvlPWdTjly5pGy9MCzZf7BPy69pQdKZ2qJgD3S7JbBMF+M/HFruT07+AZdyKP3B498x/ebT0v+YLi7T5+ngJXVaj2oHE9ySXeoX9aLdG182R/0I0yPeu8Mt3l5gzpaL/21j8re5TfKZ2/8A7zxajky1S9zhJmCwdq7vHioR3Kqtc1xoPLzQXbyLvLPQ2d2uXROXChry39QOhsf/mi4//Z/KuXKm6WsfsUAvlcBvj8sWwJ8ux/ner9Tjl94MgF+5ukyvSTAe4BCgFNtvwLAG7yDKJJGgA92qaStsr/xSdn8+Bfl2ts/Lmsf/KycmCtlvkcYAN4jhWhGGsCzTSkSWYBvk7eN3VLmTp0vC/c9XZYe+fMyvXwOgC/zZr49pDWAHWAYmotab4NBMkiX52xYzZnn5GHgZNChFWnYSe+7919AgUFQ0jq3gUyqWQMV4PBONJyQe1Qf/QR4l3oPgA82qa+1sr92qex++lq5+sY/lo1Lr5Uj04OvHMB7c8uld+pi6Z7/56Wzd/lnw+3X/mMZXHmjlBtfPYCDqbIHwDcnAL66V8qx808A8P9Qlu97FgCdp9r+6QAfw4e7wX6AvFO2Sn/z07L1ySvl6ts/LDfe/8kI4J2BDAEryAjt5ZsATjYD4FPHzpS5M0+W40/+VeSvM3WEl6ZhrgS5UtyzGxzVoe0gXtDajfgC/oRtiTS+HQNcJr0L7kaXX3b95QC32aYKxgAPCU59NwkeAF8v+6sflu2PXynX3vopQuD1sjyVAO99hSR4b365TAHwmQf/+qsPcIkuwJsEX90elBVQdPSBx8rzf/Hvy9H7v1Fmjj5I9TQV/VeX4GP4cDekxUaKd4YC/ErZocG7+tYPysp7Py7HZoZloZetfQeAC+445auGMq5K8B0yvLFHmKWTZeb0E+XU7/zLMrN8oXS6qOjdGcIL8lTTbby6XQGvNOcdwC7IE9g8Rz/A53boOXk297vXL6PAsNLxyyT4JMCl8GAEcCopVHQk+GC97N34oGxderlcf/eFsv3JGwlwmKF7F+AHq6CpQpOu9kM97IPv0+/eowPOJQEOsNd2UkW/Rj/8yP0C/N+VYw88X+aOPQjbK/pS/coeLNUU/fKUdAIyjtoHz8oWSunRoS/WGSrFt8tg62rZxyZx9a3vo6b/sBzp7aKG7Uc/qwuAO56qyEY4gTfT3SW6LW0Hc0fLzL2PlXuf+9fRABUA3hHgnkhxwe3Z66F5kE/LLk0izsioADdv7QxHfiYSnAjdfO9eP08BAT6mYqNfNqDRB0dFl3cM42GIYQV4R3VNgA/ogw/Wyu7K+2Xjg5fK6nsvIgTeLkdR0WcEOGnciqcjwt/wJ3m0csZkJitTw4qj8smXd4QEF+D7IEAQKMG3d4YB8FVA/tn6HgB/tDz35/+uHD/3zTJ//GEqRQL8hgC3pe9vl+HO9TJY/wA1DIAjxeeo3NnObpmBDzrkS4B3G8CtPJOWyNTwHkjdxn9napF+0MPl9PP/tswee6h0ekc5kd4B8CnKlWp5rzcVADcaD6PK44sArm+WczJ0fenu5RYUGDfmejYK3xrgI181ugAtiBpsJcDpg+9ce6+svf/zsv7BL8relXfKUdrrma7C4S7AD5D+Vq3dQQk+CAluP3UfWm/vDrBOD8qN7f1yZW23LJ59JAB+8vy3ysLJR0QX8f86AOdVK4c20Fa4YEkf7q0C8k/Lylt/X1be/LvS21kp00j22Sn0BPrhY4CTpi3qKGnyyuMOBdnszJZy/GI5841/XeZOPlq6sycAsgDn7MxUgCvBE+AtGomUTPZlAB8laPC7xy+hgLTNE6gHn0BjSJhGNpirSvDJaIYjgMMTAHxII1+Q4NvX3i033v1Z2fjw5dK/+h4jLJ0A+FC+yIqbjOZQ7r+mEnxQdlF1rRgBvoXuK8AdKvt0dbssnnkYgP/bcvLC75aFU4/SggruBLjvCNlU0e2b55HX1p43tQ0FDkAKcG2ppY8JvL9ehvtXy423v19WXv9bRkiulKn+ZpkXn6rnqBWa9FSH4vDiSQcaI3pI8fUyU4ZYz089/Vdl/t4nyszSfQSYph1KKT4gv3Y/elr/VdEjoowmY00J01gzfWqgTIyHDNlcb8+15czYf530Jt+/VQ6bf4u7XSfDGubmcPrfKuzke+O3MgYBnv4J8Nqoh+FzHFcA6maAwxNlsFq2rr5Tbrzz07L10Wulf+2DAPh0qPFK/NtzfMUAPibUlxU3Qt0UtBE/++ACvE+1ovbSiArwDfvhDJV9urJdFk4/WH7nz/5VOfngt8vSvY8DNoAiyKm5rEyugqf+TeYljS4HAS7EEuD2wzfhjJWy+u7/V268/ndlb+VS6e2tlQW70FrSRwA3VgphOTwBuPMHlOLrg6kyWDpTjj72p2XhzDNl/sTDpADokd5D1PRgLRqINA5mniMafrzaRNHScEoBj/BNjqVBGD2H3+36abBo8dc8tEeumbcJhwqgkUvYPEZPcdOCtJpKX2IaaWG41IiTuX1DenhM5iHva9D0nvht6ehkPD5rzPTQoGn6kQeHK42X/wxHmApwjWdDGvfSXyULK2Xzylvl+ls/KTufvMWw8seo6J0yjYqOiI94b8dP5ryWshXKx9vaB5cat+mwDPsAyT644N5D1NH1BuD9so4EX9nYLzMnHigXvvln5fRj3y0nzn8jwB2VFJLcahPswDYAPykhG4Xo39fq9L0Y/sKlg3FFS/pwuFo2P3qhrL3LWPgnb5bO1mdliUkNU/j3BLkMYlQtOsmhBI+80yDRXAwWTpb588+Vxfufp0vxfBl0F2gA5jkBuMwcAEeKEwfRxSHjDQMUfVh6n5wlwLtRrqqhTKiUt7MWkrGyIay542KK9axlb3mo/BZSMoATDlRgXAnFNUjWaBZlo3wBOt6gkYYaGb1p8J+0EDzmwxdNrZ115OSmfBAgjkgrU+QV3zat9As6E4/UVQBLWStTqvtnEnKNfKGBrfRv0HX7tKx+9HL5+KXvl976lTK3u8YEqEGZdmJSizijP9Tfcbkjixl3kCALE6xUvQ7PyBZEPtRyjCIz230I2wdIzmLLs8RY+AZquiDvLZ0uJx79drn/mT8pZx75NrlJSyjikbfrCViAYgxfGaenlRbMF5U5Jp3uvbCkA1GspkPUsd3rb5XNT3/BePjPsKpfKksd+uG07NPkTUBK4+Bm7/i3MUGDD9V7l5T6s0diwsHihd8ryw/9EQBfJi+L5Ak13XwS1lybn2iCAtzcBTPK0AcBHg2YIUOlz65H5MF8HPqRgEgKRVYjn7XUmVpI3AmX+my5EkncVAluPkfe+seRdRFlwC21GugicUlNECYwAVxIVONLP/1H9Vzj0yUP4qWOMr0sh+7SNYY5fZf/SA962sAKctPqx1/2p6NerGvV830Mr9sflJX3XygfvPD3ZX5/vSwNdzG+wovGFBFk6of9m3VQS1fLGsWvjYrl1DmLcFhW9EjhsIuS8ZlR1XRBHuDGiu601R10321E+sYWzD93oszd92S58Nyflwee+kMqB9AInAqZxgCyUH/Ux/XJU4kg2RrUs08t2HI8HIDvY2jb/7Tsrb9fLv38b8vWx2+WhT5qOhWKXYVw0csPJkypm+AW4BIcPaD0exjT5o6VxYe/W47RFy+9E/gdYYwVwxrSKiAarb8MTJkYEx8gnX1XGnjYVJmcDYBXQd7ynRDH8TYd5oEqqMeYbgIBn3rqnTkTMPnkcwNWRqBLIk7NJ8PrFHERn92mrJVw1IO/Gl9wcPqK73idEJle0irib9ERk3Wc0t9weVgWaWbYiDJC0UniIf4IMKA+PDPWrJcO0ruzexUt/S3mRbxQPnzx+2Wh7JYlWoZZwsYQGalE21PTOszL1w7gEseZXarpGqJU0QX2NhNIdpz0Qn98f/po6Z28WC4+/xflwrN/Anjm4Qks1wI9OCCZSPKnmm6s2WZnlSfZrHzvbIDtsYcqONihxabPNbxe9nc+Lp+89Hdlk3nHPYxti93+aNqqMcaBai77m1cPZ6OFJO9OlV3ytfjQ7wFwpg3OnMHzGFiegRmmOW1SMOrJ2r7Tod+OW7JX5j9/w9sgkcOaDPf63r5DQATAI5lsVqJxhKmDTpQ6DwO0JihzKU0bhbMM/BI8wD2qH2MRiHj4Wn1jHCclRNPRu51xY0gbhWi4I3P5Cr+1Jrgy3dH4wrvmiYcEuI7pJ63TfpPx2CgMacRHANeisod6vk1j/+lLzGx8oXzy+s+iu7ZI/7tnl424ovQHszLK0296k3SskU+SXKJwWEbvPO8IFd1Mq5470cV+rZctOuECfBsU7XDd7S2VPkash775l+XB574HrpkK2p2nsICcksr8ley4JXFa5ScpTMW7ZkVXyTcEiTEnXUs6VpTS379Srr32Q4ZFGPf87H0AvsesNpid/IliiRpz30lDUJNdLOPECzL6VPsOoJ0//3w5+sSfle7ieUbJ7uEFGqPeXIyLD/uMscpQU0pvAE4ufC85PiFs7scuGTdOoT14vV3HzQCPYUTpEwDX2pDlb7lr9PZZn/YX+U+kBQN2tERWCEWfl/g6EK71Y1usdmMS4PaTBaIl9YcQ0tiGFbqHs14cNkAOVnaGNNLxAgGha+SJl5pRk0rI/Ok9xD+6dlwEuHHwbg56CvCV0t/4uGy/90MmuPy8XHv/9bLE+oSFOWqlv0/eWGxi2hbrNhxJjxp5K6yPdzLAXXyhBFf93eN+EwPbtqp6SHOAPpwtm0weefT3/0V57DtIxykkI7PFBHiqgFI6qBCUT94IORtMEPWAd7BLiClDJ2Oim1NpTk1ETd/7DGPbS6wc+kVZefcXZb4wRMe0VVvtNA5pNbcbQGT8qwkwGEbEdjHoUhDn9D2Plvlz3yqz9zxRpo6cJ5yTXhbI8yxJCXDKOZ3quTGH1sF7weBkVHBnXz1yHQxozh1ei0TT+dB/kzYtWuErqAW4Pg3g0jhzGOEhQgI94S0dDBHkCZAK1My3IHXVluZOW0VB1f54JcrfpSvjn21KJGsihDJJG1ajMp48TAtaUn8d+scJfX4D4DbfppsaQQCchjXU+GHOLmyxRGLOakQL6FK7Q1T0/salsvry/1PWAfjGZRr6hW5ZWKCuGOmRDwLgvDHKyiiy3/zm6wlwiDZQSkIyAa4EF9zMd+GeMfG9blkdzJXH/9lflyf/2b8EIPRvu/RvsVIL8CQ0v3KWR2UMoMiD8YZD+JMUh+FkCR9C9nK5gTBn2uoqs5cu/aJcefXHZdrhss5enZ7oewCcNBz/tjES+FOKcvrUXnbJy2DpbOky2+4IFvU5x+xnTgPuI0gtAG5+5FwYvBnPEiBAWglG/AEHgkRJ+Aktg9//2gBP6diQJg0bFSOH5mjibPlMqhrCO4vaAG6BBhjPVNOtJtXuUNmJxbikZi9sFYCzkgmPJARhU4L7XsuHb6leU38B0IzFAdBsIgU3geNQFQe8RoywKAFRLnhbioHzIeg+danr0qertv5hWXnh/yyb77/EdNVPyzzgnp2nthVCArzWT4s9kjikn68lwFVxNbR5FeCuB29t6sbWfrmxNSxXtzvlyT/+78szf/JvAPgpKnyZql0AEAmMsMJCZHmi/XTq+GY4RG1Yo1QpFR9DV/FIpdmH23do5Bot+NWyxgqij3/2N6yvvVpmGBelfssUXCtjCnC1zi6db+c29+hTWOkqe+gCZRvNYmf6ZDn18O8yxfaZ0l1+EIAf5QUao6mpYNQB70VkcpiQDtGk1JHhOKMQ+dCMR1k+fW/PYZIUox4J32gcR5lpfkneDJEgT5+IoZUorrofzHGGMV6HLfcD4oayFqeEeNyJQ7zikOZGIlale/THcRIIdiPyFLgGN7DNi6eBpa23thgCnDMAHnpXVIF1t69mhZrfo0vWYdLT/uq75fpP/0vZ/vAVFiMxs3GuF2cH1SLsN1ZfpsDv4R5fX4AD7Jj0wlXjWrbNbKgAwFc2++Xq5rA8/nt/WZ767r8ANBdKmT2FJF0EDBXiUnzisOJyuIXa8D78+QGYgttpsTJPh8q3/zXEah7GNvriW5+9Wa6+8oOyc/WDMlz7rCww/jlLzfbgF/Z4CHWxZz9SrQO1zb64ke2jRm/3p8vWYIF580+WpfueYhHKU6WzgBSfpluBmj7AGCf/2kFQ1njYTx0ObKgqY4area75jnxGIuFzO35krAPMFcggJbJw4CAbk+HC2x/yKtz1tRQe7TkjgVZIyqFLde1PUw/aIUYaTAV31Kb9nYgYGmdEidVI21izT+1dADxapkaferVFyLe5iMgUGQJ8GLMMjTjzONinD8/05B4bgLguYe+zN8rKy/9v2b38dunubTD1mOG1GeoHHhgBnPyZwmEfk7RNGpBCFCUIEg2dd553jJFNyT0E2A6VaWRzh5eEHQDfRIJzXt0YlAef/YPy6Lf+jCGzZ1mwdR8MwqotGCPU9Alq5y0koM8XpFBieohoGYtGIddnw5QhLpDgschgk+eNsnvj/bLOHORVFvlvXaEPhoSfI5wLUGQTY5tirjqdSladYlnV0ka8DtFt73WYS0+f7eQDzGp7tCyc/2aZOnohQL5PX7zPxBet57K2ZracXAGrAvDgYuERUpP8e9WZfLe15BbjdhwyVgJH6lVgyVly0sQRuJlwtO58w4BprPIF3bxKKaWr9YB6vr2GHWI7NJnOFJarqQXKNk2oBLqFjWYOXrBObYhHmlnQocWcxjGcIh2NcsH55iQzE88jg6sAD0s7G30UAD4kzVE40uq7dJi6H95gUcnrZRs7zNrb/1D6Kx8xHxHwY0HvTGfcjqNjlomqaVEQ+aEdX0+AK72RhrKEjbdDZQjxmNm2CrhXqxS/5+LTjIN/u9zzxB+XeVZv9QPgjDMHW4xpnIQngujXcw2ASzoqyvFnwvdhih4VH9I7jDRUcgxjbWBkYZjk6lvl6js/Lzc+eLUsMJ11DgZxHDRlB5Wszk78/V2WlmI067AUdJ8492gB9rD8D6aXyvTxc+U4E3NcSto5dgEr+zx5ni9dhtMcxRfgoWkowfuVg8mF/3GBm8j9bQd4pEFKAjyPmgEzoefkoRdH5qziKSQo1A0pbpkasG0O7d8CrOFe2bl+ufS31srM/DwDCxgf545DSABnowc1ojUjzQCu4I7sZF6iD266kSU9rDv+0iHfIq+24eZK5zjimvUc+QizaDStts9UIZOKWR7cZZsmVpTQsP80wL398aulu321LLE/AO1BGWo34U8Jzr4PdwFeyfsrXUKCwyRKcDEJzcPA5oSXjV3WhTOb7fr6PvPQz5dTDz5TLnzrr8ry2acg+lHCY/xQTUeCWuEe/uYdEVVwJ0viipS1utUQppp67uYPFexOPB3uMpOJrZyuvv1TrOkvxpj4zL4gRx1HipNUMlLkl+aiOgrwSI4CbJEvxDhbOT1R5tnOae7s46U/c6LsO+SHFJlBis+Ql6EtGgDv9AnPc0QeWIed4KZWIiVZK18U8hB/yEEw7wjglkOY4ZHp18TaA0D2rx2u0KMStB3adAIUNKJQiVHJsWHsb6+WnY3rZfWT98ruxo1y9NgJ5uvfV2ZPnkOaL1JOGr7osAByreA1XafsZpnt0OBM/JkqqUd9VZrgEeHqe2Y6wrVr1HiMf+CuaXTcyAvwaaR0l1EUBr/LjTd+FOeAzR6m9l2TQFpkSQUrFEAi7lFElSuiP/Qj6VpjjkKQhI8myNFo4NMdo6JbAIm3i7prq9oBQYJ7m1Nr+hoS/Cp7N/UWT5YjZx8uT/wRK8uckz51EmmPDEb6TU05mSSZ0j5x9IuTJEkcGJAbqlqAB6aoZi3oWfHJEvrUBf/9FZYKIsHffoG+2Fulu3mdqau7ZX4WYKKep9UfANqfhOq+uQ8XIMgxyHXKpuP4AHkwf085cu6Zcvyh50r36HmmtB6PUYFZJNc8Z59wduy7fTQRjHCFMXKF2YAK1QjFk1CjMv3No6mt7fk3vUoZGUuAh/HR57AJhEdGX+vIukpDlyVOdgztC/rOUG8997vb20KjEeQ7qOUs2rh2qdz4+J3y6ftvlO316+Xs2fvL8fOPl+XzzzDKgAGyt0jjjphkpMHRhj4NRjAvjaBKu1xtU5f5JNnawGSjZ62SqXqE1PeRs+XQXNrweCbAGx9Yd/jtb7Dd0TXOj8q1V1l09NqPGEG5BvC3yjRoFtxWhHaXGKNHvbwL8EbxX+VKZVgnzmjzdMxzh9lsW0jvXZ6dk359bQ/AzJXpY2fL89/7D+X0w99CxbuHus8JLx2MV8EIcIEStgFc6ZJrwE0ESUDcVryn5i4BTsqcso8HKqULUJj84i4emx+9Uq6zZHDIaqIFLK2zqM3T8lxV/33LBslhL9V+2dAmxLHyHZh2g+G93rH7WUb6cDl28dkycxKQ95bJI+4uRGEIcIhhrktjEFY8Mr4fPA1bwkW5MMY4pVCehw/wBHefvnJ0d6KhJMURojJlk7fhiSmehA2K1UZVtbznnALW2LNVLUGZW4DhcrD2Cdv/vVsuv/da2du4xlDkVpmamSvHzj5U7kUb6x1/gElB1iOLc2wQ6fV2WEfvzL/YXFORRemjfa5VFE4VYfq2o0nxeDav3Hj6a5046qEgsbGwpGpyxtvdZXoqs9eGm++Wz17+QbnOLqqLU9b1fplGH7dbZrm1g4h1JjjeBXjQ9Z/4Y/3lvHTnoTPZRYDjuMmA+A1U9BVGM/ozx8q3vvdvyv2P07c9do7ZYk4kcVFHqupRYdSCFWnlK10GWG5Vo5XwMWFCd84AuGOoYWjDId7gGSAPXfiPmr7DmuArr/0Ay+o7ZZZpjPbDZxQTxCssbDAEuAmG9AvpAwfQR99D6q4yvLc/wy6rS/eUk488V47c92iZPno/qr5bK9M4DZyNh8GJxivGxsn0PswUApv7LkAKkJtOsBdXC3eIh5Lbobs+jR0yGEa2OaFMWqKg/yi1cHKEg7DkK8BjWEEiwAU2dOu4aSFzCgabl8s2O6GsAvBrH7+LRGRCCu/torUsHDtdjt/3SFl44HEavQtI8hMkh6qOlbszhZ2CZbYVTryT+QiQ13KPQd5ku7mENnrUDNtsJ8BtKINDoF3Wm+7CPiQ4XTJmN9EFf4X5Dz8q19Halhc7ZR71fIpBb2kjX0p2Jbj98Nq+1Nwc3kWeGhXAW48oWj5UUmQoHg5ny6ZGsUzu0H/NelhjAyRK8twnXTVdE80WDLHGstErN/bKRn+uPPX73yvnn/o91HTGmWfZPQWwxLJM9SgKbUU0DAhwZ1D1ALiMW3k2Kn4qGBo2gOkqFbn4LMhRNfdX2Fb5I/pkP2Db3FfKLsNmixhk5jWjEq9HSG+urVpgGSofJiIPKv876HfbSPIdDGtz95wrS3Qxjp1/CiPTvVhmj5P3Zd5YJII5VPyULBgHiDhgBzPl/OfYLOJ2AjxgK8Dzzznb6qYUJQ+zlOSFdoI8z30YH+eU3js3yO864GQzy+vvlu1P3yxXmBG4t3qZVXkMQwVFbBR71Otc2WFJ7enHni/Hzj1F94X+ODYVJfnQxg8NJ+fvkzDEFVBe48RJloyuQgBWeexRGyauBp0EeI98TgVIc8KLQEoJDsyp5+G1t8ve+z8un71Nt+yjN8vyUq/MsdJIgMubMU8DbTKMbKSW6UWih/rztQS4FJKI1lowD/1uVXX3PGMiG/1ZNn/Amv4ZAF/b6ZUzDz9TzmFNf+i5PypTc6eoV5ZmwhAaaJIpkubGKEdEKx1SSQUavqV25NtU0ScBjogKH311R8Xc+YydNVkrzuZ7Kx+8XOaRTvNYhd38ProBtCQaB43YtwPgxEH2I6YhnfIdxPE2lpr9sKyfLcfYY27+1EPs33aeTByjkQDkjOnbDw1jkxFVDsqpmEgfuiC3S4KbU+W304syaRiYVXBkCoC3jJAlPG24spvjG452qPqydh77RJfJQqg89HA+jW2GNz55vWzSKHZ319nIUnkZkKKueswX6NFY98rCvRfLEh+OOPrA02WKoc/O7Em0F9caLHCSBwlhow09IydJatw5QFvOJ6e/H4cAt7nJWjgIcEhNPXWcrcYpvLP7RuOwdx07y6tl7ZW/YckwQOebAfPMPZ/WLECZHR0gE0xVtfEmHuq8UiWTPcTfry3ApVG2lCnBg4kgpAtOtKQ7XLayxpAZNrAu2xQ/8OQ3y/N/+q8YcjkTLb8bLHRYstlls0PBZZWkWgUsqhoZaehO7YwBzt1IgsveHrxtTTpH3bXBN1AzL71ULr/x4zK1da3MoorOTyO5qprgZhX2yWXHtqXuAO3DMvTm1BOQ5HDbGt3TPiCfP3lfOXrh6XLkASTXFBqIkpyJMKqo2nQ1rKuGm+8hRivFaDcALvPCXDVdc/qbH0Ep0g24Ep3PlCMATvoiurqZrGWy+yAjRrNg3liR18Vu0R0w3Ze9xPc+fq1c++CVsn7lXRrDLXrV9GWRtDHmT2xhn0A72ArtZpYuy33lLF2u+dOP0d6dJw1n/iHFMUJaXmDFuwnympW8UEdOPx0KWo4Il7XAfdjzo571cfw6pphi+BPg6ldqan7hZkgjvn7pxXLlJ/8HxtTPygzdjJ5bZwtuzpjURFoDBI1sERuARIqH//P1BDiMY5vYVKG+gEE8ykxuS7wOOrSkrzKjbY1pq1sYpc48+FT59p/+CyQATHHkfsIiwZHiAtyKDglKZRhvDKEF38oQyQg+pmXVO856AT1Ra4aLr1xoKNqxL/42c9RfKpts37N/42OMMACa2s4Zc0qmZGCZWDfzENggnhjT52EISPcxrG2T11l2qVlUet37ILaEBzA03cs7AlxNhAURqLHknHIoh2Qqm4+UTrcH4Njs7ZpUSKiom75UkooqKSO7gy7B6TZilB2DpEOLe9ffQQK+WVY/fI1hxithvFLbmaYMsXuOpI0GAvsE7SprihigwtA4exR6XCjLDzxZls89jfEUSc50X5cFN6t36/cSQ9aVV/IQElyQ82c+tSF4TYBbK3moojtA1hHg0fHTmMow3t4mXS8acNZ+X/7F36KhrVO3ZIyGy5lrTmJSU5MKA1teDu9v19HKEfFnchYnyqpb8m+S4A4bJqMUVIJSV0JGQaDsBsa2DYxsbuG0JsA5b9AfP376Qnnm239UTrLTy5H7n6TqkOAOsyDFrVwBFt1kGEpAyI/SaZJAqTKme3Bw8EhQk3AwCdMXleIdJFOfb5jt0U+7ztDZBts6TTO+Ow0g3Bkmv3QhwDGIwVEyo4l5CRuAV0TBFDpfGt4oH9+Uml4+xddaMDTdc6HMYE3uYEDMhSn0yWF8ZA4MasbJvzu0Kp0Qn7cH4ICE/CvJpQVJUgRYWe0nCkOeIWiOeetso2aDsJeLdLBVrH/ISjxos/7pe2WGPvc8knKeBkAaDWm0HVIMtBC5WHGDjz1msu3TMO8zX3/+NIt0APn8PXyiik0si/aJmM5KTiQDqQVR45oOCXDu62Geza8ujpFEQ8u9d7GLD1tix1BoDIeyLz5bMd1454UA+A0+cLDU3S5HJD0SIqQ3ADddY6QYcUQ+8vbQf0mFOGsKrViRgXyY5N87B+AWKTiKQsBcTv6Qlq7a2oQxtmLIbFhWsaSvsk+615mFY+WeCw+Xh7/zV2zl9EdEACg0zNhvQ/oJclmwVXAPyiTZiN+Wv1aNrkk/09axvkN+BqwVH2ocwmjUYZXRcPcKzPCTsvbeS2Xr2kdszriFwQ0+lIk5ZalUBYnRchCfFlgbC41xXca5NQdpNNxEPd1FUs8evRcD+7myfAZJDsh7R9goovhtMyS5IHdgne2WQ6rfFoCTTFDbwms7aECHehTDkYegj8Hwi0IFoew6ABAk4N7q+2WbmX9+AWT3+qXoc9v4scdNmQMgSk+nIsucuRY8aaydZUjZ9qDDFqMJe4yIlMXT5fQz32O04VmKzKKimMqqPpE1aUMdyXuNB+Iij9apHpnbDEKt5Ft4BcCjjpTgNtzOXNso+3S5Pnrx79j//MXS5Vtkc0h3v02nnXPKOiP/Mc4v4CUIR/7G7aH/QJFxCt56mGCUj2xznyXV6Q6xoo8I5o2o4Ey4UBUQ1n64oFhHcq8D8E1mtsk+HT689tDvfq9c+MYfl0VUvCm2TMr9yJnbbMsvSImSKKjqkEcmwMkvBFNpk3qNfpWGEcLGQZWVrSgAOL1orMOdwfWyw0KE7cuvl42PMcbcuIwqeiP2yp5icLTL7C0BHnOVTdgjUMIV6RV5MV5Ol5Y6861M57TN2SMny9TymQB4b/40ZeF5/jijBGgmMxqc2DiC/rlSPPlsRDXcJo+b3W9+NmzSYPItaW4XKSgPEJxmY4PlqELC0Vzjtq9au80UXT7Ot7XC2PZn7JHwPsB+DxX9EhNbbjDTCzpQyphvT7mlqwAngmBQ09VNwAjOfRrkLQxu29gg9tBiTj31p6jq38yvxKCmG5PxtXwkjxiLyrInQI5iZiPQwD7AsCnkPaR6L0ZIADhamfue76x+VDYvv4Nt5R+p13eY57DKMOg+JwA3VvKXE5mginxpBZJOrgsw1sM/vnYAH7Ef9JN4yXwV4LhpDomNH+jICuxNjG279MndVvkGz2ce+1Y59/QflPsw0iwy/TGtr0g+VFrVYutEK7eWT0Euk5hOsrLVmAww6uMFk8vasgR/tvpUeJdNGHtY1Tu7n7IBzCX2bXsDdfTdsv7xezEENEXfzoZgSpU9kUzMpMkSNJkvIKNtgRR7zFYja5E3563H8BjM2GV+dnfxFJrpOZibyTFM6pk6coI1GRrikG7sDMMNsRJhopzYJJqnh9csTzwe8NPF1NsxeQ9VAGCsd/b1ALiWZgxQzAlwOW1HYx9dluHOGt0VFmWsXQUgjHPf+Iil9B+VITuPziD9esw5iA83Cg6zSX5UbaO7VLOmRPQ2pvMTQiMk1QnAZ8vu9HJZfuSfMfvvWwhz+uN8qVWAW5N5TmgRziEVigFk862UtZshnT2xxzjcp5fvO31WcMfKwRvYCn7BJCYWFdGtYBP0cnSWScRU3rT1DT0yu5W2kMvh26Cw1rfbdHztAC6dKgmTZPGQxbSfphyhG86+6bkRxBa7Me5w+gVSZ7jtM9Vx4dTF8tx3/3m55yIzo5bvp85TXZdxKtZC5UqFzWSSuYcySJqEMw84y5QBSK7YWAG6TGMeHcDCWsyWPh0MSvtsrbx3/aOyy2qzFQxvOzcuodoxORVJ7ky34Gjj49bTw3nP/im57I569bNNAiDUTOwHA0C855bLlmF6sSyduo8++vkye/oRhPgJQM66ciRetBDBgibGqRs5DIYP90xZmWYOUjr7VF0iU9Kh0sLdVviMbpf8O5TEdht4MYrgd7qYbjrYvJagvvFZ2V7lfmMVvKPVsJa6y6hCD2u0c/tjlnfQMZohCp3lCwOV620puHnxMAsDnh2c26A/1p9hYwwnBD3xp7H9dGfxAtXDuDix5uzxBHksZokoiA8AW4/WUaoFEDMaKAMgwalfssChNsJQ3u4KLclnLAv9uFx5+yd8Sfsf+NCFknunLDAyMkVLrzofdOFivG1yS2ghRhWJeXP4h/xBAhlx5Ls+0uh4yJveRSge7oiJLma8FokbimghKEGAkwrap4bim2UMl+2wemubcwvDm33zaywj7SPdvvGdP2Ol2e+X5QvPhaHKBQyqflRrVLCr/ehORToyeRx1KKg96mbdBcDhHSdx+H4AUgngybzlLn23odNZGVJRel2lT77OfPUpPoEU85cxQMX0WN5Xc5BhiBawUDaS9j6GWrgJ0Ed2yBVhNQztMI63Rx99H8adP3YPn0O6v0yffRT1/d4yhXFuaga1ftqprTmt0/F/JXuczulWPTBVG69RiU07AR4aSRS6Nn+4p8QD3H6vDdAOWGjR311lI0rAjXTeX7tCX/uzsruGtZxuyWAXyY60ngJM0V8lhl6Aw5TrYXrGbQNmUkg+R0dQZGiPoAuAp41GemOXoKwzx2nMzjzEEOLvsxDlCer1NBpUGk0FeII84wxCWrYAuLqZ8UtcaC8P8ReTdciNGlwOpbGpFivEBqtqYAzlsST4GvMblmbYOgRwz8IksSLO93lHOtlMab8x6mBILlFdpncbDvOddcalJWThyItHYMMr5x3TBzfjUWFRkMy8BYhppZTIZd2uEd8F4Nusx3QKay5GYacX5qhv9WfK2QefYMfVPywPffuvYB6sr7T8fRag7PG+787CTNMwWE3CBOGFlODWZTvEhkQU2Epw+16xyIDnACoAYNyMeOiLAoAhqp3TWbcuv8FY+YtIu2vIDY1zMCRcMYc4FwD2zUOKEV8YrswIRxhw8Is8pFiHj5BqMP2+Ug3g9pHkg+V7w+o+t3yyLB49UWaXUOfnkXj04ZXq+aFDwB0AV5JTEAf8W4mb1AlGoXRhMJu4qhSQ1wHqd3/9WtlZQf1WBV+7zBZGbCOM+2CHWWr0wVXDVa8tl9qqIDDrLrKJYlGYsLjToOFNAAMquRPcu6i6U7MYGBdmyzVsKuu71BFrw08yN/3Mk7/L2pOHmdh3H3P2j0ML6ohD7Uv6O7RZeZ0y6EMKVQ3XI8AtyKG/GyzavNrNsrvBgCvfnqNsNMZXf/F96uxNynapLDBAPgfppihUfGGU0K0fb+Peg46OjkR6lVfkkdtx/HYBnOqxDVXK9VFl/X6ZK85ynnpK8Osa3mCQKVaaOX31G3/4L8v0wj30Z1lrPHcEdsBKS+VMY40Oo0nEmGyfrb8MMlFV9dH6tA8uo3RhThlVBkN05WnnQbAjzfubn6L1vc3HC3/EHl7MaWbxgtJAVb1L62Sf1FOrbJscEyoz5RIRMSRnAjBTMg5lNqkAuRII6/ssqjmSu8s5heGtN8c5u4gxjnXnnN73pp3sI9iV4jC3XzgNdb5xI+zDFFwyyEn/2mWdgNVvpe/sbGPjQDPZZVcTVO/+puP/nMxCK1jKWfPJOxgchRxAmlYCm3dBzNUUQko3+lIWwSHolKBazDMUIIcOquU0FWXXCUrzNFqnHypHGCZbuuchZrNhS2EcvM+01dBGIn6bPU/jqUfcWmFBvHSkUU2QSECcuAjaAbu1+AUbFvjztdCXy4c/+/tYazBX1rD0sxKOdmSqqXjGYCvCOZLgyRAt5VpPo8dDu8m8S02OKB9XH80Ph/zhneedK8HJfQC7FYZnQa6aLsh3ALkrzWJsHB1vzc8Ns4vKmYtPlW/8wV+Wo3yscIG1xj1APqRPq6rbQzTLcNlkSB7SCMaQQSbYRl4JP/OQQ0YycLIQ5HcyiKBQxmO0sQc5RJ3dhXFWX2fOOh+K30RtX2Kqo5+a7e8Cpn0bgwFSgr29FHnErDS3TKqq9h0UQgrcyBk/KQthaTFIUvwnULjaWXAaZ3ea1XXzi8zmO8IV1Z0GjfFD/NLI2GXVFmIp+IPXOMh/VcFd0ln2idyT8myur5Yb166RiM8Y1dwiOJpHRwfoWwezq5WQ3TgzhwPKZYnIOsWs7Cm9aFAdYpIho4tFnQXgKf+ACDZYMnej7nxzhKmqpy4+X2YWzxA5IyExyYVdc5XetZHInXey3izJ+CD1qEddSMyMcJiTITYFmpPssXTWoeO1ssvniFZYTPL+Sz9iv721cmwe1ZwGwI8KqqkJJFNpAI8VZFWCh5Zl3RAsG+JI6lB/KgUzzlZcy3SnAzwgJuGoEgkZRKZc0WL5jGPs9FJBvsGnhR0T3wW49uGursOESPFj9z9cnv4Oi1EeZzmp0x27bCjA6qTsj8GUEiuOWpHBEcmik/TMIDBHqLKt+Y7cVWLrlhZbrcsDjG47n7zC525eKtf5njSDPlhj3QUmDU9+40xlM1KK8mQZBUEHXVeAK+WivyjwCSuEYkYZSY1VeRoGXO2+xBWgD5HYngOn6TpuHEOENGozLEMFaFHk+KHMju0D4mFI8WrxVp0F0MM9tg5WYzFmwgeQ1fZlLtzVZqJvGpxOWQyjN9cafdQfTtQb+dOR+rEOs/Gy68HUY0YOdrCR7LHK7syj32T/uqeZD/AgjR1GxCKwnQPAaAGNQcSLim0eQv3GJ1MLn3jKHymrT3Uny7FbKvXXdQsWp9EyAvIps9VWsJxvXf6ASTg7ZRlTRoCb16JuIh3zTwTVLabJUoCRkS2TymQP+fdrCvBk6MYpAXB5CuIlwLPYquluiRQS3I8TAvI+CxfsEV9Z3WXyCP1VvhH2/B/+d+Wxb3y3zLN4weWkrhnvOq8ZMIwYACY2VtOwahO6yRz+xinjy9QwPz848hytPL4yAuGMxTnNmJhZm3KprCshPnih7NB31fo8g+U2lpgqIWBuLoGXeM2UjY/T3VtiFh+FD0YyCUAii8trobMHsAS26SKbcFdGOZ7uHnPeB/ABlSapAAhxC0B/SAWAUg5UAq+Wzam1NjztjKWpBq/5kuujDuJdy5qnUcrnAQrDWyB+/Y8nAc6d+fQaeQOwKvlb2D46y6dZXXehnATci6ceQS0/QzpoIEOmp2JgNI6Y1x/xxmPmg3grt7QUCVnT5s6/OMymmzy6CIZ13QP2vN/l01Tv/+N/YaLSi7loiBGDeQpulyMaKl8MYvMu9RFl9AdwxwccrBvDmL3bdGQK4zJEMj62fHFvHqLEVMxX34peMx5FCk4k81aOp6XD36vPAlw1cAtwO2yGIIBhlODDcoWVHNcZF1/F8alvfKc8+ux3YlOIGTaF2N+bCfW1R/9VM40xy3bKwoibpwR4JMgTf3gEmyF5s68qwGHTpqOSV5nWKR1KeTff7/EJpD4fMdy98ovyGYstNlhJ1dlbjZVUCzIS0Wts6yihTZjDcpkJS1mLH4wcngQS9Aaxv5XVzjWYXL6jFHhGSSIO4hGY+nNxEYz+Ea/OEamxUTbiNkZtAo4wuBDDvEWrYZq42y1wwCwbDR4IZ3jPGB3ISolCGHfEjF9TxU1BrcQpqX6OaoDlf0AXYjB/jIksT5R7kN6dKVYDopIP2Qq7LbbR8h7j0NK1EUpNgBppa+ZNK9ILV5sRc+CvVw48h36WinH8LtNPt/mYwfr1N8p7P/zPZeejV8t9iG773rFOnLCB2Xg1Yw1rOtFEWVL9yAQJE9I9Ejn8n1rbGXFmJSuu0iEb25qVOwrgQdyJyrGCKGYjpvdhbFOC0+8OdZ3KdJbbJv27FRej0C9nFitDS/eWe+9/rPzOt/+iHGNn0x7bJnWxRGuAyrZamgkLVewkqSxSIW2i0WKHEDMfrSMMnKPPjCRy21+VbxaOmksAyJ2fQGKobLj5QXw8fuvqe2WbD8f32Y9suL0Rk2CcWzVDxCrOSvOQ1hYOd6U5+CBunz1aDgUkjoaPsHgFkPJq1lWdBbPbHXk1nHFFsbi0a6jYPnOkt2AV3GoYOBq/75MXAe420a7+kseNVI1Cs4FZtEEI3cfEOEJiQ7u4hhbhUB+NBC/v0AeZZtLO7Imz7FH3CCvqzpd5JvMMOi71ZdSDuejxPXUok5tcoIOoQZkZ0w46J8gDb7iZql7ZPBtmBO9wtzsC4XHfKBsr75QVvjd29aX/t/TZqefepSk0K96IMmU8GWNEk4DPW5xrYiTo7ah15vawj685wCWXxKTKJCY/qkpRW/gIBuwmSGT741wJt8VNLEiJK8a2WH3GtumMGX/z23yN9LFvxoYC0Ren3we8gvFlioSPQFeWJ/OoFEctwkUBQrOjlUvDmqq4nA3z+3XQffq6CXCckDY91op3h256AKCxrO/d+JBP37xdNq58COA/gdPZrojGYg4tAPt2sKxolMksJG0GqrG3mbvo81beCk+CKdFlY8Fr2LZ0MQFOOYjP0yhzmaNxGWf8Jl19njhMUoArNfMwcgAuyLkNwJKmdGrV0VR5JbmRmp7SVa2Gdjam4qpdDV3dx1DeEAv/wilW0J1+kL3YnmJ2Hts0DRnKpL89cJMHJ7Rg8TcHQUvArcWe2Dn8tSHNOhJk0eBUHy413E1XRwzi++/rZe3q6+Ua6/o33vph6V57rxyfQ3PhLcmSaRjL+IGiN5JZMD3Jr1fDmMvbc0jjUY5aMibb6o97nSMU+bnDVHSJZglgJkoQ0qbVgM7BvJaOIRZAvkkffJeA9LRiwsQqM9yub9AXZ2/yAXuQHz91oTz87HfL01jWXXPNvE+ipy8OI0qz+JQN7wpvZVNKd9kdf/IwUotR05FjvADAa36cBtuPiTQOReFNHD3UwZgGycwoN9HvYKXtM2tq8zJTWj96C6BfAvg3MO4w2414YP0Elq9zhDpobgIwSmLAbNycAi34C4ew7MYb/AhKT/4jKJxp3zteREUPQrawEZnxEdLAHJY+bn1fotcj5mCHf6Y78ol0bJRaFMQAaURcZ8bJqljIqZt1RP82oJxZPl4WT54pR1lQM3fiYkzB7bE9U2eKPe3RqJwvHuZHLP/R1eA3jHzSM/Ji7igP4fJaG6zw40fvWpZwMl88h5MAd2EJ887Xrr5Rrn/0Qtl778cA/F1WjWVtk+ukMSETXMaXDVnGVxMYESD9w+82/GQeaoFampGFfJAHvPO8M4bJ5BQzG7/1BgDLawlw/Co3hUQPnmViBLrfNnPSrUJ3fomNIZDia7ito8JvsZlhHwlx7rHnyjNY1ZcZilElZNAVPqHtBqCp/qcEl80FObKMU4DLVNxyJuMjTWK2g2CHZzwBuMwZwOOOXKHaO16MpGZX0U7Hoag1ZoB9UrZZiLHJtNbd6x8z/nqNriENAF/UEOS5O0zoDpGLKHcSIMpOVkOaZuWaU8N6SiT+zQzhJZPg5yV8dU9/bnGrP171VwvB2wgi//GAQw0XF705Ipg3OI4agfqunqHgEIlLP3c8KZXGzrJ4DFX8DAC/rxxx2HLxLItnWCHmPnR+OJLlveYlgGt98EezRjK2GFkb4RelBeBBgMmcZZ4i/9x6WIyIkZ9B9MH50AJTbrdW3mZvuBfL9ls/KB1Wvi0GwKUTAWuUyQ/SF6dWaCJPOiVNI5GRZzwd6s/XFuDBoMGc0CsATlGtLKkNgwtyGVZm1timUOUSk1h2kFTu+qI016q+srFXVhhCW1ndL8eYx33x8W+UB7/5J+VePpwQO4Ww4UIHiRGMQfwpwQW4iYVizh1yRKFNOlHhMkRYoax5paysKFPCeBGHsaiUNtXSDQYFO8sSUROZ78lH5T9ieIbvXn3wOgx3OaZ8uqQypDlldKw5+reUg8c4w9hj2ZllFRJuQlqrHps3iRRg1k+iVMDblQgCmuV2RGH4EeD5NtcawHRMmINbi8k5ftmGRrdIU3f/SUs62M++sYN67tZZC0fZ3poNHM5eZEOOc/S976Fd5YORLIMdDJcYKqOBpU/uEKAbKqTmYqbzcOuoVidSIZszGl4qbKRVma0oSziblciqJNBZW2ifKbeu6e+xUGhv7YOy+RnbMr36f5UBXy85guHBmo7QXAS3Z3UZlT+KWVuQBvEQOLx5O46sC3PBYaE8IlP5YFairDrzcMeo6AdKUwkahYsC1lqbZCqcEuBjK+0OtcsUdYbPkOIa3TYworFoY5otnh7/1h+X80yDXL73IeaB5HrrmOlFg5AyvOUgpbdMJSUl5qjS7YAGepIZY6KMA9i6yiD4aWLqOpymQU79Igw9WnMZK99hbjdTWXfXWbDBQpVt1pRvr17h+VpMBZ0hjlnaiwXAHLPgTC45LECQtzVTeAUWR5kzbD1bxnkMN68cegeYbBCi5Qzn+Mmkkslb/9aCG/0oDgKRxRHzp6/bUTGSYUMHiHtMqXXu/Nyp+5lbfpZZhWxHxSKSEp9tYsotGpR7zzm2zBvEL2hNA5pGWcwbNYJjUjkLaHMQdxHW8Dzx7yXZRV/ILZHIcDSMMSkJTYoGtr/OwqCVN8u1F/93vm/wclkm8ZxV2OLJskck/ERVW1ZjIwFjzdx6bU2j94d7/BYAHII1MTKinZQeE7XyPJWpBE+Dmx8sbMtKnau+qapOH32dWW6bqOvnHn+uXHjyW+Xi09/BAHeG2l2mH5jqOj3rOGR+4xbc/rUjWCe4UD/ZLlnPfHb8sgouwWh5NwI4nhkWRouP7qG8OmyjRE+1/cOyhpV98+qlAHwXI9w0w23zcJdSPQBA5DJbDK0RWzIcN95HxrwxgMAIZ34iR3GJbPOoSxwRzoCjwOEc/vzkvueEb0FMRE/OpvLHmHDQJ3vLe8wW7NNozqEtzZ86hzHtHIrSqVj91nGJK6q4xs19NCe3rLL3q/SMTRAhUZApCR/lMGobmWw0zanSNnMcXYSWH3NueUYtHe8EwI20akHS3tl7GD33V9kC+4X/tex8/GI5iukkm+aMOBqUIFY+59ZbRiO4ky8yB8mHB6lnRg7n+C0FOMSD+JKan2jsA+Q4u9ySD3zGWKvjreA6prE6lXUTo5tLSrG7xY6mp5jl9t3v/XU5xueEekyCGWLo4ZOCqIxEiyTvMetrgF4eDMVzTS7SzupTMid3WfFyVk7KMH8ZIl8S2JULIxKrTbewMVMU54Gz3JJdSGPZKR9V2AXoa1jbN6+x3px54G6aMIsa7ddCtPbmvt4pdUJVHqVnUsTOGcwRV9xkcME5zljmKPzz5XGTSSjCRgOHVwCGa86Wi+izSxTFygDK3z7ai6ve5pHWi2cu8nmmR9hAkU0rWNce6/LdJ0+jplNnAfYeNgsnwOIQ4IpNEKV9I5d5Nc+ZBN0taRiPvJH1H/QP0iYUAuC1nDq712vQnnI6PVm6xYQXjJ39tffL5Z/9z0xXZd/zabtSvOE/tGqn6Zl+A7gt3YhOJpDeE1RNt8P6zVKRAY+aXiRWG59gu+p156roUbhaSO/jgMy1kD5adurQKd7RJ3fYzDMmVYBYF6S4dtxlpX44YYXNGqeWTpRHn/4mi1J+v5x97DsM3fBJXz+b0+SDTE688osqoalELuKnUbu6BaWp/Jh1RdA4CBNhfajhec5K048GwvnrSOmw7jqEw+SYwc51QH2tbKGuq7Lvsd56wHrrIUAvfAmkw9lleC2Gj8hWLH4B/AIyutmmJnAliNf6HHzPfZaBvHpjkLyEj/ceetkgRD+fe7Uju0BqNzFLziEshgW7fBW0wxz4Lqu/ehjSptg6a/4Em1OwieQU4O7OMpc8jGdKakcYOJ1OG+BO/cfUpK4AV1SnRiChOM1IZCa84j4hJt19gdMLP3HxrhbUZy0jLUysPwgmQYqzisyNOj796f9Udi79pCxNsSKOGFqcAhwC8y4H6R8EuDEmb5hoy2IGPtzfLJUpcNTsZIL5cAcDPMt04Dc4srnUypigrnUXxrYAeQJcaa7RbYcb1407g0qV3WWlmyxw6LLy6snv/GX51p//eww/qOoz9BExDDkHXMNZD4lp30xVsFV+IL5lo10Vc+Rv6PhVHNa8zOWz7JvHZBH8qkbMhnPb3hjCYYDPzxYzuGSf3f3fhqw3H7Dueufqxwyvqbqz2SPfKB+yqsvJNGHEA9WxhNW8klTkN5JLkKcxUlZJppD/bQzMlmyqa/rq4Yu46Ej21ASkqVpNnBTAdfXDKeYPzLB6bfEo5zGMOwD72Jly7PRF7k/hd4y46PKgEUXXBVA7WhFj26RNdDUkfIm7AAA0o0lEQVRNbjikUHY9yEDQUpfITJKbR2kXLvGTuY5MGgH5bLTVJw/1pFGpaaStR3yYPDFkhV9/85PyyU/+x7L14T+UBeahxzClaRjIupkAeNY/75JIS3nkjVtkqaZ6mJfMfY29FczHKtwsc8vPHSbBb0GmVoPVK0gdldHCwjjUywjkMqWSHAcl+S4T15237nfO/ELpGuq6IL//id8tj3/nL8oJPmA4f+wcTKGkYX506L7c8ie7jUgZ9A4q14SlcuVA0sx6oEFgbnPqtyiUtXJGdRSvEwZGir28AatLN2X9/LIpH15kWeaAD853dgE5Z59zf+USe55hIFr/pOzxfe19+un7O7tYiNnNNFZLpeXd9dkhzWV8E+eMiS5KekviD0cAGL/oq+qX6KehAgfQyU88ddkIscdaelej9Ti7LEW1YezOH6VrgyGNs8v+d1OAfJoVe66/j4lEfl9NbQjaZLwq1kKS0Q26Pm2mnhSWvlGVwbFmTnpy8Qha8VPznI66GyBj1K1BOe/z17Ty0IpC+XykwR+yVmCwfbl88tP/VDbe/1GZZVTDT1BpzJSvsvElcKSZcWTy/NYofR6xXyNoTe2wLr/VAJfSIzU9qE/VCHAqIE7uVdlD8nCzB9p343RcnFVMWNddP75w74Vy6uFn+XjCd8uJ+x8PS2/PFWeok6TANVhjXGeCwJq3UuOexwZw3ghARc2DEtmKvmnMeiJfYq1mNV91txcmurTdSyu+IsyAzQwHjI2rjsfySMOt801tzl2+Wb7LhoZ7Oxto7RjpWL+9z+YLzrALqQ6zxvgxQIqZd86sI/JGr+hjmu2gFXTDL77X5mozQD3EWDig8fMrrT2k9fQsHyRgzflUnKw3F+BscinIPTuORGAZZ84gZeG7alxV4bP8tcyRno0JeeJMgJOn+JsMU+lL+KAV1zgarduz1wpyisGRv3nXXCrsqSun92qtd9no0F14+F7a5Rf/l7L+3g9Lh406ZtGa3PVV+oWOUdE7ajhqxelsg9SOzMKBnDav3/j69QN4kKRWVKXZqNriZkxIW9o4qpP1L8Mm07YrVYX0doO8fZAea5EFO9jbRFW/waaNG6xm2mXo5vxT32Gzxm+WMw89A0M7dAaTYhDqhDTXxmq1epog1wpwG4F0Mz+eFbQa0WJ813FewtC/NG/tiN1CAuDKmXbia1gajMZEsYKN/DtV1UkzMZ8alTKswWzUMNi1IeB0E0RXTDGhY0i4Pm59dzz1dPdT59Armkktc1obL1RnQdyb5pyajZV2PcDawx7RwRjmxyM6+Hfx73j6zKmxTP+cDZiGM0Hdxw6hwQ1P/qVNUs1E0+pNOSCEffyqJAX5gjSgZQSoeNN39M54IiDuSXNuqnM+RwwRtpUwykpaNrp+LCIA7oQGvrCiYXPl9f/MarIfsovq+3zBZLsskG3nvIeuYdyBXmu0HrgFF5hUy5L31tltOLIcNe4sXqZb8xWsYvKcd4aKPiJSluYA3VoBG2V5bhKpOfm6wQJI3FjxbT52rD4D7II8LOyooC5MWXeaK2O3naUzMaRz8tyj5cwDj5V7+aQtcyth6vyIQkqkSaCbms1MrQD7bSOgat7RBxWXcd5gUPPrK/UINVDWUU33T0YMQBAKgCRT+0b6WShyz7Nj6p5IQSW06j3gjc0n2j1DQa5/7gt41nv7RdWU5KZnBjLfbtgYDRh95FDHXULrPctpu0wdjdFpwzjdVekee7JzH8iU1Rs9UloHvWmcYlCqFdbKsFI4otsQd4YkQAujG/eWcBQ4PBu0M2BGY6gaYcRVX54IH/VPGMkZdMWhKulJBya7DFgTvvXB3wTAr733apmlUXTCizvhWoJR1rixZuVF3WrpRimblYnQY/dDuMty1py0Ivt4pwO8lSVoVAsT981jEvm1/A0bkjsqOMIqNZGP1JCnyxVdeebyUvcCi2mtSHbHyT+6vhP7uc2xseHjv/P75Ynn/pCNB+7DMnwSkLNRBNLKzROC6aOaswZNPltS2QAgJTtwTQAYPuoE33bNNx0mC9Yhj0poGVLJx3uARGt1MM5E+WJBDGFj7TaRpKShoEEj4sIv2NFJHTHenvHzwH8lnoQaAdQ8ZnoGiTD6o6YHmMOtZiDQWe+jJBFr/AhD8xpl0K+J5qC9eeAg3nG/O51u/s0c+ms6ebaGrvk1bSdTN9UWtpWF5wwcDYogya2ZM2Qu2kGCs2XT/pUf8pGDH5dLr/ykzLEb7DE64bHVtaVp2SAnrqDzyAYKPz1rGl7Nxe04fjsALgUb/UZEbQ5J1uRZ3TJAECZuZTpcOXNKq+o6MOQ5JTn9cazr7gjjvuqr7Oe2ud9jWelFNm58sjzkZ4n5+ucUEzXobBK7hqPc2TOiN0WT5RR8Y4BzG3ZbgMK1hdU1g8sSta+nbwO4YAMcMSuOQgXjVOYyjhjXJaxNRvjWwlneGqzSKkNHwSdTN7NmwMMGRNtBxBVNhYXIeMR8lClCZph4zx/jziMZMGMIF98fe3IXOauO5Nk4BT1l6Ib2MApdY21x6z55jiPNBrQ2ZPFWhrP3nLaQcVlUPIJENOp2FwKYoTElwPvXf86XYv+xfPjiD/ne+2o5xljdSII3WpCPKCfJNBrr0o64CyZoLod3TfpaPo6WZBQ3H1od+XRHqeitLFGwVjIL1jwmCDoius3rOAAVOyaMlRyTP+ALDXDUdwDcTRAawF31pGX9Ov1yv5Iyxzry8488B9CfLvecf4J9zk7SD6VvzvCPs6+MQzDGQg0YyTnTzj83D6bcUzWXiVPOjnKGF5UhwyXAg1l4Tij4pi5eiTQKlwxrctEPxzfmnaeDrnr4Ggc/cc3b8NPZw/DtiHsCBo18IV8y3QRB5qcFy9dsVIxG1zzDPz3DL0KYF/35j1gtQ5SjpoF/SFS1BMuYoSPGjLcGrzFGgBYoukHGL8BrOhHAuEVzPXXTW+caPJQKJG82EKwLYFXZYO0NPiL5Qvno59/nS7GfsUHUdplhjYFNcpDUrBuNPx4h1vP2wG/jtQOOv/lD0rombjk8IkP5YLLeed5RALccBw+KYMFuQcgR8SdfiLAETzqMfXjWyZ1glOAymlsubzGEts4EmI3ol6OyO5/aLZ/4xtmZ80+Wb7HE9Ajz1mf4nJAfBHT+tPsTdtl+s8OXSXJDhD0g7tRTWY31xYTpBcBVuzMLpm2eUh0XThp/dM1+eIYyuC94CgDPlBmtPOmC8+iImEdPeXOTW3s5PFv8NWOmZXCP6tUs7ek4/m0A95opZHOUr5HPLCCgEL42GDXCyTRG9Wj4hKsNr0E9lbyjo+Y7yBQ/meo4wxly1CiaZuX8VuSWhchzdF/Y2IuJRYPNS3x26mWs6X9fhjfeL9N712KDTKo0ZkVGXqwj8mMpzKx2kjjjGXfznVk49N+kcI3dYnv4GHQgO9w3atzhAI+i3fInKu+WPlEfn/eBIqrr9seV6rtI8W2Gz/xwwiannyjeBLyuI9/us4aZzwedYmfWewH6veceZ5dWgM7ngxwvdx14GMbYrVRi557bMARpTKNIdzU44RHagzkhs8H4kWkCRUWlNEoIZ/35618+KcG9H5cnn8Jp4qeGssbjGN3c4nkyBu7NTwTPdyyLeUsGq6+PYjHM2Ke+Eb7ZB88GLuBtPBHZ5DVeDzqYbsZWy1azEuSJGA2bIYzKdNtzJUm45k9qOkE70+RsAA9/QKr01uDIkhgaH0Ydti7zCejXyxX2Rd/na7G97U/K0jzTgTG2KQB8w1hz1xrTNtoEuLXmc0zQiQQO/+cuwKHpAWa4icYHKnjCL41uAtwZb06EYaZbAN1prUp0LOu7rit3lxg2LdjuldPnHisPPPxMeeCJ58tRPlc8t3gihoOwZTPPkiEjZ2shsRvrI79jQlQa95TQHIgCd071G+V5EJr+qGVIBs5rgrsGMX58W7yWKSRUe6EFq9ds3CO1m3xu/Zj4y8h8N6ZpxqNxmOrNcY1dxj7ZWKoR5ew/ZbeIMqKINC9mIaONrk2ozbpxRF0JHu4n6zQ0AlwTvsZlCAPVaz7oEGe8X20LkHZ0DEBiAJyRBndhnwLkA1bzbfHhg89e+UHZ/ex1dnP6sCxXgGuAtSsl9d2GImqM+ALgdAc1gprZcfM7SurQbpLSURmRVkQcxcyy1ywkzXj46i8X/TVIM8kMN7/eeGHSXTdlnVenpNpS78OYCXQWqCDBt1HXlejMhQmgr23S8jNsNAWozz74eDn38FPl4mPPhvEtJnmE4c2JMZz2y2Vv4s682eJnDppq154Fak6kGfNrDTqZ5eqZ1Z1V+8Vsdcv3a2y38sv4bkoOhk7FWSY/6NceoyEIr3QRiDZmNl7jPeNailyDLhk2G7CaRgtinUzAxfrJQzr6oM1i8qqvz0bQGpNKlyAwoQOQGWTgRCEModpJesz/94sz7LjBp45Zk//mj8vWJ6+W/evvBsDZYTptLPCG9WjNxtRUJQLls45j9l+mzO/tOe4CHLr+WgDnpTBxUXmx/zgV53h5WNYBeGzFDMAdLw/VHePbGqDf4bO2c8unyj33X8QA91Q5zoaBy34McM5thxhKcw/vGEoD5PJdnLJlVpWOodIHP+ApwD39w+9mMMX75DQYuY2Xx5NLI0KmREyTPyZ5q+OL3IVIO8ZhpA6tG55jtxYqr7VE1bE+Bd6ygUuA+jZnJUZc4g0C2he2bFFowwnOBKgNsGn7boJbF4cVw5FrpYlBeGoAT5pIF0Ia1GSMinPAwp5mCO0ixaed88/int3rH5SVd39aNi69xA64b5Yj7L44C8BdPWeL1YEHpoks9/cgQtUO/MS6x7hM+XyYv0lVy8dR04viVkaJslWvu33woBJ0glB+xbIB3MUYSp5w58cZb+2LKS5UiTXmUNLNHFed3spCFT+esHD8ZHmUNeUPPvY8U1wfi756wSjnUsgAebT01ouNiOPcsCGrQXJyyRgEfdLQGNekXmSz1mnUaliOEwiqmNZzzJcPgI8C1tJ98cWQnr7f3vL+5iP9JIh9Vf++4Lj5ZQPC7bG4BT8hGdqJCDiAAili/NBR0AazCkq7N0I45wBEylXq19oa5SWB3jJA/NRPNApBExuJ8eF9ABwTqF+SZyYEodyRnZN98vbYWWcNcK+9/0LZ+uiVsuSHB2NrWcuSAJ8B5KGRGW2URYBnKrFn/Di5Q727C/AvIWcwZvyMA9U6SYDjJ7Bj11GucoUqnc979MkFeVuootruBhIa4DaQ5NtY2XeRAUvHTrOZ47ly9iL7ep99uJy85yL4ZscSVlrxDSEQXWd4RcIVLLXZzT4qaconMI2TQCITXoKJgjW5z2tWdvvNePEk8M3HrdxuHTLfNP6bD91sAtMvc97i5XqrV2oUlsczcSDIW565RmHz2ZV0RmSs+WuK7TDFnHumiyTI1BsNW7jwjYeIw6yZ8E3587EfKrpag5qAc/ZV1TfZRetT+uGv8Qmjf2Be+s/KUo9dAcKcQunNL0wyw6iLO83miECmGX4kpdtNyUV+DuMnKZUlHyXiY/CEZc2imv7XVoJ/GSGDyW4KIDEc1pKZ4tNA8lkAPKllxTk+vs80UKV3WNmZt+7kGEe53QrKjSNWGS9XZe+yUcS9Zy+U+7Cw33/hyRg/nz7Kp32Puv+6SyadqorEVsqYOGnZkPjML/+e3IbmR4DgZh0ip1y9y3t/R4F9IV4Mx/rje56fP5qrcYzvx2kcfCNTMmUhVWFVg9Q0WpDJF3GzjOa3arL4+qQGgx0jCIBTRNHYNwHiU7pkmuo4QhzHmoNa3uDqVoIaV6SS922LqdYomE1P+9+5c27UPDFrHmXCC5s/7F5/u1x/44fxwcjF7m58R67jFyDML/U9rZbFvXkaHUYa5bgL8BFN/mvffBHA0Yej9QvV2foWcNZWBWEsTqHltgHQ+GafHPaIr6fYJ9/Byh7bQrEd8A5W9l2G0+bYb+zY8dPl9MXHyj1I9BMPP11mllg+qcqOSQe9nhM1VAtv/RxPGJ6CZ+CWaJXrtd3zpuzuIT+1IwGX7s0tr7rdyv1gqM8/GfvBFCr31qDjOEd3E8FHuMXTe4Ea7VYtRwK8lqS62dkwCmHcosoOSALcMgagqBMbw5jGa9kM3F4YZSYiSudJtxrWPGlkc3836WzzLsAdLmP9Lbu7fFCuv/79cu21vy9z7Gc/RX+9O2PqaDG8PIXmFgBvDBUFrgnh1rJTiXVol0ahiLAlYrJBQ8jAfS1i0OhraUX/Mmq2+pgMI0GULvJKU89DouJQWTCA3cbJBbsgV9A7dLLFvHXXlDuf3W92e93YdMmnH/ebK0dOneWjhw+WM089V07c91BZZptg9yGLvjmTZ9Imq4pd9xAhQ+azG2barMVmWLL60mVckbxITv1rd3ETP5n/9EnXyftxuPHdrWMP4kQKn39fl/ZWu2nP6UeeJajgqIyYEDAUp5IcmkbJKHizSUiEcCVIW6IrxCMNODlsFGa8JeZ9PJDqRDZl+jhqcgbJV1DPBbh1Tz0GeNHJhv0bjId/Uq4D7usv/y2TXdzHnnHyGfJGWJeP9gLgWAki7hZhS+guwCvF/+tfbgXwaMGrh+q4jXHwI1UuI7QTzSxUSpkudnjBj3rmW2jsDAPI/Ta5SpsTWfaQ6LpvMkNmg/HzLjud3Pfks+Xis98uF5/5XbDtl01ZLx0AZ700e5N5DpDmdgfcLnhKAxxpRjMTwMicCISWp7yT6RLgDeZjysp0Y8Yb349DHLxrMeva7mvrN0LKxBtE3UK1vLQ3vWZ+oItrvl2WKZB4x2H/xBUNIZ9P3mcaYEz4cUiNFWrOIfCU5jHFuE7x9WXrR3KEiWIiK+OcTJY5MpFehrWd4Yg4kMrR729MYWLupsNmD4PdK+XGq39fVn7xN6XLllmq7vF9SvNN4j3qSCNbANzI4qh05rEJhupxaJek8TidUbLBH6SLl7nxvNsHb2SvxAkcWDmVQlaS9xI12/e8lw/aUFoAHaaJPjqSexdJrtV9SMfPME6BdfdWv5g5ZCujpdP3M5T2YLnnvovlOHuCL7F1cM+15qy3jk0RYoRV5gayMnOFSK3SWnWZo8ymv9qbhdI4VDjGj27NffJ+HOLgXcaabu2+vj8J8AqKaBAjn8lUyYDtvUw5lrK6PJWlqiIs++KEAfADPvCws7FR1tfXyuLiEt0alqQ6SahHN8bTLozdGYcaOX051xQowWvO42qaHlzjtnnqNnGvX9UmqDW8qDzLQtliV1hBj0o+ZIrqKhJ85eW/YfOHz1iGu8mmFjTUTFmNb6FTt6rosbVyMIkRZzqR/CStzMIhHUnfWp5IiIh9vAvwpHDly4PkbgAPV6gW/w3cgqyxbd5PAlyVvllN3UhiB0m+B8hHlU1crkxz0coN/PYZTustLJfTDzxU7uE87ub/GOBm6K9PYW3vIdm703wD211UQsYp5zitzMi8temDv3n13lC12g/cpWvzCU4w+JccxtnireKuPUfLV1+tfRqdHB9ub+Wb4+ZQny6TSNwplk3fAZFzvpHYbBS5u7VRtm9cL2sr18v169fK0WPHyuLy0dgpZnr+CIMObNrI2ns3cGS7GE4X68QUEzJhA0ipW9FGOZjIfivGOBChdKRcbnQhmEOkV7oEKNUyMLTtXS/rb7J09NW/5YMUH9Oir7HpB6myuiy+vErBleAu8omGgXv5wEOahCiNp8P9yfzXQrfyRfbzwSJE8iT7WynBP0fuoJUMyRE04mdEpHBNgk24WYFaf6O/ztVnhYLAF+RqovrZV3dM288oaYDbxG99mwky26QHt0wvLpelE6fKiTPny6mzF8oJprsu8nXNqSMsRWV30uijI9FV22MaJHJaCdZmumVZMu8JsVaGzHf6e885ahzSzzxPHpU3KYgelklwc0/jl36CQonnW/5kA2TqmqccQKueXG2a9IEQDj8BmA6bRw75TNOQbaUGGyvlBt9hu/bppXL5ow/K1StXAPgK32tfCoAvM5/g5L33lVOn0XBOnGEiEV8+catlN5xgq+Whu8M4EhGbNlpy0qrlCZBFhZAL+/Xhjm4T2SMkEtuxdofG2sQaY8h+v2WynOySg6Ft9/2fle23flTWP307draNUc76eapWWkEeFc8ldqTBI0loiMM/LOuIzlG2+nhXgn8JsStxGpOMp1xSWTKulcbrjZ6VfwCxlSkYvNZ6rm6hwgPuAad7s8e30mI+e350AYHOOCyMyhbDc1jWF4+d4gN89zFZ5jQf4DtV5pkdt8DmhbPzy2Vqlg/x8d3skGAq475nmsQRbAT3pvRoTDV59Z4zObxxQzLhAZJYuonTWwgSDYegANwDJXFEZWdgDPB8Szf1CJ7IWMdWDnC7d9z+5tWyu/op39++xCeZPi07N66U9WtX+GTvZ2Vj9XrZ2mQfuV22lVJCswXU9NwiZUeaHz1Rjpw4DchPB10WAfoC6/DdV93PPUcDCC3M5XiIsVkjyIYZwy+kaZAB+Go5D6kN8QC5G2UkwKWhzRL59vtx+ytln8kuO+/+pNy49Dpl+KzMzdNwTQKc+IM+RkWD7iaWo+Ouij4ixX/7m4bsAzkJ7giXyYkSo3rjJqR4oDuqORpy+VtJrvRWimsdjq2hHEpTRRfYxLrNjcNrfkbJCTNOs5hePFJmMcbNHjleTp5BqnMu83G+BdahzwL63E9cNZW+qMNqxO+2w26K2GUzxNGwkbk2+wFq1VjP4HAdJ05uOWykREMyfjRpGVzP4FnAjWq9z7ZPXeZnhqQS4L7mnzcG5RL7xan+7gFYJT47yW5d4aMNfD31k/deLtc//SCAvb+DRKdPHh9vmOmVWWaSbPghCujhnvVBEzQXVfbl46zeO3sBu8WFcpIuzfyJ+9gIk111/HBC7APnrrdqN/TTbQBdV64VL8rN1Urj31xSK5Hn9pSW86Z/WBqNgXyQUIAzF32X2WzX3n+57LOx5fwcxk8A7rp9iyxpNLKptWF1jUU1QWYTuk2HOcyUubR0zEjlYYuqc4Ti4bdumIyyf+4IJpVIHMELUCdolk7524g54dYImYwu84yJK8hHarxCAQe3HY4vrQD6nDCTk2aYMxNz3t3jzS2glNQ9JsRMIbVn5pdCorlraY9npdssu5ZO4d7j3n7qzMKRMu9e5GgDMnrshgpzew2rUBjsBEAqzskY5r6VMksiHYIMSu4ArYxMqQBsn80c9/lYnxKsw/OAL6vsA+JdNngUrPtc+5xlGwMVO7vub3NiQAt3Pom8v7nC589Rz9nWOYxtYVF3WipZ5FQDcesshx9D4+E+1udLDzZ07Fp2ymx5Z4+cSA0H28Xs4vEyy8cV5pD4ajszbuHMRpFhoHMjSABvuftUrF2d2CHWUlrkOLLsNtF+My60Dvaf7zBU1me56O7Hr5Qrb/6U75Z9WOanmKtI+QW5jZoNnVJ7QL0O7wK80vMreGkAt3qte/6jQYxrvR8zhIHqEXwCa1DZwSY+U+kN6A3k4cmDWBnt6MqzDAxfpLVd5kaqx8YTMjl9dv0FbCw7ZejIWXBTMPAMX+cU4B1AH8YonucAuPuUsw0qw2vuisrqc/cuZ116nHXYSWZvx0itJ5kmvb1roHZfdb+Z5rnPTqy7ftI4VFgkOtJXtz2MZf16DrgWwngKcN0HNAIdNnnsEMcM87k9p9g9QWALqtByIEzr7kg7G8ZYnw9NYg0AdHH24D4gtQnq0hmewVCpZjMNuKcEtkBH+5nDrqHfNKeNwTT0moIugxiGxDrvhxe0ykcXo9UweQHcdidiAYsAHzJUtvZh2eNTwp+8+qOyffntMofbrNNWBbg5oRAOZQrwAfUV+8w34t6ma3Ka+eaQ6TyiGPmggPLO866RTeJwSDSnMwZxuKrttEX7STs9cZRqk4eeHIK6eUU84ZbBZQX/M570MKxDaaNNJuBqG4k29Ga/XUY2PzHUBqN7DWNbGLQcK3dCjZqh86+myj7AHrrtCNcZDHgzM5yzM5wY82bnyjR92ym3Oq7qaxjq/OyJ6UTZSDOAJnhzXHp/b4/tlXN4a3eLb2ivrQP2CnqkuNZkJ+P4UYVIWummW7Zk4T7L7C8NUeoOM6Q3TcCeAJcUkkY62I2hfNJFYgn2kfYT5bactUGEFq4DCLBTVj4Sy0YcuPkFmZkZQL5Ulk+dLsfuPVtOYqQ7duq+chRDnR9i6DCFmK8gkq6TjPjEktqBqn3QWpqrUdiBcvEJH5nYulL2b3xYPmFt+ObHr7KF05Uy33OvdPJqg4D0nvZ7dQKcMzaQtAi38bgL8F+DuBKtgTteh9MC4HIhh4Cv3BfPB34URRzJnDCm9/W9fI3fiXjk/WBsnPOq6ihTJ5Nnv10w65/VGcwN6LNBIA3i4DGkPEIWdd+PG+FmQ1NV8+iXw3w9QBCg5hqgDglOhsw3DGpDEhnxzgxR2NRBYFobmhgSgPFNCLDjiBsJUtKYjMP87CkQ7j3JkVZEa9SAHgDgZzPiOYVjfGxAzyA46RGVyQovj6iLoAf3AW5cvBJOOmSDN170k7YMN+egASCVARpLD6PkFN2WheUTLP45VZaR9HN8Iloj3YljZ5HsTBdmKS+iH3zH2FemHSo65Q9Jjg1hl374xifl8ms/ZN+Hl0u58UFZ6O6VeVaXBZ0oh+Ue0sC4MKGyQsR1u36SI6CfR5Is+SuYFCdJW73uSvCg0phOCUwZPT1ahbXnGnx8CTpXYuMqo3oEgcfOwbTNI5lVyWd/ULYHTjCwE2VCSnPfpLmgVyoYX6jzVer7TqaFQln777sAb6Tyw+xEk1JRsBAGWI4bDfyEceQzMhYxAr7sU/ZCjU5gWgxDzoLehWkknkjjRbMe4dhWOHakSUEY+Q0/8m1bohprKfOsRDFhDumq7T3+CCfIg4HNsydJxbBj0IR73eLN7KtrjNOWAbbY8jqHImN7LYYotgGdoxR+eWV+ieHIIyfLCaT5xQefKEcYqehiie8h1XtzR6J/343WyfxZEKmD5rK/XvosPLn61j+W9Q9eLHvs9LLY3SmLApxgWT6uZgAaWw6PBGHcHvpPxn2QjpHsXYD/KrSWcFRWHFwrHcdueowcR7dRsQSH/yaOAw+jWL3RJ5eCKr0FLyonoBTYAsIzpLee3nOVkYPZTQS3cCcvzSileu07I2AQzNczT7IF8fiaV925+n/wCNcAr+qnoIykCO+9ijXOkXf7nvY5w47X4jFK/fkJP+7NV3tuwSJN4vQwP74T5SGs+Td/qckkrSKfpOUr+tm9mTTIhVQH+WnABOyAO/a5j4aOzgGqeMdPLmGEnFlgthyW+fllFgKxrPconzY+ggo/u3yS+QeMtcfHEUkLu4HDZQPmoa+89wJrw18s2x+9XBbYt02Aq903SUDPhJluZi5LmCDk+TYcGXelZKVh0OeLAM5uwFMsWZ558K+ZhXv5Z8Pt1/5jGVx5A3Xk06CucdivbIsEIjIz3iLn1kq6048cR22lgIwpXsJhclw8Q2R5D5S66kaVzgSrBJoIJHMmqXCs7jq16a5WXrwfHJ9RJLMrjQWwPMSLMjsXAazUVtKrXkejEFfC4ad/O+K9eKhAmay1SM/A+YJZ08mQeaWG8dLXqZmCNwDM1bBcWnEifDwTLt4nIzYWo3gilUyHW9yNwfymWwKcsgCYyD8ti3mPTRS4Rpntg6uSC2BOuyvRICBFlfoCPhoA+i7NcGkDuUekbinRwT4xDdAXj54ui8fPxFj7EaYQey4sngxLfJLCDzhulnXU8/X33QDipTLPnHQ3gHBZv3xh4+vOLn4CKd8ZXaJch/0jj4yo3cgoCSvjtWxEKB56dwFeaSNl2mHFHSBaUnIyiAEqTZO5DcIZsdT7eIh4MuLGxAHQYGgZFw7mP6Q2zBL9bBhYRDQ3mdd3Y356Da/KrVpvnoyqI2d748Ws8NOu5krGaM9eCRZH5DfSiiSzTDhmtg2Z92oc0a3w2fDV3Uj1czxY0KeP6WcK+o2Eg5Fx8ProyEYpARrx4hduhHDOeZRPN5/rW5AjuybSyWQIlAC3scMpQO990jMkPh5u1iHA7a9v8u4my3r9Cnhvbp6PWZwv9z/8WDl34XHWCNyPCu/EImgGwHc+fhNwv1KuvSPAd8oShng1F3PUp48UjZ4UySKP8lmze6iXrMVKwEYQH+8C/Ivp3IA6GULGakTTPZ4PBMiHSupRgM/FNQ4QoAtkGF+LqwI53GVOkKlU8FmwBFB100lkGB+nvKSkynzhCdNmAu1iwEwHn0zPIOE6vtbHAF2+kS6RVg1tsk3N1jdAjFuUlQgjWzVMiyMaJB+aQ0abjzcRKcuY8RjM57h6z/stzxEZD5ZdOvXt++rpxRN6BMC9Qg/DBNhpCNV0QoITbodATqSxn87cI0DeY5jtCLMJT5R7z7AY6NQ9MW12fon++wJ74W+y0ypTa2+8+waryLaZnMPIgX1wElZ7EuvOn7NB8Ujaxe2h/9wF+K9J0pt4LoFzk2NWX02Ah+BdfybQfxM/H8jNgffH0RwI0x4m4473GtcTwEpONxidgOEVzIVreIxz4WM4tYh/2bW+miAevzkJ8BZFBB0HCYKMU26hbnG9ia43h5go6gRpibmmJbktruDVLfQTbz3xEOQ2MCHV45nGgOs+bqmqC2ruGRRwfD3W8od/KUeWj5QjR45glFssx04cY4jNabGE31gt65c+ZMhiF5W8z/BYNL9kwpn4CXC7UZY/jac3l+pwnu8C/HDo+JWIRck4OpKX45HbPMItqzxB0QJNvhgYaG986TXeOvhqbcVk4JTiXxrBb+xZG65bxjPOWCt/lDkLnuD2PZ518mwAF+wCPIbZcA+QA2z76VzSBmJ44NmbdoIQk4UYMZhlr+TZOfbZW5pDW2cobm0VOrA9B8SwS+K0XCOILgpdkVED5M1Eo3/L4vyajncB/msS7qv2WrDzmKdH2ZNxbz6s9HC+hd/NYX/Z84FG5UDgkOkHXA77oZbiC6K9FTEyaHtvRBvxhZcAj/48D6GuC3TcNc65+CcMlLgZNicr1S6Rcph/MetowREA7ni+E38cy/crJzHpV1WBNAwnyOOItP2pz+l6aL+Z23FaEbGPVSsy2ShPON01sh0a4Q87oqjCWo+/StxW6m0/bnMiDai3LscvIcYt8hb2DCPDLwHOlceYLxDSGzXeVgFwKr29DbsGVxsGD4G7OD8dM/CU2ALeCTx2C5yx10YvInB9J4wSdwEeJLn78wUUuAvwmwnzeYA3ELaQN+sYAVHBSgDDCu44q7oefXV8GZ8Iaa+6ruTWSBbWf8DdbA8hoImjjRbENF3DmS3c7fu3/MSQ3l2AQ5i7x5dS4IvV5c+/lvLm8+6H5nLbExCIX5bIrwJwSxsIrcUmvvyPmAWguAOL2T8nFE4JfsCt9BbYfozC76kFyKkEp+zaNAh2XzAnAl1/pXkAm3fDio77XYBX8t+9/OoU+GVgD0b91aP7J4eUqW/38U8FuHkCn6NjTCNkefXUX9oYsoUNdV1A4hBCm6t+6T8uqXEozZ17L7jthxtZSupsDBz7j6NWQMQRaY/jyQCH85ulaGnWOH282wc/HAL/t4olGPZLEr/dADfp28Oy40KNITh2G999PvVGE8ve7lv4NhYddAnUJXwthAANC3tFY76LB/9pmMtrSHMBTEugVA6A21DwbBy+Zzr2x+NoF9zvGtlaTdy9/kYUaIxdees3imvyZYFx8yHf3s7j1wW4eWr5bfSYzGfz001/nwVoK2Ko3uHH4h0lOxJboKumu3a9gbkb98h8/IzE95tf0KZGGN3vu31wyX33+DIK3IpZ5arKRwdfPWT0ybgHj5tNWAd9D+Pp5hQPxnmzb1XDCXSrvB5816eb38cJmt1cqgjFTwI3jWyxeaPBkeK6Sxqlu0eE4z4BXhuN2wTuSC/KUSu7FcnHuyq65LlzjqjCWo835/pz2DPAF4S9+d1f6VkmvkXAm8FwiyC/kdOt0hxH+HnfsRp+s18jRnP3WWCqVqefl7wdh5Wu8dRaVl/n9L244TeEN9cehjgDO5vO5bK+ouqehGtxEvCQj6yZGr/Z8vDxLsCDFHfMT1Thl/FJ46VaoltD8suL25g9GfjLw+r7VQJ48HSVouYtMOjNFxzjMiYqou98M30bYIyj3Xt1Gl9CP8AeTgDcOF3I0lbWhRU9Qt4cse8fznEX4IdDx69ELE2Q3CozNzP0rwPwW8X7ZW5fJYCbz4MS+MtyLl6BZQPt6N0WBw4TfgfujTbwmqA1Hmmf6joSnP56Nhaq7xn09sG7lqM2NqN8muBdCW5NfX2P30aAf2ltfhHK/v/2zqXHjeOI401yl2sJMQIIsQ0YURw7zjHwd8gxcD5mEMuHwLdcAuSck2NACLQRAgTOQ7aEQI/Yeu1yJ/9fdddscThDUkvOQht173Kmpqu6qrpm/lM9D7IDkLsn0IKRQbXelHV+Gi5Cdrze2xveBrXsxsj7uXSuNYwfeYPL/+wfVfVV1d2i/Rq1rgDfbmfk+18ZIBkTGRhWo4WDtKstSLUAchm/p+Zt0ZUtuMT+1hXg+4vlldJUAb7d7jr/ZZsI5gJfUCmyC04HMM+2s+R51sYqfOr5oU4K7bs6jLGHRQX4HoJ4FVVUgG+31/oBTtsy6F6DzDyrabbjQLeWFeA5KHU5XgTyARcPu33bGvsWm2fFcftAVNxCF8vn+Xk1dt4mc5YlPcObPgmy7upe1XixmprBLxa3K99q+QAcpztjHbTu7fpRyNjW3Yt16/Mox5FAtwXX4mN5WwHejfYbsn1+6I3X4bEOWvf4KgEcny3mJSh+gw1ojxmnCnA/Wt6wdQX4Zezw1SgzPDdAF1YG93gQrwC/jP38GtpYPfT27+R4h2329TIy+Lo+bI5hj4QU9ur0C/M974adAP6yTHzQaOKDhokPVOiSdStcWMQO5aFJrLFmdXHJEeg59Pbuwdh7eWyAR/+huzHrbq8GcFmi+6LMkvxIAF+y4RsCIZ5hsvVQG/RxGic+AODPjj/TzCZ/TelJALhFJn//Neg8P3NdZmfcgbpeikC7Y5dq97dhh8D+1A1oWgfx3Tzotma7G7Pu9qqT5xJrwU1DE+1aXdW4e40MyUyc1dZyMQAXC4DPmLroI01d9OL+V83TAvDmyTf5GzL4aH6WztFIVe1DfW23r+3t7m3V8EZHQAfTPjDhCYcjXP+tUtsuBlZoD3zge9XrsqYvpW/5Qd155j4TKPmAReZJm2k6ZXoCwKfvLgH8lmXw5sk9E9D004mPRYr46wO4qYKmVIDnONTljhHwA2pHNdYcILi+JVrcguEsF7bL8Wz1UcYqXoMF/qkv2TXbsPMX3VtoepUFoNTGzAEukek1ZXAB/JAM/lIZ/PvjW6lhiP74GwvEmYJ0JkSbUhr4hxr/SlMZr2CylhqBC0fAAXlhBW9Awxbg9JVflDNMp5MOwA/J4GJPugB/evx5SvcLwFFhAOdXo/MJkX2QaS0hvETa6+q6RqBGYG8RYEBOtvZECuR8m+xtI20xZ7ogP2SGB7B67W1l8A/S4Yef5gz+/M7nqbnP9MHK4KZQGVynApQ5uLMF1ZC5YZgm1rXUCNQIjBUBAB5vptmIXMasTlgE7MCRIfoByV0j7MlbAPwnGqL/mvnBv2oc4M2jDHBQ3ZDrLXNrof8MbLRljRi2whmglhqBGoFRIgC6uCoG0JSlq3EyeIZjvgYvPx81ufaDnMF7AW4pOwN80v7eFJp1tuDncvSP0gz6Cm6CXkuNwJgRsNteBjqDn5liaE7CBo9Alsw+RZAMzhD9PYboyuDcZPMMnm+yScgy+EIX7DQwfQI1ANdvUhWAMz+TFcBeS41AjcA4EQCOSt/2AXKWgAVLsrfAaFVaAkPbAuDXdRf9Pd1Fb6/BdZPtTDfZGl2DT1BAMz1YcxLPGSKc2fA8I7oCnKjUUiMwbgTsrriBL2O7fVYNHi19Z/vgMcNdcrqLPhXA5xHgCz0max7zHFzgBtk8G9O/F5TlUUK+CsgKnVvXNQI1AqNEADjy+AssMmpmLM5GSbiMrEm5LcCRI4PzHNwB/tSegx8bwJG28T2tVJCnmAHW/GEHG3bWMPYWCxS6ti3EtxLZt85966MTY+jct158pFz2/nG72XpdDkQAYNuu0b0xA7g2FTruiXEdThT58DYbcpbB3/1QGby8qvrdnc9S8+1xmiiDM3sDr7+dGIpF6N9+6F0ND/RhyhdTaFf4ZrUYL1ZYqTpn+0KrzhqxVon89phCaVHnslHOaGu8Kkf1UlvpMXUsVKKerlwWsGVebPKh6OzqGbSH1m39kWj0NdJL9opOVlbMeKBFxraR7uoxHk1Dv4b6siS7KU5RZ8efcx/cKMK5dLviZvr4XufrTW1dbtN6Wz2b5Dbx3Y/1ciUCEuLJFbgCegtAz+QLwqt9NBlDOtWEDPqbMUT/0Qf5XfTnusn2+M6tlO7dSdOH9zQvkwCuPflCyiZzvSqjG2sLfuhdN9yOpIMTAJfiNqODDGEeByEwHmmqOSgotjJmqRNtbW1R6CI4qCe2Wacz6IE0H2JbpztyOCSWla18GNBjQGgVLetE+Yo/qnsVe9nBorfHBzOtvqCTstGeCZlo7/7r1YN4sdFrL7Pbzq/4EP12Wa3RxSFBKe632926yI/0q8itk13H67Pnfnfbdbdj20j3ykmA+NtNNdYSOhUWT4TJibA61eynB/o0J3pe/nyR5rODdCCAT27cFMD1osuzB7ebJ8dfpOm3f0mzR//U0FuTsOmPDN4wdao+U4V6pjPE7ESvynDmUJkwRzJI7ynUemcj7aJ9dc6L6ygX6SgzREf5SA/JD9XHtpHuykdepF0u1kXa+b6OvEg7f9t1bBvpbvs+XqwbotfpiW1crq/OeGIYjwPGaRjatkRSaFaUpToaUmLbSAdelGtpI7To0wOv60OfXJ892q7ry7Z6JEfW5h6bgRyXlL4xqaG0JeKGM6f+eZONL5vMZJgXXdKNH6ejn+kx2dMHd5pHd3+fZvdvp8OHf0/TxYkwvNAwXTDnzKDpWgD4VBOiz/Tx6WAmTOPijmJwQzGnJDPUBP4Qb53qi7br6tyXnqh3U5+j7KvQV8XXffV/n3riMXYV4gjAeQMVcFgcBGSbVUUJVijVvGnCpDL6gVL8oZBq4/ejty2DH/1cGfy7B3/T90z+KID/Oc0f3k3zxQuJneoMoSHAXMNzKX7+9JThfnrLhuw5RHm+5Gw01yzT3QO2byfFAA/R6BniuU5k+nyI7XbRQ9tYot4hGnn3z33zOt8eahvr+9pQR9mkB5moax2NLKVPJ/Xr2nqbPjnqBvli2FMbKSdZmFwxZKtAezBNRouWj2+hbaRR2Mo5XZxsk5MExLLSbZsrtfS2KFOJcpF2OYy6Tq9buUTZQk9JzoZZRs6Cti6RLUfLhDI74BZ3pmGNOMZvToRbAZzvgx9+LIB/ffd286c//C69P/tXunn0nzQ/+W86bJ6ng8mJgRuA0y8mW2PEbsNyvC9DBXhtZ0QPlRKbQdlX0RPtddt1t9f509WDbKwbahvr19mDRxnSua5tbrm67NN5ET1dzX16uzK+va29TTqzniLlQYrKC8vAKNpFzA82Ct8YkUaAbW9QeAbGIGekFi42qAd9wV5XD2y316vT+YhJj4GduqCzdSL45/2jCgizrcG10WTxZgZHEOd6XCRjbWQmR3wf/KM0//hXaXL7yy+bL377m/SL90/TJzdTmr98lOZn36e5brO9XDAI0M2163O7ueZzJqOWiyH8q6VGYLcI2NHEUWsHZ6srbkfaBWLdEI3sEC/W9+n0Ol9H+SEa2ch71bYu39UjrJGfuf4+faE3TPXHVMaTQ8Y/uuH27MQS7oFuiBsudZMt3dCLLj/9pZ6MPXrY/Pvrf6QfXjvTR4rOXkrZwj5nGhYQ/inKiuNld0RXKl0jsHsEusCI25F2S7FuiEZ2iBfrh3RS7wd8lB+ikY88timxbh2NbI89w17hAXKK1RVQ8hjb6mTIqmaHytTX0/T6O8rsftfMROqiRqBG4P8pAv8DicE4gzwe884AAAAASUVORK5CYII=;" vertex="1" parent="1">
          <mxGeometry x="360" y="328.55" width="118" height="119.9" as="geometry" />
        </mxCell>
        <mxCell id="QlD7434E7cFauA96BwXS-6" value="" style="shape=image;verticalLabelPosition=bottom;labelBackgroundColor=default;verticalAlign=top;aspect=fixed;imageAspect=0;image=data:image/png,iVBORw0KGgoAAAANSUhEUgAAAKAAAADQCAYAAACA7WrsAAAMP2lDQ1BJQ0MgUHJvZmlsZQAASImVVwdYU8kWnltSIbQAAlJCb4KIlABSQmgBpHcbIQkQSoiBoGJHFhVcu1jAhq6KKFgBsSN2FsWGfbGgoqyLBbvyJgV03Ve+N983d/77z5n/nDl35t47AKif4IrFOagGALmiAklMsD8jKTmFQXoCyMAEEAEKSFxevpgVFRUOYBls/17e3QCIrL3qINP6Z/9/LZp8QT4PACQK4jR+Pi8X4gMA4FU8saQAAKKMN59SIJZhWIG2BAYI8QIZzlDgKhlOU+A9cpu4GDbErQCQVblcSQYAapchzyjkZUANtT6InUR8oQgAdQbEPrm5eXyIUyG2gTZiiGX6zLQfdDL+ppk2pMnlZgxhxVzkhRwgzBfncKf9n+n43yU3RzrowwpW1UxJSIxszjBvN7PzwmRYFeJeUVpEJMRaEH8Q8uX2EKPUTGlIvMIeNeTls2HOgC7ETnxuQBjEhhAHiXIiwpV8WrowiAMxXCHoVGEBJw5iPYgXCPIDY5U2myR5MUpfaEO6hM1S8ue4Erlfma/70ux4llL/daaAo9TH1Ioy4xIhpkJsUShMiIBYDWLH/OzYMKXNmKJMdsSgjUQaI4vfAuIYgSjYX6GPFaZLgmKU9mW5+YPzxTZlCjkRSryvIDMuRJEfrJXHlccP54JdFohY8YM6gvyk8MG58AUBgYq5Y88EovhYpc4HcYF/jGIsThXnRCntcTNBTrCMN4PYJb8wVjkWTyiAC1Khj6eLC6LiFHHiRVnc0ChFPPhSEA7YIAAwgBTWNJAHsoCwvbexF94peoIAF0hABhAAByUzOCJR3iOC11hQBP6ESADyh8b5y3sFoBDyX4dYxdUBpMt7C+UjssETiHNBGMiB91L5KNGQtwTwGDLCf3jnwsqD8ebAKuv/9/wg+51hQSZcyUgHPTLUBy2JgcQAYggxiGiLG+A+uBceDq9+sDrjTNxjcB7f7QlPCB2Eh4TrhC7CrUnCYslPUY4FXVA/SJmLtB9zgVtBTVfcH/eG6lAZ18UNgAPuAv2wcF/o2RWybGXcsqwwftL+2wx+eBpKO4oTBaUMo/hRbH4eqWan5jqkIsv1j/lRxJo2lG/2UM/P/tk/ZJ8P27CfLbEF2H7sLHYSO48dwRoBAzuONWFt2FEZHlpdj+Wra9BbjDyebKgj/Ie/wScry2S+U61Tj9MXRV+BYKrsHQ3YeeJpEmFGZgGDBb8IAgZHxHMcwXB2cnYGQPZ9Uby+3kTLvxuIbtt3bt4fAHgfHxgYOPydCz0OwF53uP0PfedsmPDToQLAuUM8qaRQweGyCwG+JdThTtMHxsAc2MD5OAM34AX8QCAIBZEgDiSDiTD6TLjOJWAKmAHmglJQDpaCVWAd2Ai2gB1gN9gHGsERcBKcARfBZXAd3IGrpxu8AH3gHfiMIAgJoSF0RB8xQSwRe8QZYSI+SCASjsQgyUgqkoGIECkyA5mHlCPLkXXIZqQG2YscQk4i55EO5BbyAOlBXiOfUAxVRbVRI9QKHYkyURYahsahE9AMdDJahJagi9E1aDW6C21AT6IX0etoF/oC7ccApoLpYqaYA8bE2FgkloKlYxJsFlaGVWDVWB3WDJ/zVawL68U+4kScjjNwB7iCQ/B4nIdPxmfhi/B1+A68AW/Fr+IP8D78G4FGMCTYEzwJHEISIYMwhVBKqCBsIxwknIZ7qZvwjkgk6hKtie5wLyYTs4jTiYuI64n1xBPEDuIjYj+JRNIn2ZO8SZEkLqmAVEpaS9pFOk66QuomfSCrkE3IzuQgcgpZRC4mV5B3ko+Rr5Cfkj9TNCiWFE9KJIVPmUZZQtlKaaZconRTPlM1qdZUb2ocNYs6l7qGWkc9Tb1LfaOiomKm4qESrSJUmaOyRmWPyjmVByofVbVU7VTZquNVpaqLVbernlC9pfqGRqNZ0fxoKbQC2mJaDe0U7T7tgxpdzVGNo8ZXm61WqdagdkXtpTpF3VKdpT5RvUi9Qn2/+iX1Xg2KhpUGW4OrMUujUuOQRqdGvyZdc5RmpGau5iLNnZrnNZ9pkbSstAK1+FolWlu0Tmk9omN0czqbzqPPo2+ln6Z3axO1rbU52lna5dq7tdu1+3S0dFx0EnSm6lTqHNXp0sV0rXQ5ujm6S3T36d7Q/TTMaBhrmGDYwmF1w64Me683XM9PT6BXplevd13vkz5DP1A/W3+ZfqP+PQPcwM4g2mCKwQaD0wa9w7WHew3nDS8bvm/4bUPU0M4wxnC64RbDNsN+I2OjYCOx0VqjU0a9xrrGfsZZxiuNjxn3mNBNfEyEJitNjps8Z+gwWIwcxhpGK6PP1NA0xFRqutm03fSzmbVZvFmxWb3ZPXOqOdM83XyleYt5n4WJxViLGRa1FrctKZZMy0zL1ZZnLd9bWVslWs23arR6Zq1nzbEusq61vmtDs/G1mWxTbXPNlmjLtM22XW972Q61c7XLtKu0u2SP2rvZC+3X23eMIIzwGCEaUT2i00HVgeVQ6FDr8MBR1zHcsdix0fHlSIuRKSOXjTw78puTq1OO01anO6O0RoWOKh7VPOq1s50zz7nS+dpo2uig0bNHN41+5WLvInDZ4HLTle461nW+a4vrVzd3N4lbnVuPu4V7qnuVeydTmxnFXMQ850Hw8PeY7XHE46Onm2eB5z7Pv7wcvLK9dno9G2M9RjBm65hH3mbeXO/N3l0+DJ9Un00+Xb6mvlzfat+HfuZ+fL9tfk9Ztqws1i7WS38nf4n/Qf/3bE/2TPaJACwgOKAsoD1QKzA+cF3g/SCzoIyg2qC+YNfg6cEnQgghYSHLQjo5Rhwep4bTF+oeOjO0NUw1LDZsXdjDcLtwSXjzWHRs6NgVY+9GWEaIIhojQSQnckXkvSjrqMlRh6OJ0VHRldFPYkbFzIg5G0uPnRS7M/ZdnH/ckrg78Tbx0viWBPWE8Qk1Ce8TAxKXJ3YljUyamXQx2SBZmNyUQkpJSNmW0j8ucNyqcd3jXceXjr8xwXrC1AnnJxpMzJl4dJL6JO6k/amE1MTUnalfuJHcam5/GietKq2Px+at5r3g+/FX8nsE3oLlgqfp3unL059leGesyOjJ9M2syOwVsoXrhK+yQrI2Zr3Pjszenj2Qk5hTn0vOTc09JNISZYta84zzpuZ1iO3FpeKuyZ6TV03uk4RJtuUj+RPymwq04Y98m9RG+ov0QaFPYWXhhykJU/ZP1Zwqmto2zW7awmlPi4KKfpuOT+dNb5lhOmPujAczWTM3z0Jmpc1qmW0+u2R295zgOTvmUudmz/292Kl4efHbeYnzmkuMSuaUPPol+JfaUrVSSWnnfK/5GxfgC4QL2heOXrh24bcyftmFcqfyivIvi3iLLvw66tc1vw4sTl/cvsRtyYalxKWipTeW+S7bsVxzedHyRyvGrmhYyVhZtvLtqkmrzle4VGxcTV0tXd21JnxN01qLtUvXflmXue56pX9lfZVh1cKq9+v5669s8NtQt9FoY/nGT5uEm25uDt7cUG1VXbGFuKVwy5OtCVvP/sb8rWabwbbybV+3i7Z37YjZ0VrjXlOz03Dnklq0Vlrbs2v8rsu7A3Y31TnUba7XrS/fA/ZI9zzfm7r3xr6wfS37mfvrDlgeqDpIP1jWgDRMa+hrzGzsakpu6jgUeqil2av54GHHw9uPmB6pPKpzdMkx6rGSYwPHi473nxCf6D2ZcfJRy6SWO6eSTl1rjW5tPx12+tyZoDOnzrLOHj/nfe7Iec/zhy4wLzRedLvY0ObadvB3198Ptru1N1xyv9R02eNyc8eYjmNXfK+cvBpw9cw1zrWL1yOud9yIv3Gzc3xn103+zWe3cm69ul14+/OdOXcJd8vuadyruG94v/oP2z/qu9y6jj4IeND2MPbhnUe8Ry8e5z/+0l3yhPak4qnJ05pnzs+O9AT1XH4+7nn3C/GLz72lf2r+WfXS5uWBv/z+autL6ut+JXk18HrRG/0329+6vG3pj+q//y733ef3ZR/0P+z4yPx49lPip6efp3whfVnz1fZr87ewb3cHcgcGxFwJV/4rgMGKpqcD8Ho7ALRkAOjwfEYdpzj/yQuiOLPKEfhPWHFGlBc3AOrg/3t0L/y76QRgz1Z4/IL66uMBiKIBEOcB0NGjh+rgWU1+rpQVIjwHbIr4mpabBv5NUZw5f4j75xbIVF3Az+2/AKZ3fDwijcEOAAAAimVYSWZNTQAqAAAACAAEARoABQAAAAEAAAA+ARsABQAAAAEAAABGASgAAwAAAAEAAgAAh2kABAAAAAEAAABOAAAAAAAAAJAAAAABAAAAkAAAAAEAA5KGAAcAAAASAAAAeKACAAQAAAABAAAAoKADAAQAAAABAAAA0AAAAABBU0NJSQAAAFNjcmVlbnNob3Rf99WjAAAACXBIWXMAABYlAAAWJQFJUiTwAAAB1mlUWHRYTUw6Y29tLmFkb2JlLnhtcAAAAAAAPHg6eG1wbWV0YSB4bWxuczp4PSJhZG9iZTpuczptZXRhLyIgeDp4bXB0az0iWE1QIENvcmUgNi4wLjAiPgogICA8cmRmOlJERiB4bWxuczpyZGY9Imh0dHA6Ly93d3cudzMub3JnLzE5OTkvMDIvMjItcmRmLXN5bnRheC1ucyMiPgogICAgICA8cmRmOkRlc2NyaXB0aW9uIHJkZjphYm91dD0iIgogICAgICAgICAgICB4bWxuczpleGlmPSJodHRwOi8vbnMuYWRvYmUuY29tL2V4aWYvMS4wLyI+CiAgICAgICAgIDxleGlmOlBpeGVsWURpbWVuc2lvbj4yMDg8L2V4aWY6UGl4ZWxZRGltZW5zaW9uPgogICAgICAgICA8ZXhpZjpQaXhlbFhEaW1lbnNpb24+MTYwPC9leGlmOlBpeGVsWERpbWVuc2lvbj4KICAgICAgICAgPGV4aWY6VXNlckNvbW1lbnQ+U2NyZWVuc2hvdDwvZXhpZjpVc2VyQ29tbWVudD4KICAgICAgPC9yZGY6RGVzY3JpcHRpb24+CiAgIDwvcmRmOlJERj4KPC94OnhtcG1ldGE+CsomH6UAAAAcaURPVAAAAAIAAAAAAAAAaAAAACgAAABoAAAAaAAABqaJ7hHuAAAGcklEQVR4Aezda2hbZRgH8H9uTdq06XXpdau1dFSd1W3sQkVlHcVO8QIORPdBRJAJflDRb0JBZBenpW4im1/EDwNFUERFJ3OKZXSXorA6NxxrO+26rpe5tV3vaXxPhoyWRJ+keZos+R8o7GTPed5z/vlxck6avLUFzQIuTCBBCdgIMEHJc9hQAgRICAlNgAATGj8HJ0AaSGgCBJjQ+Dm4CKB1o9zXP2Z+RjF8ZRKjY9O4Pj7D9GJIwJ3hgDfLhcICD/zLvKgo88HjdsJmi6FZCmzyvwAtfIFAEEfaunHk5x78cmoA57uv4qIBySX6BPLzPKgoycbqe4pRv74cTZur4S/ywm5PT4ERAc7NBTF2fRqdvw/gux+6cOaPYXT/eQ1Dw+MYGeUZMHp6N7b49wxYVJiJ8tIcrKwuQMP9lWjcVBU6Ezqd9lhb35LbRQQ4PjGD02cH8e3h8/joYCeG/57A5FTgljzIZN1pC1u2eTl+/OEaPL+tDtW3F6CoICutXo7DArTOfpcuj6HlgxM4/FM3ui5cw8zsHKzHucQvAeu6z2G3o6oyF2vqivHCs6tx34aKtHo5Dguwt2/EXOv1Y++BDpz8td+c+WbBX9jFD97CTtZNSYnfi5e3r8OWxmqU+rPhcqXHS3FYgD+29eCrQ+fwzfddoeu+hYFxPf4JeDxOPPf03XhsSw02ri2H1+uK/yBJ2DEswIOf/YaPP+lE55kh87bLRBLudurtUobLYW5EbsMj5gz45KO1sO6W02EJC7B1/0ns+7ADQwbfxORsOuSQ8GN0OGyorSnEQw1VeOXF9Sg27xGmwxIW4Jt7jmL33nYEZoOY48Xfkjiwbkjc5g3pzQ9U4r0djVhR4VuScRM9SFiAzbvasLO1PdH7lpbjNxiAB95tQuXy3LQ4fgJMsqeZAM0TwjNg4lQSIAEmTp8ZmQAJkACXMAFeAy5h2JKheAY0KfEaUEJFp4YACVBHlrArARKgkIpOGQESoI4sYVcCJEAhFZ0yAiRAHVnCrgRIgEIqOmUESIA6soRdCZAAhVR0ygiQAHVkCbsSIAEKqeiUESAB6sgSdiXARQC0PlZuzXfiy84Qxp2aZdMzAQwMjsf0fRoCXARAh5nfZOO6stAXrVOTluyorKlLjnX0hRDKtrhZRYAmi1g/DWN9mfr1lzaE5jm5GWn6/av34ij2vH8cp04PRH3wBLgIgNbEO/tbmrBt611RB59KG5zruoLtrx5C27G/oj4sAiTAqNEs3IAAFyYSeT2un4jmGfBG0AQYGdzC/yHAhYnEYZ0A5SESoDwrcSUBiqMCAcqzElcSoDgqApRHJa8kQHlWcT0DWlOMvfFafWiKMfkupF7lhd4RvPXOUTPJ5+WoD45vw5jIYn0j2prz+KknarH23pKog0+lDQbNRO6ffnEWXT1Xoz4sAlwEQJv5ZXB5aTbyctNjcsVIuqamZ9F3aSymv6VCgIsAGOkJ4ePyBAiQAOVaFCoJkAAVWMlbEiAByrUoVBIgASqwkrckQAKUa1GoJEACVGAlb0mABCjXolBJgASowErekgAJUK5FoZIACVCBlbwlARKgXItCJQESoAIreUsCJEC5FoVKAiRABVbylgRIgHItCpUESIAKrOQtCZAA5VoUKgmQABVYyVsSIAHKtShUEiABKrCStyRAApRrUagkQAJUYCVvSYAEKNeiUEmABKjASt6SAAlQrkWhkgAJUIGVvCUBEqBci0IlARKgAit5SwIkQLkWhUoCJEAFVvKWBEiAci0KlQRIgAqs5C0JkADlWhQqCZAAFVjJWxIgAcq1KFQSIAEqsJK3JEAClGtRqCRAAlRgJW9JgAQo16JQSYAEqMBK3pIACVCuRaGSAAlQgZW8JQESoFyLQiUBEqACK3lLAiRAuRaFSgIkQAVW8pYESIByLQqVBEiACqzkLQmQAOVaFCoJkAAVWMlbEiAByrUoVBIgASqwkrckQAKUa1GoTDuAgUAgaLfb50XZvKsNO1vb5z3GFb0EPG4nsrKccDrteLB+BXY3b0JFWY7egEnU2TY5ORV0uzPm7RIBzotDfaVyuQ93rCxEYYEHa+pK8MzWVSjMz1QfNxkGsH3+5dfBXF8OioqKTAD5yM/Pw46W43h734lk2L+U2Qd3hgP+ZVkm48wQrvw8D3KyM+ByOVDi92JFhQ8+s15emoNVd/qR6XGmzLH/14H8AwAA//+Fk9MlAAAuPklEQVTtnQWcXeXRxt+46258k2w82bgTT0hwKFL4cNeibdMChUJxKFKslBpQ2gLFXYIlRCDuEHd3d/ue/+yecPa9Z3fvbnaTsHvnl825596j75kz78gzM8VO+tk5B2rWrOE6dWjv2rZJc2mtWrg/PT/FPfn8RJegvI9AsWLOFdN/xYsX09K5alXKui4dart2bWq6Nq2SXctmSa5BvSquUsXSrkSJ4nk/0U98z2IJBsz/J1iyZHFjuGZNqhnT1alV0dWuWdHVqlnBJVUva79VqVzWVShfypUqVdwYNf+v4qdxxGKDb7vrQFL1aq55syaucaNGrmHD+u6xZye6J/4y/qdxB0fJVZYpXcKkWbWqZcVk5Vy9OpVce0m7vj1SXIOUKq5GcgVXSoyJREzQjyNQbO78BQcqlC/vypYp40qXKe3KlC7t7n10lHvk6dE/bpX4lOMI1JZ0a5tWw/XunuK6dqpjDFi9ajlXsUIpV1rMiVRkSk5Q5hEotnv3ngOlSpXM9O0fHhnhHn7qu0zfJVZiR4Dps0qlMq5z+9qubesarlXzZNeiaXXXuGFVV7myXuhSJWJ3SnyTaQSKHRBl+kYrCQb0RyTzeokSxYy5qojJGjWo4q67vKPr06O+q1OrkgyK3Es5ngCPIf3Puf32Rfp3+/bzfebzs8ZUXoLpPP2fK6bPxSVhTciyjN3lqPwmwYB5eCwpdSu5Xt3ruY5ta7m2rWq6Zk2qu5o1yrtyZUulM0Auj7ljxx63Zdtut23bHrd1+263Zetut3PnXrdj5x63cvV2fb875ojVNL03SKlsDI9umVRN070s6vK6hrLlSv5kpG+CAWMebfQXTKfly5c0g6JD25puUL+GYsDarmmj6gddLdF7/vgtkmz37r1u+469bpsYbfOW3W79hh1uw8ad9rdVjAYjwoA7xIDbt+9xK1ZtdVvFmD4lVSvrUiV9ixcvLmYTA8rwqVyxjCsv5qsq5qxapYyrLPWgcqXStixbpqTpof5xjvR6ggHjfALVeeD1q7jLzm/r+vas7+rWriSGlIERp54H8+3XdLp23Xa3eNlmN3fBevf9zDVuzLjlbvnKbW6zmI6pl234C6bjvXv3p0/J3nUy/ZbKODfTbgkxYuBzxO2T2qCypHOyfI41XFrLGuYGgiGPNkowYA5PBD2vRdNqrn3rWq6TjI3uneu6Rg2ruHLlSpnOld3u2yTBNmzcIQbb6pYu3+LmL9zoVq/d7jZu2unWiBFXrt7qFi3ebBJv1+592R0qV7/h3K4ud1CdWhVc7QwfZI2kclqv6BqKMevXq2wvULmyJQ8yca5OkI8bJxgwm8HkATVtXNWdekITN6hvI9ezW0qGlMlaxUd67d2333Q4GG/OvPVu6g+r3cSpK923Y5e7det3ZHPGgvkJCVmpQmmpD5Vc9y51zTnOC1WzRkWH37I8L5MkqhkwBXMJWR41wYBZDA3WbPfOdVy/Xg3cqcc3lWulmqsuRT+nh4Qet1J627fjlrnxk1e6ydNWSeLtchs375S+t1M6YP5JuiwuPfJr/JDohzAcYUF0xtYtk103SfSBfVIdkp5tDjclGDBixJM1XTWUhXniwMauf+8G8vPVkUO5dMSWuEqc27t3nxkRTLOm381f78ZOXOG+n7XWzZu/MVKHizzYYfwSZmvaqKrrIEu+b48Grok+15d1X7NGBbvXwxWxSTBgxEPv0bWuO/PUZm5A71RzLuPmyCqKwZSL1JukKfbdT2a7sRNWuJlz17s9e/aJMQ+4fZqOj1YqKRBESVnQGFJ9jqnnTji2kV64VOm4Ve27nKR9ftxXggFDo1gzubxNub2PSZG+V8+UdcJpWRFGxDwZFqNGL7WpdubcdWZwMNXmB6GDch0gZ5KTymdY3Afcpi273IzZ6+y8MP/uPYfO5PXrVZJErGaRnE7tasvPmWLgiYK2nBMMmMEp6EDtWtd0N1zZyXVTLDelbuUseWi3pBtO40nTVrrh3y5xb304y82W1MuOkCZMa0x9SJydu/ZKSmbNODx4mOLyC9pKKjWUC6iq6XAERVaJ8YeNXORefm2am7Ngo1u1ZluG6yb2CtBlkXQQbh7cOqgNUcT1VVLsukuHOu7cs1qZox2mLKsXoaAgYwkGzHgSJw1q7Pg7rn8jAxLguI0iptxlK7a40eOXui+/WeS+EQOuWr1NjuVYZ3F4fxihovyGtaRj1RNjzZy93pzM4W3Cn5kOf35aC9e1Yx1zfiMNgzAfLhvOOVe65r9fn+4++WKe2ybnNszlE4ycLAgYhHN77bodbk/EdvzOSwKjEd+uLRfOaSc0tTEhxl1VhktBUJFnQCQfSJaLz23jTh4kSFoqkqZUzFjDeDz4GbPXuolTVrqRo5fItbLKzZyTteSDYZB29WXQYNSkCKLFw1+9dpuc0GvFyFtjzoOV2kpT7uknN3NnnNzcjAJwgz5xnJ0K1b0vvfODz+a6UWOXuTXyMfoEGgfrvbukOtM4L8/CxZvcoqWbFZHZk60UxufZt2eKGSmtmifZrIAuDKPmFxV5BmzZrLrr36uBO/fMVubny8rY4IETNvvrSxPdp1/OczPEeDt37rOIRVYPA6lVWU5hmOlESdfO7epIYi52jz4z2phvgxzSPrUTqub6KzratbRompzjwyayMmHKCnfXQyPc5Omr/cPZOlPokw8MNKseS/2TL+a6dz+a7ZbLXUQ4MCtiSsYjcOrxje3lPGFg03zHNBZZBkQXqyrpN6hfqrvyovauuWBURAp8wordtWufGzlmiRhvvhs3aYUZHkQz9u2LVabKlilhPjakB1ID3a2xXBxIWZj7/U/mCPA72qbscPSD34jfgie89eZjXAu9GFWFms6JdkmXXLB4o/vnf6a4oSMXu+kz1sToeMDGYOpT5M9MbVDVJOXc+RvcwiWb3DQ5yUfKiCIeHb6e4LyoIoT1COmhGw+QPto2rabps8E2h7IskgxIHBW8XjsBSM88pbm75tKOpl9FST8YDV3r9XdnuP+88b0BAzBCfGK6LVWyhEUb2uphnXZiM9PfmjSuZiE7jgPzvvXBLPfSq1P93c046SAjCN/jdVd0cljk8RLMM+K7xe79z+a419+ZoUhMejw52J9rA5l9klSM889qbdP6/v373ZJlW+SvXO7ewYhSxGbFqm0WFoy6PxzXqfUrZ6gqTU1HzEpPDs4bz7JIMmAFRQSAUCEVeuOEld4XxXzofVO/X+2e+us4N06O5QWSGPt5uBFmJHoaTHPO6S3dz05s6lIUbwUyxTQMLVi00f35nxPc0BGL3HTpfz6V0zX96rqu0vuaye2SbJanv01W66gHG8WEb74/wz34xLeGqNkpqR0QOhu6br+eDdz9d/SV07maWca7hMxhCl4tK3q4VIMvhy904yetVIx6W7DrwSW+0DKShl061DIpeOE5rc04OrhBHj8USQbsKDgVeh+D2LxpktIRYi1emI8wGg/l5VenuSXLN8t18uNDDcab6a2ekDFMmSCjmaKwXMtoKg5cFzilmRrvemi4GyNG3rR5V7C7LTEUmP7v+k0vTZNNlKxUOtdTHNc7dOQi949/TzbjCEPDJ7LyOAegCqxxiHcJ5A3G1QQZVzDgBDnVufcoNxEvWfs2NeQeaqfUg7oyrqr4p8nVepFjQKQBOt+FZ6cpFloj0r3AA4HZnv7bWJueZs3dYC4Mf2Q5FiG6gX0buJOPayq3SUvLdPPDWFvkOB43eYW79Z5hJlH94wASaK/p95Zru8rqbOD/HPf6fEnZcZOWuxf/O9X0QX9HDK5LBSc7tk86ltH/nTj1vIUbZFXPcU88N9akI4ztE/rsycc1knHSzO6b2YOxyAsVKQZkmiMQf8u1XdwFZ7e2zyQM+cR0CXrltbd/kPGxVBJrd2RIDbAnGMFrLu0gidrQQlgYN/7DAPeH4/i5FyYJB7jBP50j8nLmKc3c8QMaKxKRFPN7vF8gWVfISX3foyNN1/T3Q3ohnc87K82sfv93mA0wLNLvgyFz3DejlkS+MKgVKfJlnizL/pJz28o9U8nUDf948awXKQZkoDq3q+Uuv7C93twmMeMDjAoU8ojvlrh3Pppp8ClCbVkRzAw2kIfAg60m0Cq6IIxetjRYu+I2DX/0+Rz30ZC57hNZ0Sul6PuE3njzNZ1NN0uuHr/x4R8Hq5zp/s4Hv8kwmHZnck7jjqkhY4IX5pfSN1ERyDkhJQCfIM70TULuAKhgSh7y9QI53Jf7pzm4DlrozFObu2MVP04Tsia7mPnBnbwPRYoBQTLfogfdvk2tSAWat3/2vHU27b74ylSzeKNcE8EYYl2WEaNhITZXEvoxwto1l3FDVlxdOZ0BhVbQFP3038a5V9783qRfFLwehrj3tj6W00F+cV7J9Dl3wD3/4kQZJDNN7wz7+UhaQkJfc2l799ubusvhXtoYb9GSjXZts+TbHCMwxeKlm90OuXc2S6JmF+HhZePeb5PbCG8C0RKOnxsqEgyIJEJvOUVS71fXd5O1WsEkVXigkB7402CUr2R4ZPfmh/cLPpMUBKQJFDJJ6DAfkH0sx2GyfMdLweeBYrEGxAMksejS89q6G6/ubJaprz8G2+Zm+cWwBRaee0fOZnJKfMJHOUAwM9QP9D6c2cSTl0s6z1NsGZdRvMT1nv2zFu50uZ0GyqdK1CU3VCQYEEOhZ7e67vSTmmm6bGcWqj9IvOljNN0MvvsrC5P5vxfEOqU6+sk/9zNd1ylS6PFPFuOPk2Uo9fadr1TqZ0wDyxsRPyuDhD3cAX3Gv4fagBrx9N/GOwyTgiQurY7KjjC7/F4WNi4erjleKhIMiMvh+is7mpO3nbz4gXskPEjjJy93Xwxb6F6QBckUdDiIoD/uG6IMFCxCSjON4cLBsgTFApMCYvDJEDnb98po2HXQQt8sa3v1mu1yMKPDrZPhs9itPQwpABglAFt/fX1XQ9JQliReKvQMSIIO+tmdv+5pyeOgQ8JOZ6SIhIZQJVPdux/PkhRc6cIx2nS9qZjpdIAJgNavU0x4zdodmRT8eAc8vB36HjoUf8n6Y/oGjMC0zdTGi1JX35Hv6xNTJ/ok2XQYERBWMOkA4BEBPCxdvvUgc/r7x7uO+oL1zNRKqJAkKixtwLaMXUCALTBIThrYxFDk4TEOtolaFnoGbKl4bC+BOq9VuA28n69jYfnu3r3f/e6+oQZtIiEcyzAgHgAJPUCjzhNGDvfMKLlmgGJFGRTBfvEsmb5gMqYsDBoUePJ8+d4mMf2HFPSvmWPz7IM0zgMZ18t1E7tGn2W5x2OSeK7J34YXghzonkKJd1JqwguKOX8oi36LmD8M/0IK8gJdIQ/D4Bu62TXHw4SFngFPUmyVN3Ng31RDOPsDjM+PGC1W79cyFnyqpYoHWLenn6S3e1BjS69Ex2KKA5OHpEHPWi5oFdNdlOPWP+bRug6zJyWVNdgYsDSMtbq1K5qa0EggBsKLH8pJ/fHnc90IARjAFgbES4TqAKropqu7mG8wHgxhoWVAkyL6DxfH1Re3dw3lMA7DywMJMnTEQve3f00yKNOiJZl1P6RS6xbJ7mq5LXofU1+fa9h4I2HQwZZK15o1d50exhI3RVAoLEjg8UgGEM+4cI5UFlzAGFktGR8S21ED8A/CfEixJo2qGBKaWjc4xeuriCYSmO0h3FQjBMJ95h8TDMDAWIQJ6xomJKIDmjonKrQMyNRZQcDSX8vtcv2VnQxkGvZRMfUSInv7w1nugT99q2D+LvOJBQPGgONaITfi1pu728MIGNiYFweuAKFbpYMh+XBdbNmqRPRNO9wK5QOPV+gN0OnseRuOSqmI05gCmpSUI4ZNAU0kFjoz0y56KZ/9ejfkoPCy/fHp7zRzrDR9OBgzljj7qcjwy+u6WX5NlPoQ3r7QMiCD2ERRil+I+S7+v7bhe7bPKO5MncCsHn1mTAzCBel3jPxlwKMuU+A9CN7HHCjjC5gSpXyTjBQiCZ8PXeC+Hr7IDRu12HQyfz/8hBgXJXUeVDikZjrKea8xdVgP9ff113nISC/+kGYQLyBW9nqhZKKseqbLPgoBHtu3oYFNKTUSGGiBtPPPE6xzvH+9NtV9oXsEXBEmJCpVGO65vY9QQc1cJV1Ddm6ZQsuAVDQ4cWAj09369WwYHiP7bBi60Yvde4K0v/LmjEwWHRsApSc8hvHRStNwFEw/5qD6Ah0QK5qpHWX9zfdnZVLW2YcH3FEhQWBgIGFAnWyVHxJpil45R2DRKORN1Pn4jocOmia9FIdQLjo+zJem6yY5/o33ZsbsSrjwlOMaG/rmlOOaGT4Siz8eImJEqO5/wh4CMQsThwDNc6siLWcoOkKKJ9eXFRVaBuQBX3FhW73l9fUg0nW38CCQG/HSq1Ms3kkSORIsIJgNt8jvftXDnNe5DTERWXjrw5kWjcC36OtJSKyLBAUb0KeBzlPedCx0SvRFsu3WyY0SlU9sjmddJ9ZlmFewpGFkHO4VK6pEnG4EVw5welSMR56KrXYLBK1frxSr+nCeQKrgBeMlXhhUjtffm6GpeLRQMz/6IjkGx8ZjAC6yn0AaTOVZUaFlQJTo3/2yR4aDNzPUHikFJP3eR0e44YoYrJLzNkxYfmly36A/DurfKPxTXJ8Jf4HLGzJ0vpsweVWMDggD3nNbb6GTWwlZXClbCRE+IdfNi8L+YQYMb+N/5jpuv2+Y1aoJhwGZotH/CE9ef2Vn03f9fXNaB2Dx5PNj3WyNJZI7II5NEhSAj8svaG/6ZPCbvyy0DEha4xP3D1QrhMoH9aLg5jEepv+wxt1+/zeqZLA8JhcCt8sZpzRTpYAmZgUH+8W7RLo++/fxiqwsUHmOdTEMiE70yB/6CxKWJkhYuVwF8GHAeJmP6/3g0zmaJsdb9l4Y6cx0iw6Ka+mxe4+1KEy89xdsN3n6Kjfkq/lWEWLilFXB1yahcVqT4vpH3Wd2kZFCx4BIhyqVSlsCzsN39zcvvu8QXbJsk4ENKMQ+TYzoE7FZ9L8WTZIsFOb/ntP6IkH37xUmD78i0jA8vbMvBs5TDw6ScdTGXg6uuaDom1GL3Gvv/CBJv9Skvn8ejKy/PnGi+fv833JaX75yi+mCTz4/3owuf3tSAJ58cKC5YwLjyN+m0DEgxkNz1fOjotWvftHNXAr+TX87dokN2GtSohcsioWuU4TygTv6plcWzbAq/WNkt44R8YvBn5l/0Gc+9oMBeeigYAqaQEh/JHDpR5/P08sWm4tyKAyIJwFj7tZ7h0YaOswkd/+2l5K/aloiVNS9FjoGRAHu1rm2O00MCPA08N2Fb57knbc+mGnJ3ATvA0J3IRUSBiR3gvUo4EKwfVbLOcqiu+7XQ4wB/W0wDLAM75B+SppkQdP0GavlCpIUfHuG+e388w2UG+bx+461hHx8frmhoA4iuS64szYqFh0Oz1H+7fIL2pghQj3CKCp0DAjGDv0PCYgbIKqs2jMCiL4kPxaRj3A8F2uNNgvA9W+8qnPUeMX1XXYMCGaQ/FryUiiLVtBEuuXo8css1Pitqif41K9XfffgnX3N0U73ptwSFv4Tz42RBJxhoFbqXwfUUGmcx/VvqEy/FpZuEHwfXhY6BiRPAwairgnhM5yzPv3+wW+UnzHRwmVhFwnW7ymqAnDqCc0M1eHvF+96UWJALHNmlPc/nS3H+2JzfAfjhEOaDDoCAef/vHXwdaZloWNASzq6rosxYAvVWEEnDCiI0d75wDfu+ZcmBV8fXBKAv+qidooOpDpKlOWFyLWdIcv3lju+dN+pSqpPhU0CwoBfy+lOgSTSAMIuLRDhtQXmuEGzCQCFKCp0DIgD+QFNKadKAiZVK28Kf3DjtEagRjPJ2y+ptJlP1OEjV4LyGOhpeSGKkk9RMvudDww3lI1/jMPNgNSoHj1hmQFtC2IKxjk+Vmiiz7+eb+egLrZP+GPvVWguiooUAwI+oKgk7hfKbPhESY377+gjHa2uVZLyf49n/WhjwMBV8sRz44RhXBhzC4eqA2Llz5m/zuLejyuXOCruPFgO/TsH97QISRgQwsXkGwPiyzJIj2KM4Wkv5o4L8It9gjZTcAj08wnyb/kSECTzgkUbVGpjfKTbAPgQyBkMEdow5IW2CiJP7u/fX54i5++6mEPUq1PRihZhAZOdV9BEIhQv3b8k8aMSrWi6A1yNjp5k8OWaxICEHinW+a/XpkcmQeFTJXMOjwQhwjDlGwNSFYpSZKmauoDyHAkiwlFaMKMrNaC9utePYcClKq8BovnFV6aZzuJfIwgRQJjcS16dw6BYqKZFHxDQ1T7h2sEwwuKkan1BE0YWIbh167dnsviD8xL3xlggQy6v94xujfW7VueIKudB1dnf3NhNsH7amWW+53xjQPIGGgv+hAKPBDkSRECfqEcnAREAoPo1VhYt3WTVoP79v+kGQjgS11gUz0kRqN/c2N3izf7Mkm8M2FRlyMiUv+qiDgbiPJIDHbhWiDiEKcGA4dE4fJ+LHAMG4S8/aJ9gwMPHdOEzFTkGDN98+HOCAcOjcfg+JxgwY6wTDHj4mC58pgQDxsmAJOoQD+YvKhk8PKhZfQbRTLUCEsajLEKOnaS2CRQ18n1iWR3zUL6nNcOWLRlNsJWpdyQowYAZo46TFHjSy/+b5j77akHMswDWTmWrBgqik92VFyISsFggB1qzwoQ+UWe5fZuarooAm/HmmfjHyM06ubtLdN/zlIAVzuMNjkG+Bv65vLpgOA5MTghyjxL8o8oXJxgwY7RBKk+Zvsr9879ThJGbFzyDg8u6chKTx3BM53pWr+XgD7n4QLIOOSZUGQVt41M/FfGhJwk9e0n7LGii4hf3TC+Rqd/Hgm+B5V96Xhsr1pmXa4HhiHnTM2W2KslSZ9Cnw8KASIy0FknWXOVwePj9mwzWmda4FkskUrJO2BLGYw9S5VklVVOt3if2o9QY1eSp9ZwXou0BvUCyioQAgb/5mi7WBBH0TUFTTnAsyvU+du+APEHyuXbACK+8/b2qJcxTZdXVVmHVvycq0t5+yzFSbcqYwzv8e775AZm+yHVtraTkOsoxPVLEdZyhMhrUgQELGJ5aSKpeu26be/BP32kanh5ziURwQPGerVTMC89pE/N7PF/MnLPWuihRjpfEdJ944FcIcUNFVcpdFDTlxIAgov/y2Al5guRz7fhcn/n7OAP40jUqqqDl7bf0sCQsP5uP/fONAa2Mv/SJ6ipTCwznSBH6zEX/19qq4DdJrWblJ4JrIVJCCd67Hh6uchyTg68PLvMDkLpsBXrmCvfQk9+ZRDh48IwPlK64/MJ2BnhA3yxoGqOkqw8+m23lgb+fEftCHAokn2snffQOwdtefet7q8oVzrwjEABC/beKgtyh+HwU5RsDRh38SHwHA15yXjogtUeXlEwZcUCHmDJIUyShms+B05prJQZMBQQg+Xf8ulem6Tvee8kJDUN7iMsEU+8uPZMXpKCJzDwa4/BSROmkh8KAjB+5zDfc+rnQRbEzCnFf4HE3SeWgJnUUFToGZAqmGhaI6OP7N46RxjDcHx4ZbnWU/Q6TTNdYhVdf0kHphAM0facngUcNXFbf5cSAvdUY+vyfpxkc/1Aq4md1fv/7gmRADA7u97Z7h0Wii1Bp2igvhNYQF2Wh0hQ6BqTkRD91eCQn5Pyft4nMyn/+xQlWC5DstXAR7+DhXaV8DfJZSSWkglRuaJv0zOlqy/Cbu4eq4PfymF0BSgD7P+3E5q7DYYBjFSQDAu5dtHSj6dQfysr2KbVBFWvlQNsyyuNFUaFjQLCILZtXt6y4myX2gej7NOTreZaq+PEXC6zen//7xdIhqVxAVVAQNbkh4FizVbLt+t9+boUs/X2bkpTUua67Uhl7VG8oaCpIBqQU8NQfVrnn/jnRCnb694K/ExdMz24plvTk/856oWNAptFqcvIC+Hzo9/1Usb68QbTCN0/jGBK2n39psur7xfb7Pb5/qtWV6dxBragE68oNMcVjef7iN59ZF0p/XwoIAVcbfEN3Ze819n/O93UShh7/8xjrD0zp3oAwENB3cQvRIqKmPueW6KP3ucqPUI2fIkg+9ehaz933uz6ahmtkiREtdAwYDAKVUZ96aJCrJ9+ej9DGH0j9vrsfGWldgYJ9gmXbtGS1s2rg/u+MNBXdrptrYwRE9E23fW51Z/xwHEYSiTq3q/ARtVNQ5NkmKGQJA4PsZj27HiXBtbIsIWW1fPn0IpOsAy4F+MrL+KraTpADQ/Wt8PH4nTp+XMMNV3XJtVMcBzTl5yjwRH+5BaHedPheQT6n+xiPVbvXKtbEhmvzqdAyIO4O3j4ax9C1Mkw8CBzGv1TmGlELn5LkSiJkhiWMJA37Ev1to9ZpFEiyNs0DQUbDVAGR6I61fe1lHWSI1LeGMHSrXLEyvbjPnr3pFbKI2kR1VA+OE14CpW/dMulgf+F6dSsK5VzedNghCjnSSxh/XThMBvqb5CuaI2IgxFNONzinvTRCQdNThfvcIr03jP5GupITfMKAxu42+QApHRcOCATHYZlvDEhCOEUhmV5yKuYYvoCC+kz7A/qC1KtTOab0GO6YuSqn++AToyxq4T/o0pIOSCq892ee2sLqw/hS1L9ujslDplQZU/BzcvOMGrPMLVNsmN/CxMPoqcLp+AHxTVLegpJs0D49WMr7EreNt8UC7g4eeJDTAcSecmtIQlSMsep+5BP7nKz6gGQPWiFJRSniJZiNmDeulwdVXdYnpGuv7vWs8tZFygnOLuSYbwxIsk1rheIuVt80oglHmkoLbQKiJejZ5l8PlaLeeO8H64JOESGPR2wKwx9IdQViwzipfWIfmIslZSrIBZmvpKcpavZH4csp09dEMqB/nCOxjsA454wW5i2ggCdRo0BK2VL/ZcaT/3iVVF0do1RPag+S3uBTen1A+iY3O3z1AWnah4uBPrJYPUeaKIFWUhYxy6gplJ4aYzWI73w825KUfCnFPnRUP35AI/eLyzupTwjTSPojCRLcSXKiyj51oJcu32I5x5skAdcr+w5EDA8qKjR1pMeG8xMzbyTdjK6XdDrC2EJXs3VNmeT48NL59WIYJ5A+z7800ZpvT4uIrsDct93SXf3jWli4EUmcFeWbBDyackKyutnw90xzy8Q0b6pI0aPPjLaSuOHCOvAaRc6ZKu++tbdFLXhoMC7pnehtcwVsmKHUS4p2o/et0bSJfvRTJBLKqCRBdQiazlDTDw8CFVyrSrWi5An9UijPS2bh/Y+OchMl6f0XjKmd7k5Y1qcJWQTkLEoABGNUZBkQRoEJ3/9kjntIesxKMRTMFSYGDk/+dZd3dM2UdIVjGqNlohoPUv2APsLoQ0QEsFrDcdDwcX4Kn4kAcX8skVjovLVqkulY1WrsdGpfS2NRU7nOa01v/qti6VSZ9V84pCrbMmtQmyc75mNciiwDcvMMHjHSt1XP+St1Ppo2IxYvx1TUVdWssCpRrukFslAFKHHC+i4WjlmYiCmY+8awTJWETKlb2a2TVU93ARp5RwFcKfd2gUKNMF885U2KNAPCLLhJ0OMe//NYA5HS9upwTaJIByROcbktKJmbrmIGy/hZGSNI5tBBQwqECr3ckMi+bhv/UaO3rKRYO+FJpuKwxOdeUFGosvD7wT1lAKoKgu4tJyryDLhL0zA1Ah9+6jsrsrhewfXDJdnwHIBGSZUBQE3lsioQyUPjQQYGT04PkN+R5FSFQA3AGqcg0fez1lqBdF+tiOd42W1jXdHFbHvlPA/7FQEedOlQS4DelqqQ39oczzlNv5ynyDNgMNj/Vp7I2x/Nsvop+OVySzANzAMj4dRF+cYhi2+QbLxwJdbg2DjJ6V5OwcrGgmZhceIgLlWSdq3BVjkviT9TLtcYUI5sHOAUIvpUTuio8+IYri/rl2tGWiLNgj+Miry8gBihl53fxg3sk+o6d6iT80VnbJFgwIyBWCwmGf7tEpOEoGRyS1iIWH+dpYB3bFdT+g8MVdJ8g+SgDPl6QcwhsTzPV6X84/qlGj4wHTGc+ymYAyMFg6kYnZaclK9HqF+wLHOfcNCTl4JlC3qHIkpITOoa0ohx46bMxpi/f9R6FzHdo/cMsISrKJ9p1D58l28MCBKanAoKO9KG/mgkrquboPC1JQH80BMSZKrCc48pcD9u4srIKk/+PTGF4j/juNw7rovgM95/piuaF96jivmErXzCzUEb1HNOb6W4cyv/5zyv41Z67e0fLD4blSR0jfCO9L+jTgtSE5cSFbRWrNpmBSbRi9cLakWiUVSFr/CFIampBQ3c6vorOlmVLSR/vJRvDBjvCY/kdvR+o3vSMV3T4UH+NIcUfFUPDgjTd+OWu/1e/NS/dnyEg6yXro4nHxqMjeM7IAwAJNOt9wy1eCwxaNYDQkLSJZ160bnpsRvs7y85NjrgTbd9YSho/3eurbSm+Fuu7er+oOr16GhhXRMJSmhwhdov/CCJ+KKQ1B98GovzC45LOT5UBhru4PPr2a1+TNgz2DarZZFiQGLUacIKXnVJR4sTowOFFWXyRdDX3vt4tnvhlakW2fAdreGBJIPuwrNbmwSopWgCISifqWFCuhVRxHuK0iLDRgGSgn2uuLCdxZ2JP/v188Lny+kz7bPoS3LfY6MsTOZvj6FAdOdCtQmjR0mY+YJtYeK5C9ZLj1yoY8x2w0YuCX6KWaJLEnO/TO0maHpIPUZcVbmhIsWAgAwwDoDcA4sn9BSuoo8EgGFo3/WG2g58Oy69uUu6OyN2WEndPPWEJurInmIRhMoCAEQ1/AMzR5Pn9yVNokrYwsg3XtVJ7VOTzO8We6b4vsGdBMzshf9GN9/GqXzmKSrAPqiJ9fP1j0okCAbmGB/pegExROElkaQ4rfGPnio0zaB+jawxon+8eNaLFAMinTTpuP696xsQk1gllUF9oqoopW0fe3aMPQgqHGDN+oTVW0e5vdeqKfZx/VOtKSJS1SegX1imz784yZR8/3eQI2ec3NRag7Vsluz/HPc6VR8wQL4YJqd6RAcoUlV/JZR4D+mdWN0+YQl/PnSeZdCRuM96ODwZbI/UBlh7rvTWwcp4Iw0iJ7RQsK+/LFIMGNx8iowFwkXXXNrRmjUzNYWJQUd5pxnfJ1/OU1/chdaCNbxN8Bk9DhBGFxk3oIB4yGS7haf2VVLy6dVxzx9HRuYKk6DeSs0RSVhHqqJXRU2PwTn9JS/H9h27LTn8afVAIfstCspF7WsKuHON5HBDgdSfpPjuqLFLzQ0F8xLxQZ/0iWsjVowlTS84OqOnW+/+lvGtF0kGZGiwWq++pL1cII1ch7a1zGcXfug4WampwnRMCidxTyRCVkRTxO5d6ggDR4vSBmZlIynQ8/CrYWH/TumghP6i9EoQJLS1Okv4QxgyN8lQxKMXLdmonnAzrDVr2EHM9SL5OT7M8vBd/dS7rbrparxoXAvJRe98NNPaLNC6jI5HWVED+Q8x5m5StYM2Kuqe25wZ/7hFlgF5IC0V4zz95GZCJ3e0gfRhQxTdQa9Ch/v0q/mCHy32x+/gOpIQJzTShQd0wsBGAjBUl6+tLEEyY+b/vDFN0+NCs7AP7pjxgXMbQPT4dICo7ybytw+vr167TaCK2dYP7jNdJ1ItTLwEPbuld3+/6Jy2ZnmzDe4WgBW0LaNuDHVkdqjWczjEFj4Ony+R/5Am3p3b17Y8j7y0Mgsfs8gyIIo0TNNLbesvOCvNFOomqpIfloIMFAhnnLPocEP0cGm/it8sK6qpfA8czL1VJD1N/jH8hPUyJBpIknc/ni2XzNSY3WESjASsyZvU2AXdFEU/J+IlIfT27D/GqzfdUsPq+ftgmeL7O0MvW4e2tR2YRTB9wMnGSyIPGbrApGBUl3bGA+ONGQN/39mntzQ1AfR7XvW+8PUVWQZkEPDYkXrJtHKr2giAfi6uBB+mrIACHQnwKVlgf/rLOEOCBL/7S/blocFQxHi7dKytBPlGFm6rpnPRNHDwXV/5u9k6FjTT+F2D1WFSkjSeTDUcyOMEEbv/8VHm5okCH6C30R4WZze66ZffLDC3EJlsS5ZtsXCcLzWDCyyp+yBigmpBpXvq/lDhX5eaL1SkGZARxJKtIIQH6YknKk0SIyAqlRNdiWy6kaOXqPvkYhkmkhrK4whnmvlPhJAUEjE9OlJZyOMKFp0YKUm1afNOGQ57/V1MWvbpkSIlv7kBFcpICuLw9Qn9DTwjDak/VDvWEeoHvHrtj50/g+2RXlwH/fOIPZOvgmsFnZapO9ysMdgnWJJbAtKdciJI9B5yvOPGyo1+Ghwrq2WRZ8BgYEjqARRASkHbNEkf9Qvx33KctDDO2InL3QuaRokWkHTE1EVQPzuC0WHsslqioq0Rs0QVsGS6rCj99BxNdTiLm0qP9K10zoX+xjT6ouLM1P4j7TLaZZLev6WlrGz0tXGSeluzMaa4B64BHRmnNdEe3FXNpS8fqsERNT4JBswYFVIlCYvBhJSSAFbEdOXrhDxkcj7mLdzgPv1CPjPphYsWbza9KmqAg++YXnmwgXuGGHEU0wbTN2pBB1UWuFlhs2O61Du4Hy8BERtqEP7jZZWAm73O0jc5VtQ0yvlQB0gvQOfAko/yaQbXybKWpHZai2RTSVAfUAUCdE94u/z4nGDA0CjiNqktGDpulDNOTq8xiPIdw4R62Luk/E+QBfmtfGeTlBsxQ4xAqmeUFAqdIu6PSEwkH9eB45ioDWrXtu17Jfk2mCWNj5LaNsRvD5UATiD1yAlpI8kHaIPKBq1V1YD792eDQz1fsH+CAYORCC2DFNMb1WIUlAfRDZ8J2RxphEQZMXqxtf56/d2Z5sA2w0W/ed6Q0Bly97F502oyAhrbNYDvIz67VInr+UEwFvcG0pmX7Uy5WLhnGDA/db2srjXBgBEjw3RTvVoZN0DVTAFYDhReD2nkGwMwGpUMVinHGBDDnHkbpReucdNnrHaTlROMgzc/iCRzmAPC6UxOc5QzOy/nolY1Rk9a82RLvKLXH26jZOWCBOpCXo4b7z4JBsxipNDZGqRUshDbOdIHW8vrDxMwNUY5X0El79FUSEFwkraHjVoiS3OjpXCi9OOvO1oItwqhOJzdTLfUUmwnwytVJYPT9d7Dd6UJBsxmrGE2pA/wdWKf+NFQyMMImmB3plt8cDtkIBDKwm84QRbnl8MXummKMixSWO9oIRDb/XvJrdK1vhVLx92C/kc1iYLS9bK690gGxKv+95djayhndZDC/D0WJMYJfXVJNSQERXSDKEqUXshYIA23qzs7fUlI9SS+SrEhck3wva0U8phpNIwNLKgxTBZzMc3W1ouTpM9VhDkkx5koDX5B3E1I9MPNeMH9RjLg+5+qqLVcDAnKPAKExsC/UdmUCErUVJx5j/Q1rNRNyrMA6AkoAck4ccoqR34xhgwMy/KAXIkACeyzluiYOREvgYI36WmdcrmY2yVjyW8k1lMWuKNCcK3kWmmoEB/wqcOh3+V07fweyYDUOQEPl6DMIwDDoaBbHFTTc1YSMPNe6dYy+iEWM6hlIiiU9yBhyEqzrUof742baCOx3UCrbBsVm/WPTQVYroecnBrJ5awyGUhl0N+8JBgTfF9dJepAXDPVHkmJ519/JAP6GyXW838EkHJgDrGg0ReXrtisKXqXpVEiAABB7Nj5o38P/TJ9mswchIXxSICi/xxZeQBFSY6CCZOql88XwED+3/2PR0ww4I9jcdg/wYSAPnFegxlkKqY+IHCoYBrmopiKWYcB/amT6qjoqfYnf2UpSemSirjgMjqaJF1Wg5tgwKxG5ij6HgZMl4AFF5E4UrebYMAjNfKJ89oIJBgwwQhHdAT+HxWA3yaUtkeTAAAAAElFTkSuQmCC;" vertex="1" parent="1">
          <mxGeometry x="620" y="330" width="90" height="117" as="geometry" />
        </mxCell>
        <mxCell id="QlD7434E7cFauA96BwXS-10" value="2-way SSL" style="edgeStyle=orthogonalEdgeStyle;rounded=0;orthogonalLoop=1;jettySize=auto;html=1;entryX=0.5;entryY=0;entryDx=0;entryDy=0;startArrow=classic;startFill=1;" edge="1" parent="1" source="QlD7434E7cFauA96BwXS-7" target="QlD7434E7cFauA96BwXS-5">
          <mxGeometry relative="1" as="geometry" />
        </mxCell>
        <mxCell id="QlD7434E7cFauA96BwXS-7" value="MFEC" style="rounded=0;whiteSpace=wrap;html=1;" vertex="1" parent="1">
          <mxGeometry x="359" y="120" width="120" height="60" as="geometry" />
        </mxCell>
        <mxCell id="QlD7434E7cFauA96BwXS-12" value="User" style="text;html=1;align=center;verticalAlign=middle;resizable=0;points=[];autosize=1;strokeColor=none;fillColor=none;" vertex="1" parent="1">
          <mxGeometry x="154" y="465" width="50" height="30" as="geometry" />
        </mxCell>
        <mxCell id="QlD7434E7cFauA96BwXS-13" value="CVL" style="text;html=1;align=center;verticalAlign=middle;resizable=0;points=[];autosize=1;strokeColor=none;fillColor=none;" vertex="1" parent="1">
          <mxGeometry x="394" y="465" width="50" height="30" as="geometry" />
        </mxCell>
        <mxCell id="QlD7434E7cFauA96BwXS-14" value="Web action&lt;br&gt;manager" style="text;html=1;align=center;verticalAlign=middle;resizable=0;points=[];autosize=1;strokeColor=none;fillColor=none;" vertex="1" parent="1">
          <mxGeometry x="625" y="460" width="80" height="40" as="geometry" />
        </mxCell>
      </root>
    </mxGraphModel>
  </diagram>
</mxfile>
